{"glyphs":{"0":{"ha":836,"x_min":33,"x_max":800,"o":"m 33 450 q 144 789 33 653 q 422 925 254 925 q 694 795 588 925 q 800 460 800 665 q 696 113 800 246 q 419 -21 592 -21 q 140 112 247 -21 q 33 450 33 244 m 360 790 q 304 655 324 747 q 285 465 285 563 q 324 219 285 328 q 442 111 364 111 q 479 118 463 111 q 534 251 515 163 q 553 440 553 339 q 514 690 553 586 q 399 794 475 794 l 360 790 z "},"1":{"ha":631,"x_min":14,"x_max":631,"o":"m 631 74 l 626 0 l 46 0 l 38 46 q 226 119 108 88 l 226 696 l 63 629 l 14 721 l 364 931 l 467 858 l 467 103 l 631 74 z "},"2":{"ha":832,"x_min":50,"x_max":775,"o":"m 775 288 q 726 0 768 139 l 703 3 l 703 0 l 79 0 l 50 125 l 357 456 q 479 682 479 596 q 442 772 479 736 q 335 808 406 808 l 315 807 l 246 563 l 93 563 q 68 794 68 657 l 69 838 q 394 931 225 931 q 633 852 540 931 q 725 654 725 774 q 679 503 725 579 q 521 314 633 428 l 326 118 l 332 108 l 560 146 l 668 314 l 775 288 z "},"3":{"ha":821,"x_min":58,"x_max":761,"o":"m 544 479 q 699 401 638 468 q 761 242 761 333 q 657 49 761 125 q 389 -28 553 -28 q 58 44 214 -28 l 124 267 q 317 160 239 199 q 461 114 394 122 q 508 224 508 161 q 459 331 508 286 q 325 376 410 376 l 247 374 l 240 493 l 254 493 q 414 544 353 497 q 475 663 475 592 q 426 767 475 726 q 299 807 378 807 l 238 599 l 96 600 q 78 778 78 672 l 81 844 l 79 846 q 394 931 208 931 q 631 864 539 931 q 722 693 722 797 q 677 568 722 626 q 544 479 632 510 z "},"4":{"ha":853,"x_min":18,"x_max":825,"o":"m 667 218 l 667 92 l 768 74 l 764 0 l 278 0 l 269 46 q 435 117 322 78 l 435 218 l 67 218 l 18 347 l 486 931 l 579 910 l 667 908 l 667 367 l 819 371 l 825 260 l 782 218 l 667 218 m 435 361 l 435 557 l 444 674 l 228 357 l 435 361 z "},"5":{"ha":796,"x_min":49,"x_max":746,"o":"m 411 561 q 651 478 556 558 q 746 272 746 397 q 648 54 746 140 q 394 -32 550 -32 q 218 -6 313 -32 q 49 65 124 19 l 122 283 q 299 168 204 214 q 475 111 394 122 q 526 228 526 164 q 460 348 526 307 q 289 389 394 389 q 167 368 232 389 l 93 446 l 135 903 l 635 903 l 635 901 l 701 903 q 697 763 704 851 q 675 622 689 674 l 528 622 l 496 769 l 325 779 l 306 547 q 411 561 339 561 z "},"6":{"ha":808,"x_min":47,"x_max":772,"o":"m 324 476 q 518 553 408 553 q 699 476 626 553 q 772 283 772 400 q 678 60 772 149 q 438 -28 585 -28 q 157 82 267 -28 q 47 365 47 192 q 117 633 47 504 q 334 841 188 761 q 696 915 481 921 l 696 686 l 436 742 q 326 603 365 704 q 286 386 286 501 q 335 171 286 257 q 472 90 383 85 q 544 246 544 139 q 515 357 544 311 q 438 403 485 403 q 356 372 401 403 l 324 476 z "},"7":{"ha":708,"x_min":31,"x_max":715,"o":"m 715 771 q 338 -31 500 393 l 110 47 q 501 749 303 463 l 492 760 l 239 750 l 214 603 l 56 603 q 31 858 31 710 l 32 903 l 653 903 l 715 771 z "},"8":{"ha":792,"x_min":51,"x_max":740,"o":"m 567 489 q 740 235 740 381 q 644 43 740 117 q 397 -31 549 -31 q 149 41 246 -31 q 51 224 51 113 q 93 356 51 294 q 211 458 135 418 q 79 671 79 547 q 169 855 79 782 q 400 928 260 928 q 618 863 532 928 q 704 697 704 797 q 567 489 704 565 m 326 799 q 293 714 293 760 q 330 632 293 665 q 443 558 367 599 q 510 690 510 615 q 476 778 510 743 q 390 813 443 813 q 326 799 358 813 m 488 93 q 518 186 518 142 q 483 282 518 242 q 361 372 449 322 q 279 215 279 310 q 315 119 279 158 q 415 81 351 81 q 488 93 454 81 z "},"9":{"ha":792,"x_min":38,"x_max":754,"o":"m 469 344 q 338 318 404 318 q 124 404 211 318 q 38 619 38 490 q 133 842 38 754 q 376 931 228 931 q 650 813 546 931 q 754 511 754 696 q 596 134 754 283 q 199 -15 438 -15 l 153 -14 l 114 221 l 383 157 q 489 295 454 199 q 524 510 524 392 q 486 716 524 632 q 375 800 449 800 l 351 797 q 299 738 318 782 q 281 639 281 693 q 318 517 281 567 q 418 468 356 468 l 456 472 l 469 344 z "},"\u0000":{"ha":625,"x_min":0,"x_max":0,"o":""},"\r":{"ha":715,"x_min":0,"x_max":0,"o":""}," ":{"ha":368,"x_min":0,"x_max":0,"o":""}," ":{"ha":368,"x_min":0,"x_max":0,"o":""}," ":{"ha":694,"x_min":0,"x_max":0,"o":""}," ":{"ha":1319,"x_min":0,"x_max":0,"o":""}," ":{"ha":139,"x_min":0,"x_max":0,"o":""},"!":{"ha":485,"x_min":99,"x_max":386,"o":"m 99 968 q 246 994 160 994 q 386 965 336 994 l 322 350 l 160 350 l 99 968 m 238 254 q 376 113 350 206 q 258 -28 350 19 q 113 90 158 1 q 238 254 128 193 z "},"\"":{"ha":614,"x_min":15,"x_max":617,"o":"m 15 607 q 74 876 74 753 l 72 897 l 138 963 l 292 932 q 256 756 299 872 q 151 558 214 639 l 15 607 m 333 607 q 392 876 392 753 l 390 897 l 456 963 l 610 932 q 574 756 617 872 q 469 558 532 639 l 333 607 z "},"#":{"ha":863,"x_min":75,"x_max":788,"o":"m 649 450 l 624 288 l 747 288 l 747 169 l 606 169 l 578 -15 l 453 0 l 479 169 l 329 169 l 301 -15 l 176 0 l 203 169 l 75 169 l 75 288 l 221 288 l 246 450 l 115 450 l 115 565 l 263 565 l 289 736 l 414 722 l 390 565 l 539 565 l 565 736 l 690 722 l 667 565 l 788 565 l 788 450 l 649 450 m 522 450 l 372 450 l 347 288 l 497 288 l 522 450 z "},"$":{"ha":831,"x_min":71,"x_max":783,"o":"m 783 258 q 710 77 783 149 q 519 -17 638 6 l 519 -201 l 349 -201 l 349 -22 q 72 58 182 -3 l 74 61 l 72 103 q 97 326 72 233 l 210 326 l 300 125 q 461 94 379 97 q 536 199 536 129 q 442 318 536 268 l 272 400 l 218 431 q 71 663 71 519 q 147 844 71 769 q 349 939 222 918 l 349 1090 l 518 1090 l 518 943 q 742 894 643 932 q 713 629 736 726 l 585 629 l 531 799 q 369 829 461 826 q 307 725 307 792 q 351 648 307 679 q 494 573 394 617 q 652 490 593 529 q 747 395 711 451 q 783 258 783 339 z "},"%":{"ha":1154,"x_min":58,"x_max":1094,"o":"m 58 601 q 124 771 58 699 q 279 843 189 843 q 436 771 371 843 q 501 599 501 699 q 440 435 501 503 q 286 368 378 368 q 126 437 193 368 q 58 601 58 506 m 833 836 l 932 756 l 300 -42 l 200 40 l 833 836 m 313 492 q 354 601 354 528 q 332 683 354 649 q 269 717 310 717 l 238 711 q 200 604 200 671 q 224 524 200 557 q 293 490 247 490 l 313 492 m 651 207 q 717 374 651 303 q 872 446 783 446 q 1029 374 964 446 q 1094 204 1094 301 q 1033 40 1094 107 q 879 -28 971 -28 q 719 41 786 -28 q 651 207 651 110 m 907 96 q 949 206 949 132 q 926 288 949 254 q 864 321 904 321 l 832 315 q 794 208 794 271 q 819 128 794 161 q 889 94 843 94 l 907 96 z "},"&":{"ha":974,"x_min":17,"x_max":1026,"o":"m 967 428 q 807 494 871 490 q 850 313 850 407 q 737 58 850 156 q 442 -39 624 -39 q 138 52 260 -39 q 17 283 17 143 q 58 420 17 363 q 165 508 99 478 q 46 686 46 568 q 140 858 46 789 q 382 928 235 928 q 674 867 540 928 l 600 678 l 347 783 q 287 733 311 768 q 263 656 263 697 q 304 554 263 599 l 450 501 l 426 399 q 289 358 339 400 q 239 251 239 317 q 297 138 239 178 q 439 97 356 97 q 578 129 519 97 q 654 301 654 189 q 619 446 654 376 l 542 399 l 489 497 q 881 657 753 657 q 1026 599 967 657 l 967 428 z "},"'":{"ha":258,"x_min":-37,"x_max":224,"o":"m -37 693 q 7 928 7 801 l 4 975 l 67 1040 l 221 1018 q 188 826 224 935 q 97 644 151 718 l -37 693 z "},"(":{"ha":497,"x_min":43,"x_max":447,"o":"m 301 -215 q 43 421 43 94 q 308 1017 43 743 l 447 939 q 286 426 286 679 q 443 -136 286 175 l 301 -215 z "},")":{"ha":497,"x_min":50,"x_max":454,"o":"m 54 -136 q 211 426 211 175 q 50 939 211 679 l 189 1017 q 454 421 454 743 q 196 -215 454 94 l 54 -136 z "},"*":{"ha":581,"x_min":-6,"x_max":542,"o":"m 183 811 l 22 904 l 96 1076 l 211 907 l 253 1089 l 439 1068 l 297 889 l 211 907 l 225 888 l 183 811 m 317 907 l 503 928 l 542 747 l 329 822 l 317 907 m 272 754 l 132 631 l -6 760 l 214 818 l 272 754 m 354 811 l 428 640 l 267 547 l 275 775 l 354 811 z "},"+":{"ha":792,"x_min":75,"x_max":717,"o":"m 717 288 l 469 288 l 469 33 l 321 33 l 321 288 l 75 288 l 75 425 l 321 425 l 321 682 l 469 682 l 469 425 l 717 425 l 717 288 z "},",":{"ha":428,"x_min":68,"x_max":347,"o":"m 68 -126 q 164 28 157 -51 l 89 92 q 211 251 106 194 q 347 82 347 201 q 283 -77 347 3 q 128 -197 218 -157 l 68 -126 z "},"-":{"ha":643,"x_min":46,"x_max":575,"o":"m 46 433 l 75 492 l 497 492 l 575 367 l 546 308 l 124 308 l 46 433 z "},".":{"ha":403,"x_min":133,"x_max":403,"o":"m 286 -58 q 203 -8 249 -43 q 133 60 157 26 q 257 210 189 169 q 403 92 340 175 q 286 -58 368 -3 z "},"/":{"ha":586,"x_min":18,"x_max":589,"o":"m 446 1015 l 589 953 l 164 -168 l 18 -108 l 446 1015 z "},":":{"ha":503,"x_min":108,"x_max":372,"o":"m 372 542 q 254 401 346 449 q 108 519 154 433 q 233 682 124 625 q 372 542 347 631 m 372 113 q 254 -28 346 19 q 108 90 154 1 q 233 254 124 193 q 372 113 346 206 z "},";":{"ha":433,"x_min":68,"x_max":353,"o":"m 353 542 q 235 401 326 449 q 89 519 135 433 q 214 682 104 625 q 353 542 328 631 m 68 -126 q 164 28 157 -51 l 89 92 q 211 251 106 194 q 347 82 347 201 q 283 -77 347 3 q 128 -197 218 -157 l 68 -126 z "},"<":{"ha":801,"x_min":86,"x_max":713,"o":"m 710 572 l 296 340 l 297 332 l 713 119 l 646 -8 l 92 281 l 86 378 l 644 694 l 710 572 z "},"=":{"ha":806,"x_min":75,"x_max":731,"o":"m 731 422 l 75 422 l 75 546 l 731 546 l 731 422 m 731 164 l 75 164 l 75 288 l 731 288 l 731 164 z "},">":{"ha":801,"x_min":88,"x_max":714,"o":"m 156 694 l 714 378 l 710 281 l 156 -8 l 88 119 l 504 332 l 506 340 l 90 572 l 156 694 z "},"?":{"ha":890,"x_min":122,"x_max":763,"o":"m 426 999 q 669 919 575 999 q 763 721 763 840 q 696 563 763 628 l 583 463 q 515 346 526 408 l 315 346 q 344 473 314 422 q 428 576 375 524 q 499 658 481 628 q 518 725 518 688 q 440 846 518 811 q 371 838 404 846 l 294 635 l 154 635 q 131 772 140 694 q 125 883 122 850 l 124 886 q 426 999 254 999 m 428 254 q 567 113 540 206 q 449 -28 540 19 q 303 90 349 1 q 428 254 318 193 z "},"@":{"ha":1504,"x_min":69,"x_max":1449,"o":"m 772 1014 q 1144 931 992 1014 q 1373 717 1297 849 q 1449 439 1449 585 q 1344 133 1449 261 q 1069 -24 1240 4 q 847 78 908 -33 l 700 -18 l 651 -22 q 501 31 561 -22 q 442 157 442 83 q 470 248 442 203 q 554 321 499 293 l 818 328 l 818 435 q 754 574 818 542 q 676 558 711 571 l 643 403 l 506 401 q 479 574 479 489 l 481 613 q 674 667 567 644 q 844 689 782 689 q 957 661 901 689 q 1042 589 1013 633 q 1058 483 1057 563 l 1058 172 q 1083 133 1058 133 q 1145 174 1111 133 q 1200 285 1179 214 q 1221 429 1221 356 q 1101 723 1221 611 q 779 835 981 835 q 434 708 567 835 q 301 378 301 581 q 426 13 301 189 l 299 -67 q 127 167 185 40 q 69 424 69 294 q 153 716 69 581 q 395 933 236 851 q 772 1014 554 1014 m 679 172 q 703 113 679 136 q 818 139 744 115 l 818 242 q 679 172 679 249 z "},"A":{"ha":1014,"x_min":-28,"x_max":1031,"o":"m 1031 74 l 1029 0 l 558 0 l 550 44 q 661 107 589 72 l 613 239 l 307 239 l 251 93 l 371 74 l 369 0 l -19 0 l -28 44 q 89 108 21 78 l 386 840 l 365 897 l 582 953 l 931 89 l 1031 74 m 568 356 l 460 647 l 350 356 l 568 356 z "},"B":{"ha":963,"x_min":33,"x_max":919,"o":"m 707 486 q 864 402 808 465 q 919 256 919 339 q 822 73 919 142 q 556 0 724 4 l 42 0 l 33 44 q 151 110 86 81 l 151 832 l 53 846 l 54 919 q 524 931 240 931 q 781 864 682 931 q 879 693 879 797 q 835 565 879 625 q 707 486 790 504 m 403 789 l 403 528 l 465 528 q 588 567 547 528 q 629 664 629 607 q 603 754 629 711 q 536 810 578 797 l 403 789 m 500 118 l 521 117 q 625 160 589 117 q 661 261 661 203 q 617 376 661 326 q 508 428 574 426 l 403 428 l 403 129 l 500 118 z "},"C":{"ha":829,"x_min":13,"x_max":818,"o":"m 818 100 l 526 -24 q 229 38 344 -31 q 63 215 114 106 q 13 447 13 325 q 67 692 13 578 q 232 876 122 806 q 499 947 342 947 q 792 857 667 947 l 793 831 q 758 590 793 718 l 608 590 l 567 776 q 386 814 479 810 q 295 671 325 760 q 265 483 265 582 q 337 233 265 331 q 543 139 408 136 l 779 214 l 818 100 z "},"D":{"ha":1017,"x_min":33,"x_max":1001,"o":"m 517 931 q 779 864 669 931 q 945 691 889 797 q 1001 468 1001 585 q 871 134 1001 264 q 526 0 740 4 l 42 0 l 33 44 q 151 110 86 81 l 151 832 l 53 846 l 54 919 q 517 931 264 931 m 496 128 q 672 220 606 128 q 739 456 739 313 q 695 664 739 565 q 578 810 651 763 l 403 789 l 403 142 q 496 128 450 128 z "},"E":{"ha":893,"x_min":33,"x_max":826,"o":"m 824 289 q 807 0 826 153 l 42 0 l 33 44 q 151 110 86 81 l 151 831 l 47 846 l 49 919 l 817 919 l 818 888 q 792 639 818 760 l 653 639 l 628 781 l 403 796 l 403 515 l 693 539 l 693 389 l 403 401 l 403 129 l 636 147 l 686 300 l 824 289 z "},"F":{"ha":865,"x_min":35,"x_max":811,"o":"m 810 915 l 811 882 q 785 631 811 747 l 646 631 l 619 782 l 396 797 l 396 488 l 704 511 l 704 353 l 396 367 l 396 100 l 565 74 l 564 0 l 43 0 l 35 44 q 144 106 89 81 l 144 831 l 42 846 l 43 919 l 811 919 l 810 915 z "},"G":{"ha":983,"x_min":13,"x_max":958,"o":"m 853 331 l 853 94 l 544 -28 l 501 -29 q 221 41 331 -29 q 62 219 111 111 q 13 443 13 326 q 158 804 13 661 q 535 947 303 947 q 838 863 714 947 l 839 832 q 807 610 839 728 l 658 610 l 615 778 q 392 814 511 815 q 297 672 329 763 q 264 479 264 582 q 341 222 264 319 q 547 124 418 124 l 626 131 l 626 307 q 494 376 536 347 l 503 422 l 957 422 l 958 357 l 853 331 z "},"H":{"ha":1151,"x_min":33,"x_max":1118,"o":"m 1118 74 l 1117 0 l 631 0 l 622 44 q 740 110 675 81 l 740 393 l 403 393 l 403 94 l 529 74 l 528 0 l 42 0 l 33 44 q 151 110 86 81 l 151 829 l 44 846 l 46 919 l 513 919 l 521 875 q 403 810 471 839 l 403 524 l 740 524 l 740 829 l 633 846 l 635 919 l 1101 919 l 1110 875 q 992 810 1060 839 l 992 94 l 1118 74 z "},"I":{"ha":563,"x_min":33,"x_max":529,"o":"m 529 74 l 528 0 l 42 0 l 33 44 q 151 110 86 81 l 151 829 l 44 846 l 46 919 l 513 919 l 521 875 q 403 810 471 839 l 403 94 l 529 74 z "},"J":{"ha":564,"x_min":-35,"x_max":533,"o":"m 533 875 q 415 810 483 839 l 415 203 q 224 -164 413 -43 q 14 -261 139 -218 l -35 -182 q 122 -25 79 -111 q 165 192 164 61 l 165 826 l 47 846 l 49 919 l 525 919 l 533 875 z "},"K":{"ha":1046,"x_min":33,"x_max":1036,"o":"m 1036 74 l 1035 0 l 714 0 l 443 381 l 403 338 l 403 92 l 513 74 l 511 0 l 42 0 l 33 44 q 151 110 86 81 l 151 829 l 44 846 l 46 919 l 513 919 l 521 875 q 403 810 471 839 l 403 519 l 693 832 l 603 846 l 604 919 l 972 919 l 981 875 q 856 817 943 850 l 607 554 l 951 90 l 1036 74 z "},"L":{"ha":860,"x_min":33,"x_max":856,"o":"m 856 290 q 836 0 856 108 l 42 0 l 33 44 q 151 110 86 81 l 151 829 l 44 846 l 46 919 l 513 919 l 521 875 q 403 810 471 839 l 403 129 l 650 153 l 713 354 l 856 342 l 856 290 z "},"M":{"ha":1363,"x_min":32,"x_max":1328,"o":"m 1328 65 l 1326 0 l 850 0 l 842 44 q 960 110 886 76 l 958 421 l 978 668 l 733 22 l 556 -10 l 313 663 l 333 421 l 329 94 l 447 65 l 446 0 l 40 0 l 32 44 q 154 111 88 83 l 171 808 l 54 838 l 56 903 l 467 903 l 465 901 l 699 250 l 942 903 l 1300 903 l 1308 858 q 1189 793 1263 825 l 1200 97 l 1328 65 z "},"N":{"ha":1094,"x_min":33,"x_max":1061,"o":"m 1061 875 q 950 814 1011 840 l 943 0 l 721 -18 l 306 606 l 325 438 l 325 93 l 447 74 l 446 0 l 42 0 l 33 44 q 151 110 86 81 l 151 828 l 50 846 l 51 919 l 392 919 l 390 918 l 797 293 l 778 467 l 778 824 l 640 846 l 642 919 l 1053 919 l 1061 875 z "},"O":{"ha":954,"x_min":15,"x_max":939,"o":"m 474 947 q 808 808 676 947 q 939 447 939 668 q 813 102 939 232 q 483 -28 686 -28 q 147 105 278 -28 q 15 453 15 238 q 144 809 15 671 q 474 947 274 947 m 369 794 q 304 674 329 758 q 279 481 279 590 q 340 209 279 311 q 508 107 400 107 q 574 118 543 107 q 647 249 619 161 q 675 443 675 336 q 615 710 675 607 q 456 813 556 813 q 369 794 414 813 z "},"P":{"ha":913,"x_min":35,"x_max":896,"o":"m 396 324 l 396 100 l 565 74 l 564 0 l 43 0 l 35 44 q 144 106 89 81 l 144 831 l 42 846 l 43 919 l 522 931 q 792 845 688 932 q 896 621 896 758 q 797 412 896 496 q 544 325 697 328 l 396 324 m 396 789 l 396 464 q 489 453 444 453 q 603 502 564 453 q 642 625 642 551 q 622 734 642 681 q 568 810 603 788 l 396 789 z "},"Q":{"ha":1006,"x_min":15,"x_max":1026,"o":"m 914 -267 l 515 -26 l 483 -28 q 147 105 278 -28 q 15 453 15 238 q 144 809 15 671 q 474 947 274 947 q 808 808 676 947 q 939 447 939 668 q 875 184 939 292 q 703 22 811 76 l 1026 -56 l 914 -267 m 279 481 q 340 209 279 311 q 508 107 400 107 q 574 118 543 107 q 647 249 619 161 q 675 443 675 336 q 615 710 675 607 q 456 813 556 813 q 369 794 414 813 q 304 674 329 758 q 279 481 279 590 z "},"R":{"ha":999,"x_min":33,"x_max":990,"o":"m 990 74 l 989 0 l 678 0 l 494 350 l 403 349 l 403 92 l 518 74 l 517 0 l 42 0 l 33 44 q 151 110 86 81 l 151 831 l 47 846 l 49 919 l 519 931 q 794 848 686 931 q 901 640 901 765 q 853 491 901 560 q 721 385 804 422 l 906 86 l 990 74 m 403 478 q 481 468 442 468 q 644 636 644 468 q 574 810 644 750 l 403 789 l 403 478 z "},"S":{"ha":833,"x_min":71,"x_max":783,"o":"m 783 258 q 683 52 783 131 q 421 -26 582 -26 q 238 -4 336 -26 q 72 58 140 18 l 74 61 l 72 103 q 97 326 72 233 l 210 326 l 300 125 q 461 94 379 97 q 536 199 536 129 q 442 318 536 268 l 272 400 l 218 431 q 71 663 71 519 q 175 868 71 789 q 444 947 279 947 q 742 894 600 947 q 713 629 736 726 l 585 629 l 531 799 q 369 829 461 826 q 307 725 307 792 q 351 648 307 679 q 494 573 394 617 q 652 490 593 529 q 747 395 711 451 q 783 258 783 339 z "},"T":{"ha":928,"x_min":10,"x_max":921,"o":"m 918 928 q 913 777 921 882 q 892 606 904 672 l 761 606 l 740 800 l 590 814 l 590 96 l 726 74 l 725 0 l 211 0 l 203 44 q 339 114 243 72 l 339 814 l 188 800 l 167 606 l 38 606 q 10 886 10 726 l 11 928 l 467 922 l 917 928 l 918 928 z "},"U":{"ha":1049,"x_min":10,"x_max":1039,"o":"m 1039 875 q 921 810 989 839 l 921 397 q 817 72 919 172 q 547 -28 715 -28 q 237 85 351 -28 q 117 397 122 199 l 117 829 l 10 846 l 11 919 l 478 919 l 486 875 q 368 810 436 839 l 368 363 q 424 174 368 236 q 572 111 479 111 q 688 146 640 111 q 747 394 746 210 l 747 828 l 632 846 l 633 919 l 1031 919 l 1039 875 z "},"V":{"ha":1006,"x_min":-4,"x_max":1008,"o":"m 621 3 l 622 1 q 397 -22 524 -15 l 96 831 l -4 846 l -3 919 l 457 919 l 465 875 q 354 814 415 840 l 497 361 l 515 171 l 526 171 l 743 826 l 621 846 l 622 919 l 1000 919 l 1008 875 q 901 815 967 844 l 621 3 z "},"W":{"ha":1413,"x_min":4,"x_max":1415,"o":"m 1415 875 q 1314 818 1371 843 l 1079 1 q 858 -22 990 -15 l 711 446 l 679 283 l 593 1 l 592 1 q 372 -22 506 -15 l 99 831 l 4 846 l 6 919 l 460 919 l 468 875 q 357 813 429 846 l 478 367 l 488 171 l 496 171 l 640 672 l 581 863 l 817 914 l 963 389 l 975 171 l 978 171 l 1154 825 l 1022 846 l 1024 919 l 1407 919 l 1415 875 z "},"X":{"ha":990,"x_min":-3,"x_max":1010,"o":"m 1010 74 l 1008 0 l 556 0 l 547 44 q 626 90 582 69 l 457 340 l 294 92 l 404 74 l 403 0 l 6 0 l -3 44 q 117 110 49 79 l 368 471 l 124 832 l 33 846 l 35 919 l 464 919 l 472 875 l 401 833 l 554 608 l 692 829 l 586 846 l 588 919 l 957 919 l 965 875 q 850 811 919 843 l 638 488 l 908 89 l 1010 74 z "},"Y":{"ha":933,"x_min":-4,"x_max":943,"o":"m 589 92 l 706 74 l 704 0 l 240 0 l 232 44 q 346 107 279 78 l 346 340 l 85 832 l -4 846 l -3 919 l 397 919 l 406 875 l 333 832 l 454 606 l 493 485 l 501 485 l 675 831 l 576 846 l 578 919 l 935 919 l 943 875 q 822 808 899 843 l 589 372 l 589 92 z "},"Z":{"ha":917,"x_min":44,"x_max":867,"o":"m 867 310 q 832 4 863 196 l 832 0 l 113 -1 l 44 110 l 567 803 l 294 783 l 239 596 l 101 596 q 86 799 86 692 l 92 919 l 806 919 l 860 813 l 349 132 l 646 143 l 719 329 l 867 310 z "},"[":{"ha":579,"x_min":122,"x_max":540,"o":"m 540 903 l 360 856 l 360 -36 l 540 -83 l 532 -169 l 122 -169 l 122 989 l 532 989 l 540 903 z "},"\\":{"ha":569,"x_min":-40,"x_max":564,"o":"m -40 946 l 136 1015 l 564 -108 l 386 -175 l -40 946 z "},"]":{"ha":581,"x_min":39,"x_max":457,"o":"m 457 989 l 457 -169 l 47 -169 l 39 -83 l 219 -36 l 219 856 l 39 903 l 47 989 l 457 989 z "},"^":{"ha":690,"x_min":22,"x_max":674,"o":"m 406 903 l 674 522 l 561 449 l 350 749 l 340 749 l 142 446 l 22 519 l 281 903 l 406 903 z "},"_":{"ha":739,"x_min":14,"x_max":725,"o":"m 725 -301 l 14 -301 l 14 -178 l 725 -178 l 725 -301 z "},"`":{"ha":415,"x_min":26,"x_max":390,"o":"m 235 775 l 97 906 l 26 965 l 176 1097 l 390 836 l 269 742 l 235 775 z "},"a":{"ha":782,"x_min":42,"x_max":772,"o":"m 772 79 l 589 -24 q 511 6 550 -22 q 447 78 472 33 l 300 -18 l 253 -22 q 102 31 163 -22 q 42 158 42 83 q 154 322 42 263 l 418 328 l 418 442 q 354 582 418 549 q 276 565 310 579 l 243 413 l 107 410 q 81 568 81 485 l 83 619 q 276 674 167 651 q 446 697 386 697 q 642 596 569 697 q 658 490 657 569 l 658 172 q 693 136 658 136 l 731 138 l 764 140 l 772 79 m 279 174 q 303 114 279 138 q 418 140 344 117 l 418 243 q 279 174 279 246 z "},"b":{"ha":796,"x_min":-32,"x_max":771,"o":"m 465 682 l 513 686 q 699 594 628 686 q 771 364 771 501 q 660 84 771 193 q 367 -25 549 -25 q 76 28 232 -25 l 78 29 l 78 885 l -26 903 l -32 972 q 243 1024 85 1014 l 318 954 l 318 575 l 465 682 m 439 106 q 524 322 524 179 q 486 461 524 404 q 386 518 449 518 q 318 501 353 518 l 318 115 q 400 103 356 103 l 439 106 z "},"c":{"ha":643,"x_min":15,"x_max":643,"o":"m 425 -18 l 364 -22 q 115 77 214 -22 q 15 332 15 176 q 115 592 15 489 q 367 694 215 694 q 540 648 464 694 q 643 514 617 601 l 453 407 q 314 568 393 525 q 247 368 247 496 q 298 199 247 264 q 442 133 349 133 q 593 175 507 133 l 626 99 l 425 -18 z "},"d":{"ha":822,"x_min":15,"x_max":817,"o":"m 817 79 l 632 -24 q 549 10 590 -22 q 483 94 507 42 l 325 -24 q 103 74 190 -25 q 15 325 15 174 q 118 587 15 483 q 385 690 221 690 l 463 683 l 463 885 l 360 903 l 353 972 q 628 1024 469 1014 l 703 954 l 703 174 q 738 136 703 136 l 774 138 l 808 140 l 817 79 m 265 350 q 302 209 265 265 q 403 153 339 153 q 463 164 433 153 l 463 540 q 343 564 407 565 q 265 350 265 489 z "},"e":{"ha":694,"x_min":15,"x_max":674,"o":"m 592 318 l 242 321 q 306 182 251 231 q 444 133 361 133 q 621 186 518 133 l 656 107 l 438 -17 l 374 -21 q 117 76 219 -21 q 15 325 15 174 q 119 587 15 479 q 369 694 222 694 q 589 613 504 694 q 672 399 674 532 l 592 318 m 332 579 q 247 426 265 538 l 456 439 q 413 537 447 496 q 332 579 379 578 z "},"f":{"ha":535,"x_min":8,"x_max":604,"o":"m 356 500 l 356 122 q 482 68 425 103 l 479 0 l 25 0 l 22 49 q 114 90 61 72 l 114 501 l 11 500 l 8 576 l 114 638 l 114 740 q 196 956 114 869 q 397 1043 278 1043 q 604 975 506 1043 l 479 765 q 269 890 390 853 l 354 657 l 510 657 l 513 589 l 442 500 l 356 500 z "},"g":{"ha":806,"x_min":19,"x_max":794,"o":"m 263 165 q 504 142 375 164 q 738 88 633 121 q 757 -4 757 40 q 627 -240 757 -137 q 322 -343 497 -343 q 117 -291 206 -343 q 19 -129 28 -239 l 164 0 l 90 4 l 61 107 q 219 238 142 190 q 88 324 135 267 q 42 453 42 382 q 135 628 42 557 q 371 700 229 700 q 568 654 483 700 q 756 779 610 771 l 794 582 l 746 586 q 663 571 701 586 q 697 457 697 519 q 604 285 697 353 q 365 217 511 217 l 324 218 l 263 165 m 311 583 q 275 458 275 553 q 303 357 275 397 q 382 317 331 317 q 419 322 401 317 q 465 443 465 354 q 433 547 465 501 q 351 592 401 592 q 311 583 332 592 m 360 -165 q 493 -143 429 -165 q 588 -81 557 -121 q 251 -8 468 -33 q 206 -85 206 -50 q 360 -165 206 -165 z "},"h":{"ha":893,"x_min":15,"x_max":874,"o":"m 782 118 q 874 68 835 94 l 871 0 l 542 0 l 542 385 q 453 525 542 525 q 365 501 413 525 l 365 111 l 440 68 l 438 0 l 24 0 l 21 49 q 125 96 72 78 l 125 885 l 22 903 l 15 972 q 290 1024 132 1014 l 365 954 l 365 574 q 572 688 476 658 q 765 588 703 683 q 782 461 781 560 l 782 118 z "},"i":{"ha":479,"x_min":10,"x_max":460,"o":"m 253 765 q 88 892 157 808 q 225 1058 143 999 q 382 917 318 1010 q 253 765 336 825 m 360 117 q 460 68 421 96 l 457 0 l 17 0 l 14 49 q 119 96 63 76 l 119 554 l 17 574 l 10 640 q 285 692 133 688 l 360 625 l 360 117 z "},"j":{"ha":456,"x_min":-14,"x_max":383,"o":"m 254 764 q 89 892 151 813 q 226 1058 143 996 q 383 917 324 1006 q 254 764 339 826 m 288 692 l 363 625 l 363 -62 q 266 -223 363 -156 q 10 -304 169 -290 l -14 -246 q 122 -89 117 -203 l 122 554 l 18 574 l 11 640 q 286 692 135 688 l 288 692 z "},"k":{"ha":844,"x_min":13,"x_max":819,"o":"m 756 106 q 819 57 783 78 l 808 -8 l 571 -8 q 504 68 543 8 l 365 292 l 365 0 l 22 0 l 19 49 q 125 96 68 76 l 125 883 l 19 903 l 13 972 q 288 1024 129 1014 l 288 1022 l 290 1024 l 365 954 l 365 358 l 518 561 l 446 574 l 439 642 q 719 692 557 686 l 785 599 l 582 350 l 756 106 z "},"l":{"ha":488,"x_min":10,"x_max":460,"o":"m 360 117 q 460 68 421 96 l 457 0 l 17 0 l 14 49 q 119 96 63 76 l 119 885 l 17 903 l 10 972 q 285 1024 126 1014 l 360 954 l 360 117 z "},"m":{"ha":1317,"x_min":15,"x_max":1299,"o":"m 1192 119 q 1299 68 1258 96 l 1294 0 l 951 0 l 951 385 q 863 525 951 525 q 776 503 824 525 l 778 114 q 861 68 821 96 l 857 0 l 538 0 l 538 385 q 449 525 538 525 q 365 504 414 525 l 365 113 q 446 68 415 90 l 443 0 l 25 0 l 22 49 q 125 94 65 74 l 125 554 l 22 574 l 15 640 q 290 692 139 688 l 365 617 l 365 578 q 568 688 475 658 q 761 588 699 683 l 769 569 q 982 688 882 656 q 1175 588 1113 683 q 1192 461 1190 560 l 1192 119 z "},"n":{"ha":903,"x_min":15,"x_max":885,"o":"m 785 117 q 885 68 846 96 l 881 0 l 544 0 l 544 385 q 456 525 544 525 q 365 500 415 525 l 365 113 q 446 68 415 90 l 443 0 l 25 0 l 22 49 q 125 94 65 74 l 125 554 l 22 574 l 15 640 q 290 692 139 688 l 365 617 l 365 572 q 575 688 478 657 q 768 588 706 683 q 785 461 783 560 l 785 117 z "},"o":{"ha":732,"x_min":15,"x_max":710,"o":"m 15 338 q 114 594 15 494 q 364 694 213 694 q 613 593 515 694 q 710 331 710 492 q 615 72 710 171 q 369 -28 519 -28 q 116 76 217 -28 q 15 338 15 179 m 415 104 q 467 315 467 143 q 354 561 467 561 q 300 546 319 561 q 258 335 258 490 q 288 163 258 229 q 376 97 317 97 q 415 104 396 97 z "},"p":{"ha":836,"x_min":8,"x_max":810,"o":"m 456 -8 q 357 1 406 -8 l 357 -153 q 489 -212 440 -186 l 486 -281 l 28 -281 l 25 -232 l 117 -196 l 117 554 l 15 574 l 8 640 q 283 692 132 688 l 283 690 l 357 625 l 357 574 l 503 682 l 550 686 q 737 594 664 686 q 810 363 810 501 q 711 96 810 200 q 456 -8 613 -8 m 424 518 q 357 501 393 518 l 357 121 q 476 108 419 104 q 533 201 511 142 q 554 322 554 260 q 519 460 554 403 q 424 518 485 518 z "},"q":{"ha":810,"x_min":26,"x_max":790,"o":"m 715 -169 l 790 -212 l 788 -281 l 336 -281 l 333 -232 q 475 -174 397 -194 l 475 88 l 336 -15 q 113 83 200 -17 q 26 331 26 183 q 136 594 26 492 q 421 696 246 696 q 576 676 494 696 q 715 626 657 657 l 715 -169 m 414 158 q 475 169 439 158 l 475 546 q 356 569 419 571 q 278 356 278 500 q 314 215 278 272 q 414 158 350 158 z "},"r":{"ha":689,"x_min":15,"x_max":694,"o":"m 365 456 l 365 126 q 517 68 458 104 l 514 0 l 25 0 l 22 49 q 125 94 65 74 l 125 554 l 22 574 l 15 640 q 290 692 139 688 l 365 588 l 365 563 l 475 686 q 528 693 496 693 q 630 665 583 693 q 694 588 676 638 l 535 386 q 386 471 442 464 l 365 456 z "},"s":{"ha":638,"x_min":24,"x_max":599,"o":"m 263 529 q 281 484 263 504 q 410 406 299 464 q 560 299 521 349 q 599 188 599 250 q 521 33 599 93 q 314 -28 443 -28 q 24 47 168 -28 l 103 229 q 353 90 224 136 q 378 142 378 113 q 358 189 378 168 q 230 265 338 210 q 84 367 122 319 q 46 476 46 415 q 131 634 46 574 q 353 694 217 694 q 568 649 479 694 l 571 600 q 547 454 571 528 l 425 454 l 382 581 l 318 588 q 263 529 263 571 z "},"t":{"ha":558,"x_min":3,"x_max":535,"o":"m 401 154 q 513 167 450 154 l 522 94 l 293 -24 q 166 20 224 -26 q 108 129 108 67 l 108 501 l 7 501 l 3 576 q 121 657 49 615 l 197 843 l 307 843 l 342 657 l 533 657 l 535 588 l 465 500 l 349 500 l 349 214 q 401 154 349 154 z "},"u":{"ha":881,"x_min":0,"x_max":875,"o":"m 875 79 l 690 -24 q 609 11 650 -21 q 543 94 568 43 q 319 -24 432 10 q 185 21 249 -24 q 114 132 122 65 l 110 211 l 110 554 l 7 574 l 0 640 q 275 692 124 688 l 350 625 l 350 258 q 438 143 350 143 q 521 161 481 143 l 521 558 l 443 578 l 436 644 q 686 692 547 689 l 761 625 l 761 172 q 796 136 761 136 l 832 138 l 867 140 l 875 79 z "},"v":{"ha":772,"x_min":-32,"x_max":776,"o":"m 776 597 l 708 558 l 542 138 l 485 4 q 343 -11 435 -11 q 257 -6 286 -11 l 57 539 l -32 589 l -31 665 l 272 665 l 382 314 l 401 208 l 421 208 q 493 665 464 433 l 772 665 l 776 597 z "},"w":{"ha":1101,"x_min":-32,"x_max":1104,"o":"m 1104 597 l 1040 560 l 843 7 q 700 -12 781 -12 q 621 -6 656 -12 l 547 204 l 463 7 q 317 -11 407 -11 q 233 -6 263 -11 l 46 543 l -32 589 l -31 665 l 261 665 l 394 189 l 414 189 l 485 385 l 393 649 l 638 660 l 761 189 l 779 189 l 817 665 l 1100 665 l 1104 597 z "},"x":{"ha":811,"x_min":-6,"x_max":807,"o":"m 681 131 q 807 68 750 107 l 804 0 l 422 0 l 419 49 l 464 72 l 354 219 l 313 108 q 383 68 347 93 l 381 0 l -3 0 l -6 49 l 74 86 l 274 326 l 119 533 l 19 589 l 19 665 l 386 665 l 390 597 l 360 578 l 446 458 l 482 567 l 432 589 l 432 665 l 774 665 l 778 597 l 696 556 l 521 353 l 681 131 z "},"y":{"ha":792,"x_min":-33,"x_max":794,"o":"m 794 597 l 726 561 l 656 317 l 606 164 q 454 -115 547 -1 q 194 -319 361 -229 l 69 -103 q 381 22 253 -47 l 244 61 l 72 531 l -33 589 l -32 665 l 281 665 l 378 328 l 389 217 l 411 217 q 506 665 478 481 l 790 665 l 794 597 z "},"z":{"ha":729,"x_min":22,"x_max":706,"o":"m 619 200 l 696 219 q 646 -25 674 92 l 186 35 l 107 -25 l 22 46 l 399 571 l 254 549 l 200 414 l 72 414 q 60 561 60 479 l 65 657 l 65 665 l 582 665 l 628 694 l 706 621 l 354 143 l 554 182 l 619 200 z "},"{":{"ha":735,"x_min":89,"x_max":619,"o":"m 601 -201 q 329 -121 440 -192 q 218 44 218 -50 l 218 219 q 189 338 217 308 q 89 372 161 367 l 97 454 q 189 488 161 460 q 218 597 217 517 l 218 747 q 326 928 218 857 q 611 1013 435 1000 l 619 861 l 457 861 l 475 603 q 396 422 475 506 l 396 410 q 475 228 475 324 l 457 -33 l 615 -50 l 601 -201 z "},"|":{"ha":449,"x_min":133,"x_max":313,"o":"m 133 1021 l 311 1021 l 313 -312 l 133 -312 l 133 1021 z "},"}":{"ha":739,"x_min":117,"x_max":647,"o":"m 121 -50 l 279 -33 l 263 207 q 340 410 254 313 l 340 422 q 263 624 254 517 l 279 861 l 117 861 l 125 1013 q 410 928 301 1000 q 518 747 518 857 l 518 597 q 547 488 519 517 q 639 454 575 460 l 647 372 q 547 338 575 367 q 518 219 519 308 l 518 44 q 407 -121 518 -50 q 135 -201 296 -192 l 121 -50 z "},"~":{"ha":840,"x_min":97,"x_max":750,"o":"m 97 318 q 206 468 168 425 q 282 511 244 511 q 567 389 331 511 l 688 488 l 750 435 q 644 277 682 322 q 567 232 606 232 q 401 296 529 232 q 282 346 307 346 q 172 263 253 346 l 97 318 z "},"¡":{"ha":485,"x_min":99,"x_max":386,"o":"m 99 -279 q 246 -306 160 -306 q 386 -276 336 -306 l 322 339 l 160 339 l 99 -279 m 238 435 q 376 576 350 483 q 258 717 350 669 q 113 599 158 688 q 238 435 128 496 z "},"¢":{"ha":660,"x_min":15,"x_max":643,"o":"m 626 119 l 436 15 l 436 -162 l 300 -162 l 300 10 q 94 119 174 29 q 15 338 15 210 q 94 558 15 465 q 300 672 172 650 l 300 832 l 436 832 l 436 672 q 643 508 601 642 l 453 408 q 314 560 392 518 q 247 372 247 493 q 298 213 247 274 q 442 151 349 151 q 593 190 508 151 l 626 119 z "},"£":{"ha":821,"x_min":22,"x_max":772,"o":"m 760 311 q 772 114 772 240 q 767 4 772 39 l 768 0 l 31 0 l 22 44 q 142 110 74 79 q 183 279 183 194 l 178 342 l 33 342 l 25 390 l 85 446 l 150 446 l 138 482 q 99 640 99 582 q 202 846 99 761 q 458 931 306 931 q 742 863 606 931 l 743 807 q 724 596 743 674 l 601 596 l 514 778 q 413 800 468 793 q 353 678 353 763 q 376 540 353 629 l 393 468 l 582 468 l 590 419 l 531 364 l 407 364 q 342 135 411 239 l 569 149 l 646 321 l 760 311 z "},"¤":{"ha":708,"x_min":67,"x_max":642,"o":"m 610 496 q 558 329 610 399 l 639 242 l 569 174 l 488 263 q 353 224 425 224 q 221 260 278 224 l 147 171 l 75 236 l 151 322 q 96 496 96 397 q 147 657 96 588 l 67 747 l 140 813 l 219 724 q 358 764 283 764 q 494 726 435 764 l 567 811 l 642 749 l 563 661 q 610 496 610 592 m 424 357 q 468 483 468 392 q 435 590 468 546 q 331 633 401 633 l 285 629 q 238 504 238 585 q 273 397 238 442 q 376 351 308 351 l 424 357 z "},"¥":{"ha":921,"x_min":-36,"x_max":911,"o":"m 557 328 l 557 261 l 738 261 l 746 213 l 686 163 l 557 163 l 557 92 l 674 74 l 672 0 l 208 0 l 200 44 q 314 107 247 78 l 314 163 l 140 163 l 132 211 l 192 261 l 314 261 l 314 328 l 140 328 l 132 376 l 192 425 l 269 425 l 53 832 l -36 846 l -35 919 l 365 919 l 374 875 l 301 832 l 422 606 l 461 485 l 469 485 l 643 831 l 544 846 l 546 919 l 903 919 l 911 875 q 790 808 867 843 l 585 425 l 738 425 l 746 376 l 686 328 l 557 328 z "},"¦":{"ha":447,"x_min":133,"x_max":311,"o":"m 133 856 l 311 856 l 311 497 l 133 497 l 133 856 m 133 253 l 311 253 l 311 -106 l 133 -106 l 133 253 z "},"§":{"ha":751,"x_min":89,"x_max":694,"o":"m 576 179 q 664 15 664 110 q 584 -144 664 -81 q 385 -207 504 -207 q 93 -124 226 -207 l 188 49 q 444 -79 297 -43 q 486 -11 486 -53 q 465 37 486 17 q 326 108 444 57 q 149 215 210 163 q 89 349 89 268 q 201 526 89 458 q 101 699 101 600 q 191 866 101 800 q 419 932 281 932 q 654 885 549 932 l 656 885 l 657 838 q 638 668 657 746 l 515 668 l 464 811 q 386 821 419 821 l 364 819 q 301 732 301 792 q 365 649 301 683 l 551 556 q 694 358 694 475 q 576 179 694 247 m 264 389 q 301 321 264 346 q 418 263 338 296 l 467 243 l 485 235 q 518 301 518 267 q 476 382 518 351 q 317 463 433 413 l 306 468 q 264 389 264 431 z "},"¨":{"ha":711,"x_min":64,"x_max":651,"o":"m 313 894 q 201 763 283 806 q 64 874 107 793 q 179 1026 78 972 q 313 894 286 983 m 651 894 q 539 763 622 806 q 401 874 444 793 q 518 1026 417 972 q 651 894 625 983 z "},"©":{"ha":1089,"x_min":46,"x_max":1042,"o":"m 544 -33 q 191 110 336 -33 q 46 461 46 253 q 190 815 46 669 q 540 960 335 960 q 895 813 749 960 q 1042 460 1042 667 q 898 110 1042 253 q 544 -33 754 -33 m 540 74 q 820 187 707 74 q 933 463 933 300 q 819 737 933 622 q 544 851 706 851 q 269 738 383 851 q 156 458 156 624 q 266 185 156 296 q 540 74 376 74 m 597 189 l 564 188 q 358 263 438 188 q 278 458 278 339 q 358 657 278 579 q 563 735 438 735 q 792 583 724 735 l 639 500 q 519 636 592 603 q 460 485 460 576 q 507 369 460 414 q 640 324 554 324 q 750 346 683 324 l 775 283 l 597 189 z "},"ª":{"ha":613,"x_min":43,"x_max":571,"o":"m 313 636 l 313 704 q 269 792 313 772 l 214 786 l 190 682 l 90 679 q 78 821 75 751 q 340 872 199 872 q 469 799 422 867 q 479 725 479 778 l 479 543 q 501 519 479 519 l 550 522 l 554 482 l 426 410 q 325 481 360 413 l 226 414 l 190 411 q 90 444 126 411 q 53 525 53 478 q 124 633 53 593 l 313 636 m 224 503 q 313 519 256 504 l 313 578 l 297 579 q 207 535 207 586 q 224 503 207 514 m 571 354 l 571 267 l 43 267 l 43 354 l 571 354 z "},"«":{"ha":860,"x_min":75,"x_max":785,"o":"m 306 661 l 421 583 l 299 351 l 429 132 l 307 46 l 75 297 l 75 407 l 306 661 m 661 661 l 776 583 l 654 351 l 785 132 l 663 46 l 431 297 l 431 407 l 661 661 z "},"¬":{"ha":822,"x_min":75,"x_max":747,"o":"m 747 0 l 599 0 l 599 249 l 75 249 l 75 386 l 747 386 l 747 0 z "},"­":{"ha":643,"x_min":46,"x_max":575,"o":"m 46 433 l 75 492 l 497 492 l 575 367 l 546 308 l 124 308 l 46 433 z "},"®":{"ha":797,"x_min":17,"x_max":779,"o":"m 401 1078 q 672 971 564 1078 q 779 701 779 864 q 671 430 779 538 q 397 322 563 322 q 124 430 231 322 q 17 699 17 538 q 126 970 17 863 q 401 1078 235 1078 m 392 401 q 610 484 525 401 q 696 699 696 567 q 612 916 696 832 q 397 1000 528 1000 q 184 915 268 1000 q 100 693 100 829 q 181 482 100 563 q 392 401 261 401 m 564 565 l 604 560 l 604 525 l 467 525 l 390 663 l 354 663 l 354 567 l 404 560 l 403 525 l 200 525 l 196 547 l 249 574 l 249 850 l 201 856 l 201 893 l 408 893 q 528 860 485 893 q 572 778 572 828 q 494 675 572 703 l 564 565 m 354 717 l 382 714 q 458 774 458 714 q 418 842 458 818 l 354 833 l 354 717 z "},"¯":{"ha":615,"x_min":82,"x_max":588,"o":"m 581 925 l 588 851 l 522 788 l 90 788 l 82 890 q 239 925 153 925 l 581 925 z "},"°":{"ha":513,"x_min":42,"x_max":429,"o":"m 42 718 q 97 857 42 801 q 233 913 153 913 q 372 857 315 913 q 429 718 429 801 q 376 579 429 632 q 239 526 324 526 q 99 581 157 526 q 42 718 42 636 m 279 638 q 304 707 304 665 q 283 774 304 744 q 225 803 261 803 q 183 793 203 803 q 161 725 161 764 q 183 660 161 688 q 243 632 204 632 q 279 638 263 632 z "},"±":{"ha":769,"x_min":75,"x_max":694,"o":"m 694 468 l 458 468 l 458 222 l 310 222 l 310 468 l 75 468 l 75 603 l 310 603 l 310 847 l 458 847 l 458 603 l 694 603 l 694 468 m 688 0 l 78 0 l 78 135 l 688 135 l 688 0 z "},"²":{"ha":447,"x_min":38,"x_max":410,"o":"m 410 717 l 388 581 l 64 581 l 38 649 l 140 740 q 249 899 249 842 q 230 951 249 929 q 183 975 211 972 l 139 838 l 57 838 q 42 965 42 899 l 43 986 q 218 1043 122 1043 q 344 1001 296 1043 q 393 900 393 960 q 214 683 393 796 l 219 674 l 410 717 z "},"³":{"ha":460,"x_min":42,"x_max":419,"o":"m 328 813 q 394 774 368 804 q 419 700 419 743 q 362 601 419 635 q 221 567 304 567 q 42 604 122 567 l 75 738 q 239 639 165 665 q 272 690 272 656 q 251 736 272 717 q 190 756 229 756 l 144 756 l 142 825 l 179 825 q 240 851 219 829 q 260 900 260 874 q 241 948 260 928 q 190 971 222 968 l 138 865 l 68 865 q 57 974 57 907 l 58 997 q 228 1043 128 1043 q 349 1005 301 1043 q 397 914 397 967 q 328 815 397 843 l 328 813 z "},"⁴":{"ha":458,"x_min":-3,"x_max":431,"o":"m 431 760 l 431 708 l 406 679 l 351 679 l 351 632 l 403 621 l 403 581 l 125 581 l 121 601 q 215 642 161 628 l 215 679 l 26 679 l -3 746 l 231 1042 l 231 1043 l 233 1043 l 351 1022 l 351 758 l 431 760 m 215 757 l 215 808 l 233 908 l 124 756 l 215 757 z "},"´":{"ha":415,"x_min":25,"x_max":389,"o":"m 25 836 l 239 1097 l 389 965 l 318 906 l 181 775 l 146 742 l 25 836 z "},"µ":{"ha":838,"x_min":67,"x_max":832,"o":"m 832 79 l 647 -24 q 565 11 607 -22 q 500 96 524 44 q 285 -19 396 19 q 206 26 247 -18 l 199 26 l 314 -262 q 240 -303 296 -285 q 128 -322 185 -322 q 68 -315 93 -322 l 67 657 q 307 685 201 688 l 307 258 q 401 143 307 143 q 478 158 436 143 l 478 657 q 718 685 613 688 l 718 172 q 753 136 718 136 l 789 138 l 824 140 l 832 79 z "},"¶":{"ha":963,"x_min":0,"x_max":926,"o":"m 806 -144 l 921 -158 l 919 -229 l 806 -229 l 806 -231 l 654 -231 l 654 815 l 551 821 l 551 -231 l 400 -231 l 400 -229 l 256 -229 l 247 -171 q 400 -122 293 -150 l 400 804 q 290 719 331 778 q 250 579 250 661 q 304 403 250 492 l 251 351 q 68 471 136 385 q 0 657 0 557 q 110 876 0 792 q 403 960 221 960 l 453 958 l 926 897 l 917 801 l 806 807 l 806 -144 z "},"·":{"ha":392,"x_min":42,"x_max":311,"o":"m 194 253 q 111 303 157 268 q 42 371 65 338 q 165 521 97 481 q 311 403 249 486 q 194 253 276 308 z "},"¸":{"ha":397,"x_min":44,"x_max":356,"o":"m 175 -79 q 302 -113 249 -79 q 356 -196 356 -147 q 276 -324 356 -272 q 74 -376 197 -375 l 47 -329 q 147 -274 111 -307 q 182 -211 182 -242 q 82 -160 182 -151 l 44 -97 l 132 8 l 225 8 l 175 -79 z "},"¹":{"ha":378,"x_min":17,"x_max":351,"o":"m 351 619 l 351 581 l 39 581 l 35 601 q 125 646 76 632 l 125 906 l 43 874 l 17 926 l 208 1033 l 208 1035 l 210 1033 l 211 1035 l 213 1032 l 272 994 l 274 994 l 274 642 l 351 619 z "},"º":{"ha":604,"x_min":24,"x_max":543,"o":"m 42 635 q 42 687 42 635 q 113 808 42 739 q 286 876 183 876 q 453 807 386 876 q 521 632 521 738 q 453 461 521 526 q 283 396 386 396 q 110 463 179 396 q 42 635 42 531 m 321 494 q 340 533 331 501 q 350 613 350 564 q 272 768 350 768 l 246 763 q 214 635 214 743 q 296 493 214 493 l 321 494 m 543 267 l 24 267 l 24 354 l 543 354 l 543 267 z "},"»":{"ha":860,"x_min":75,"x_max":785,"o":"m 197 46 l 75 132 l 207 351 l 85 583 l 200 661 l 429 407 l 429 297 l 197 46 m 553 46 l 431 132 l 563 351 l 440 583 l 556 661 l 785 407 l 785 297 l 553 46 z "},"¼":{"ha":1092,"x_min":17,"x_max":1064,"o":"m 351 507 l 351 468 l 39 468 l 35 489 q 125 533 76 519 l 125 793 l 43 761 l 17 814 l 208 921 l 208 922 l 210 921 l 211 922 l 213 919 l 272 882 l 274 882 l 274 529 l 351 507 m 901 958 l 990 869 l 176 18 l 85 104 l 901 958 m 1064 179 l 1064 128 l 1039 99 l 985 99 l 985 51 l 1036 40 l 1036 0 l 758 0 l 754 21 q 849 61 794 47 l 849 99 l 660 99 l 631 165 l 864 461 l 864 463 l 867 463 l 985 442 l 985 178 l 1064 179 m 849 176 l 849 228 l 867 328 l 757 175 l 849 176 z "},"½":{"ha":1063,"x_min":17,"x_max":1046,"o":"m 351 507 l 351 468 l 39 468 l 35 489 q 125 533 76 519 l 125 793 l 43 761 l 17 814 l 208 921 l 208 922 l 210 921 l 211 922 l 213 919 l 272 882 l 274 882 l 274 529 l 351 507 m 901 958 l 990 869 l 176 18 l 85 104 l 901 958 m 1046 136 l 1024 0 l 700 0 l 674 68 l 776 160 q 885 318 885 261 q 866 370 885 349 q 819 394 847 392 l 775 257 l 693 257 q 678 385 678 318 l 679 406 q 854 463 758 463 q 981 421 932 463 q 1029 319 1029 379 q 850 103 1029 215 l 856 93 l 1046 136 z "},"¾":{"ha":1143,"x_min":36,"x_max":1115,"o":"m 322 700 q 388 661 363 692 q 414 588 414 631 q 356 488 414 522 q 215 454 299 454 q 36 492 117 454 l 69 625 q 233 526 160 553 q 267 578 267 543 q 245 624 267 604 q 185 643 224 643 l 139 643 l 136 713 l 174 713 q 234 739 214 717 q 254 788 254 761 q 235 835 254 815 q 185 858 217 856 l 132 753 l 63 753 q 51 861 51 794 l 53 885 q 222 931 122 931 q 344 892 296 931 q 392 801 392 854 q 322 703 392 731 l 322 700 m 954 958 l 1043 869 l 229 18 l 138 104 l 954 958 m 1115 179 l 1115 128 l 1090 99 l 1036 99 l 1036 51 l 1088 40 l 1088 0 l 810 0 l 806 21 q 900 61 846 47 l 900 99 l 711 99 l 682 165 l 915 461 l 915 463 l 918 463 l 1036 442 l 1036 178 l 1115 179 m 900 176 l 900 228 l 918 328 l 808 175 l 900 176 z "},"¿":{"ha":890,"x_min":122,"x_max":763,"o":"m 458 -346 q 216 -267 310 -346 q 122 -68 122 -187 q 189 90 122 25 l 301 190 q 369 307 358 244 l 569 307 q 540 180 571 231 q 457 77 510 129 q 385 -5 404 25 q 367 -72 367 -35 q 444 -193 367 -158 q 514 -185 481 -193 l 590 18 l 731 18 q 753 -119 744 -42 q 760 -231 763 -197 l 761 -233 q 458 -346 631 -346 m 457 399 q 318 540 344 447 q 436 681 344 633 q 582 563 536 651 q 457 399 567 460 z "},"À":{"ha":1014,"x_min":-28,"x_max":1031,"o":"m 1031 74 l 1029 0 l 558 0 l 550 44 q 661 107 589 72 l 613 239 l 307 239 l 251 93 l 371 74 l 369 0 l -19 0 l -28 44 q 89 108 21 78 l 386 840 l 365 897 l 582 953 l 931 89 l 1031 74 m 568 356 l 460 647 l 350 356 l 568 356 m 635 953 q 275 1092 547 990 l 361 1264 l 700 1065 l 635 953 z "},"Á":{"ha":1014,"x_min":-28,"x_max":1031,"o":"m 1031 74 l 1029 0 l 558 0 l 550 44 q 661 107 589 72 l 613 239 l 307 239 l 251 93 l 371 74 l 369 0 l -19 0 l -28 44 q 89 108 21 78 l 386 840 l 365 897 l 582 953 l 931 89 l 1031 74 m 568 356 l 460 647 l 350 356 l 568 356 m 635 1264 l 721 1092 q 361 953 449 990 l 296 1065 l 635 1264 z "},"Â":{"ha":1014,"x_min":-28,"x_max":1031,"o":"m 1031 74 l 1029 0 l 558 0 l 550 44 q 661 107 589 72 l 613 239 l 307 239 l 251 93 l 371 74 l 369 0 l -19 0 l -28 44 q 89 108 21 78 l 386 840 l 365 897 l 582 953 l 931 89 l 1031 74 m 568 356 l 460 647 l 350 356 l 568 356 m 410 1286 l 576 1286 l 792 1057 l 710 978 l 492 1136 l 282 978 l 196 1057 l 410 1286 z "},"Ã":{"ha":1014,"x_min":-28,"x_max":1031,"o":"m 1031 74 l 1029 0 l 558 0 l 550 44 q 661 107 589 72 l 613 239 l 307 239 l 251 93 l 371 74 l 369 0 l -19 0 l -28 44 q 89 108 21 78 l 386 840 l 365 897 l 582 953 l 931 89 l 1031 74 m 568 356 l 460 647 l 350 356 l 568 356 m 178 1060 q 287 1210 249 1167 q 363 1253 325 1253 q 647 1131 411 1253 l 768 1229 l 831 1176 q 724 1019 763 1064 q 647 974 686 974 q 482 1038 610 974 q 363 1088 388 1088 q 253 1004 333 1088 l 178 1060 z "},"Ä":{"ha":1014,"x_min":-28,"x_max":1031,"o":"m 1031 74 l 1029 0 l 558 0 l 550 44 q 661 107 589 72 l 613 239 l 307 239 l 251 93 l 371 74 l 369 0 l -19 0 l -28 44 q 89 108 21 78 l 386 840 l 365 897 l 582 953 l 931 89 l 1031 74 m 568 356 l 460 647 l 350 356 l 568 356 m 447 1142 q 336 1010 418 1053 q 199 1121 242 1040 q 314 1274 213 1219 q 447 1142 421 1231 m 786 1142 q 674 1010 757 1053 q 536 1121 579 1040 q 653 1274 551 1219 q 786 1142 760 1231 z "},"Å":{"ha":1014,"x_min":-28,"x_max":1031,"o":"m 1031 74 l 1029 0 l 558 0 l 550 44 q 661 107 589 72 l 613 239 l 307 239 l 251 93 l 371 74 l 369 0 l -19 0 l -28 44 q 89 108 21 78 l 386 840 l 365 897 l 582 953 l 931 89 l 1031 74 m 568 356 l 460 647 l 350 356 l 568 356 m 321 1156 q 369 1278 321 1229 q 492 1328 418 1328 q 613 1278 564 1328 q 663 1151 663 1228 q 617 1033 663 1079 q 497 986 571 986 q 372 1033 422 986 q 321 1156 321 1081 m 411 1133 q 435 1075 411 1097 q 494 1053 460 1053 q 551 1075 529 1053 q 574 1132 574 1097 q 550 1191 574 1168 q 493 1214 526 1214 q 435 1191 458 1214 q 411 1133 411 1168 z "},"Æ":{"ha":1339,"x_min":-3,"x_max":1286,"o":"m 1283 289 q 1267 0 1286 153 l 1250 1 l 1250 0 l 500 0 l 492 47 q 610 111 535 82 l 610 239 l 354 239 l 279 92 l 396 74 l 394 0 l 6 0 l -3 47 q 132 119 19 64 l 503 831 l 401 846 l 403 919 l 1275 919 l 1276 888 q 1250 639 1276 760 l 1111 639 l 1086 779 l 853 793 l 853 514 l 1151 539 l 1151 389 l 853 401 l 853 136 l 1096 150 l 1146 300 l 1283 289 m 610 356 l 610 746 l 413 356 l 610 356 z "},"Ç":{"ha":829,"x_min":13,"x_max":818,"o":"m 457 -79 q 584 -113 531 -79 q 638 -196 638 -147 q 558 -324 638 -272 q 356 -376 479 -375 l 329 -329 q 428 -274 393 -307 q 464 -211 464 -242 q 364 -160 464 -151 l 326 -97 l 393 -17 q 113 135 214 11 q 13 447 13 258 q 67 692 13 578 q 232 876 122 806 q 499 947 342 947 q 792 857 667 947 l 793 831 q 758 590 793 718 l 608 590 l 567 776 q 386 814 479 810 q 295 671 325 760 q 265 483 265 582 q 337 233 265 331 q 543 139 408 136 l 779 214 l 818 100 l 526 -24 l 511 -25 l 489 -24 l 457 -79 z "},"È":{"ha":893,"x_min":33,"x_max":826,"o":"m 824 289 q 807 0 826 153 l 42 0 l 33 44 q 151 110 86 81 l 151 831 l 47 846 l 49 919 l 817 919 l 818 888 q 792 639 818 760 l 653 639 l 628 781 l 403 796 l 403 515 l 693 539 l 693 389 l 403 401 l 403 129 l 636 147 l 686 300 l 824 289 m 590 953 q 231 1092 503 990 l 317 1264 l 656 1065 l 590 953 z "},"É":{"ha":893,"x_min":33,"x_max":826,"o":"m 824 289 q 807 0 826 153 l 42 0 l 33 44 q 151 110 86 81 l 151 831 l 47 846 l 49 919 l 817 919 l 818 888 q 792 639 818 760 l 653 639 l 628 781 l 403 796 l 403 515 l 693 539 l 693 389 l 403 401 l 403 129 l 636 147 l 686 300 l 824 289 m 590 1264 l 676 1092 q 317 953 404 990 l 251 1065 l 590 1264 z "},"Ê":{"ha":893,"x_min":33,"x_max":826,"o":"m 824 289 q 807 0 826 153 l 42 0 l 33 44 q 151 110 86 81 l 151 831 l 47 846 l 49 919 l 817 919 l 818 888 q 792 639 818 760 l 653 639 l 628 781 l 403 796 l 403 515 l 693 539 l 693 389 l 403 401 l 403 129 l 636 147 l 686 300 l 824 289 m 365 1286 l 532 1286 l 747 1057 l 665 978 l 447 1136 l 238 978 l 151 1057 l 365 1286 z "},"Ë":{"ha":893,"x_min":33,"x_max":826,"o":"m 824 289 q 807 0 826 153 l 42 0 l 33 44 q 151 110 86 81 l 151 831 l 47 846 l 49 919 l 817 919 l 818 888 q 792 639 818 760 l 653 639 l 628 781 l 403 796 l 403 515 l 693 539 l 693 389 l 403 401 l 403 129 l 636 147 l 686 300 l 824 289 m 403 1142 q 292 1010 374 1053 q 154 1121 197 1040 q 269 1274 168 1219 q 403 1142 376 1231 m 742 1142 q 629 1010 713 1053 q 492 1121 535 1040 q 608 1274 507 1219 q 742 1142 715 1231 z "},"Ì":{"ha":563,"x_min":33,"x_max":529,"o":"m 529 74 l 528 0 l 42 0 l 33 44 q 151 110 86 81 l 151 829 l 44 846 l 46 919 l 513 919 l 521 875 q 403 810 471 839 l 403 94 l 529 74 m 422 953 q 63 1092 335 990 l 149 1264 l 488 1065 l 422 953 z "},"Í":{"ha":563,"x_min":33,"x_max":529,"o":"m 529 74 l 528 0 l 42 0 l 33 44 q 151 110 86 81 l 151 829 l 44 846 l 46 919 l 513 919 l 521 875 q 403 810 471 839 l 403 94 l 529 74 m 421 1264 l 507 1092 q 147 953 235 990 l 82 1065 l 421 1264 z "},"Î":{"ha":563,"x_min":-17,"x_max":579,"o":"m 529 74 l 528 0 l 42 0 l 33 44 q 151 110 86 81 l 151 829 l 44 846 l 46 919 l 513 919 l 521 875 q 403 810 471 839 l 403 94 l 529 74 m 197 1286 l 364 1286 l 579 1057 l 497 978 l 279 1136 l 69 978 l -17 1057 l 197 1286 z "},"Ï":{"ha":563,"x_min":-15,"x_max":572,"o":"m 529 74 l 528 0 l 42 0 l 33 44 q 151 110 86 81 l 151 829 l 44 846 l 46 919 l 513 919 l 521 875 q 403 810 471 839 l 403 94 l 529 74 m 233 1142 q 122 1010 204 1053 q -15 1121 28 1040 q 100 1274 -1 1219 q 233 1142 207 1231 m 572 1142 q 460 1010 543 1053 q 322 1121 365 1040 q 439 1274 338 1219 q 572 1142 546 1231 z "},"Ð":{"ha":1050,"x_min":18,"x_max":1001,"o":"m 517 931 q 779 864 669 931 q 945 691 889 797 q 1001 468 1001 585 q 871 134 1001 264 q 526 0 740 4 l 42 0 l 33 44 q 151 110 86 81 l 151 372 l 26 372 l 18 421 l 78 481 l 151 481 l 151 832 l 53 846 l 54 919 q 517 931 264 931 m 496 128 q 672 220 606 128 q 739 456 739 313 q 695 664 739 565 q 578 810 651 763 l 403 789 l 403 481 l 581 481 l 589 432 l 529 372 l 403 372 l 403 142 q 496 128 450 128 z "},"Ñ":{"ha":1094,"x_min":33,"x_max":1061,"o":"m 1061 875 q 950 814 1011 840 l 943 0 l 721 -18 l 306 606 l 325 438 l 325 93 l 447 74 l 446 0 l 42 0 l 33 44 q 151 110 86 81 l 151 828 l 50 846 l 51 919 l 392 919 l 390 918 l 797 293 l 778 467 l 778 824 l 640 846 l 642 919 l 1053 919 l 1061 875 m 206 1060 q 315 1210 276 1167 q 390 1253 353 1253 q 675 1131 439 1253 l 796 1229 l 858 1176 q 752 1019 790 1064 q 675 974 714 974 q 510 1038 638 974 q 390 1088 415 1088 q 281 1004 361 1088 l 206 1060 z "},"Ò":{"ha":954,"x_min":15,"x_max":939,"o":"m 474 947 q 808 808 676 947 q 939 447 939 668 q 813 102 939 232 q 483 -28 686 -28 q 147 105 278 -28 q 15 453 15 238 q 144 809 15 671 q 474 947 274 947 m 369 794 q 304 674 329 758 q 279 481 279 590 q 340 209 279 311 q 508 107 400 107 q 574 118 543 107 q 647 249 619 161 q 675 443 675 336 q 615 710 675 607 q 456 813 556 813 q 369 794 414 813 m 621 953 q 261 1092 533 990 l 347 1264 l 686 1065 l 621 953 z "},"Ó":{"ha":954,"x_min":15,"x_max":939,"o":"m 474 947 q 808 808 676 947 q 939 447 939 668 q 813 102 939 232 q 483 -28 686 -28 q 147 105 278 -28 q 15 453 15 238 q 144 809 15 671 q 474 947 274 947 m 369 794 q 304 674 329 758 q 279 481 279 590 q 340 209 279 311 q 508 107 400 107 q 574 118 543 107 q 647 249 619 161 q 675 443 675 336 q 615 710 675 607 q 456 813 556 813 q 369 794 414 813 m 621 1264 l 707 1092 q 347 953 435 990 l 282 1065 l 621 1264 z "},"Ô":{"ha":954,"x_min":15,"x_max":939,"o":"m 474 947 q 808 808 676 947 q 939 447 939 668 q 813 102 939 232 q 483 -28 686 -28 q 147 105 278 -28 q 15 453 15 238 q 144 809 15 671 q 474 947 274 947 m 369 794 q 304 674 329 758 q 279 481 279 590 q 340 209 279 311 q 508 107 400 107 q 574 118 543 107 q 647 249 619 161 q 675 443 675 336 q 615 710 675 607 q 456 813 556 813 q 369 794 414 813 m 396 1286 l 563 1286 l 778 1057 l 696 978 l 478 1136 l 268 978 l 182 1057 l 396 1286 z "},"Õ":{"ha":954,"x_min":15,"x_max":939,"o":"m 474 947 q 808 808 676 947 q 939 447 939 668 q 813 102 939 232 q 483 -28 686 -28 q 147 105 278 -28 q 15 453 15 238 q 144 809 15 671 q 474 947 274 947 m 369 794 q 304 674 329 758 q 279 481 279 590 q 340 209 279 311 q 508 107 400 107 q 574 118 543 107 q 647 249 619 161 q 675 443 675 336 q 615 710 675 607 q 456 813 556 813 q 369 794 414 813 m 164 1060 q 273 1210 235 1167 q 349 1253 311 1253 q 633 1131 397 1253 l 754 1229 l 817 1176 q 710 1019 749 1064 q 633 974 672 974 q 468 1038 596 974 q 349 1088 374 1088 q 239 1004 319 1088 l 164 1060 z "},"Ö":{"ha":954,"x_min":15,"x_max":939,"o":"m 474 947 q 808 808 676 947 q 939 447 939 668 q 813 102 939 232 q 483 -28 686 -28 q 147 105 278 -28 q 15 453 15 238 q 144 809 15 671 q 474 947 274 947 m 369 794 q 304 674 329 758 q 279 481 279 590 q 340 209 279 311 q 508 107 400 107 q 574 118 543 107 q 647 249 619 161 q 675 443 675 336 q 615 710 675 607 q 456 813 556 813 q 369 794 414 813 m 433 1142 q 322 1010 404 1053 q 185 1121 228 1040 q 300 1274 199 1219 q 433 1142 407 1231 m 772 1142 q 660 1010 743 1053 q 522 1121 565 1040 q 639 1274 538 1219 q 772 1142 746 1231 z "},"×":{"ha":774,"x_min":83,"x_max":690,"o":"m 690 542 l 486 333 l 690 128 l 588 25 l 386 233 l 186 26 l 86 125 l 288 331 l 83 540 l 188 640 l 390 432 l 589 639 l 690 542 z "},"Ø":{"ha":983,"x_min":15,"x_max":939,"o":"m 775 840 q 939 447 939 697 q 813 102 939 232 q 483 -28 686 -28 q 314 0 394 -28 l 244 -125 l 140 -68 l 207 54 q 15 453 15 186 q 144 809 15 671 q 474 947 274 947 q 674 904 579 947 l 746 1036 l 850 976 l 775 840 m 279 481 q 317 254 279 346 l 589 749 q 456 813 533 813 q 369 794 414 813 q 304 674 329 758 q 279 481 279 590 m 574 118 q 647 249 619 161 q 675 443 675 336 q 653 618 675 539 l 393 146 q 508 107 443 107 q 574 118 543 107 z "},"Ù":{"ha":1049,"x_min":10,"x_max":1039,"o":"m 1039 875 q 921 810 989 839 l 921 397 q 817 72 919 172 q 547 -28 715 -28 q 237 85 351 -28 q 117 397 122 199 l 117 829 l 10 846 l 11 919 l 478 919 l 486 875 q 368 810 436 839 l 368 363 q 424 174 368 236 q 572 111 479 111 q 688 146 640 111 q 747 394 746 210 l 747 828 l 632 846 l 633 919 l 1031 919 l 1039 875 m 668 953 q 308 1092 581 990 l 394 1264 l 733 1065 l 668 953 z "},"Ú":{"ha":1049,"x_min":10,"x_max":1039,"o":"m 1039 875 q 921 810 989 839 l 921 397 q 817 72 919 172 q 547 -28 715 -28 q 237 85 351 -28 q 117 397 122 199 l 117 829 l 10 846 l 11 919 l 478 919 l 486 875 q 368 810 436 839 l 368 363 q 424 174 368 236 q 572 111 479 111 q 688 146 640 111 q 747 394 746 210 l 747 828 l 632 846 l 633 919 l 1031 919 l 1039 875 m 668 1264 l 754 1092 q 394 953 482 990 l 329 1065 l 668 1264 z "},"Û":{"ha":1049,"x_min":10,"x_max":1039,"o":"m 1039 875 q 921 810 989 839 l 921 397 q 817 72 919 172 q 547 -28 715 -28 q 237 85 351 -28 q 117 397 122 199 l 117 829 l 10 846 l 11 919 l 478 919 l 486 875 q 368 810 436 839 l 368 363 q 424 174 368 236 q 572 111 479 111 q 688 146 640 111 q 747 394 746 210 l 747 828 l 632 846 l 633 919 l 1031 919 l 1039 875 m 443 1286 l 610 1286 l 825 1057 l 743 978 l 525 1136 l 315 978 l 229 1057 l 443 1286 z "},"Ü":{"ha":1049,"x_min":10,"x_max":1039,"o":"m 1039 875 q 921 810 989 839 l 921 397 q 817 72 919 172 q 547 -28 715 -28 q 237 85 351 -28 q 117 397 122 199 l 117 829 l 10 846 l 11 919 l 478 919 l 486 875 q 368 810 436 839 l 368 363 q 424 174 368 236 q 572 111 479 111 q 688 146 640 111 q 747 394 746 210 l 747 828 l 632 846 l 633 919 l 1031 919 l 1039 875 m 481 1142 q 369 1010 451 1053 q 232 1121 275 1040 q 347 1274 246 1219 q 481 1142 454 1231 m 819 1142 q 707 1010 790 1053 q 569 1121 613 1040 q 686 1274 585 1219 q 819 1142 793 1231 z "},"Ý":{"ha":933,"x_min":-4,"x_max":943,"o":"m 589 92 l 706 74 l 704 0 l 240 0 l 232 44 q 346 107 279 78 l 346 340 l 85 832 l -4 846 l -3 919 l 397 919 l 406 875 l 333 832 l 454 606 l 493 485 l 501 485 l 675 831 l 576 846 l 578 919 l 935 919 l 943 875 q 822 808 899 843 l 589 372 l 589 92 m 635 1264 l 721 1092 q 361 953 449 990 l 296 1065 l 635 1264 z "},"Þ":{"ha":894,"x_min":38,"x_max":867,"o":"m 410 199 l 410 94 l 536 74 l 535 0 l 46 0 l 38 47 q 158 113 65 68 l 158 811 l 49 829 l 50 903 l 514 903 l 522 857 q 410 796 503 843 l 410 728 l 526 728 q 772 651 676 728 q 867 460 867 574 q 778 278 867 351 q 549 200 689 204 l 410 199 m 410 582 l 410 324 l 467 317 q 580 356 540 317 q 619 456 619 396 q 540 600 619 543 l 410 582 z "},"ß":{"ha":899,"x_min":0,"x_max":876,"o":"m 629 519 q 682 451 638 488 l 782 374 q 876 190 876 292 q 801 33 876 90 q 610 -25 725 -25 q 408 11 513 -25 l 465 211 q 624 122 549 138 q 649 181 649 151 q 631 233 649 211 q 551 299 614 256 q 459 379 489 343 q 424 471 429 415 q 522 706 522 615 q 485 808 522 765 l 446 813 q 344 788 385 813 l 353 606 l 353 0 l 17 0 l 14 49 q 114 94 57 74 l 114 493 l 3 492 l 0 568 q 114 643 50 613 q 167 831 114 767 q 296 924 219 894 q 440 954 372 954 q 656 881 567 954 q 746 708 746 808 q 629 519 746 607 z "},"à":{"ha":782,"x_min":42,"x_max":772,"o":"m 772 79 l 589 -24 q 511 6 550 -22 q 447 78 472 33 l 300 -18 l 253 -22 q 102 31 163 -22 q 42 158 42 83 q 154 322 42 263 l 418 328 l 418 442 q 354 582 418 549 q 276 565 310 579 l 243 413 l 107 410 q 81 568 81 485 l 83 619 q 276 674 167 651 q 446 697 386 697 q 642 596 569 697 q 658 490 657 569 l 658 172 q 693 136 658 136 l 731 138 l 764 140 l 772 79 m 279 174 q 303 114 279 138 q 418 140 344 117 l 418 243 q 279 174 279 246 m 351 768 l 214 899 l 143 958 l 293 1090 l 507 829 l 386 735 l 351 768 z "},"á":{"ha":782,"x_min":42,"x_max":772,"o":"m 772 79 l 589 -24 q 511 6 550 -22 q 447 78 472 33 l 300 -18 l 253 -22 q 102 31 163 -22 q 42 158 42 83 q 154 322 42 263 l 418 328 l 418 442 q 354 582 418 549 q 276 565 310 579 l 243 413 l 107 410 q 81 568 81 485 l 83 619 q 276 674 167 651 q 446 697 386 697 q 642 596 569 697 q 658 490 657 569 l 658 172 q 693 136 658 136 l 731 138 l 764 140 l 772 79 m 279 174 q 303 114 279 138 q 418 140 344 117 l 418 243 q 279 174 279 246 m 231 829 l 444 1090 l 594 958 l 524 899 l 386 768 l 351 735 l 231 829 z "},"â":{"ha":782,"x_min":42,"x_max":772,"o":"m 772 79 l 589 -24 q 511 6 550 -22 q 447 78 472 33 l 300 -18 l 253 -22 q 102 31 163 -22 q 42 158 42 83 q 154 322 42 263 l 418 328 l 418 442 q 354 582 418 549 q 276 565 310 579 l 243 413 l 107 410 q 81 568 81 485 l 83 619 q 276 674 167 651 q 446 697 386 697 q 642 596 569 697 q 658 490 657 569 l 658 172 q 693 136 658 136 l 731 138 l 764 140 l 772 79 m 279 174 q 303 114 279 138 q 418 140 344 117 l 418 243 q 279 174 279 246 m 296 1025 l 456 1025 l 638 808 l 561 735 l 369 886 l 200 728 l 110 797 l 296 1025 z "},"ã":{"ha":782,"x_min":42,"x_max":772,"o":"m 772 79 l 589 -24 q 511 6 550 -22 q 447 78 472 33 l 300 -18 l 253 -22 q 102 31 163 -22 q 42 158 42 83 q 154 322 42 263 l 418 328 l 418 442 q 354 582 418 549 q 276 565 310 579 l 243 413 l 107 410 q 81 568 81 485 l 83 619 q 276 674 167 651 q 446 697 386 697 q 642 596 569 697 q 658 490 657 569 l 658 172 q 693 136 658 136 l 731 138 l 764 140 l 772 79 m 279 174 q 303 114 279 138 q 418 140 344 117 l 418 243 q 279 174 279 246 m 71 818 q 188 983 146 943 q 278 1024 231 1024 q 376 984 307 1024 q 507 899 446 944 l 621 1014 l 696 960 q 504 749 588 749 q 449 765 479 749 q 355 823 418 781 q 271 865 292 865 q 225 841 250 865 q 150 757 200 817 l 71 818 z "},"ä":{"ha":782,"x_min":42,"x_max":772,"o":"m 772 79 l 589 -24 q 511 6 550 -22 q 447 78 472 33 l 300 -18 l 253 -22 q 102 31 163 -22 q 42 158 42 83 q 154 322 42 263 l 418 328 l 418 442 q 354 582 418 549 q 276 565 310 579 l 243 413 l 107 410 q 81 568 81 485 l 83 619 q 276 674 167 651 q 446 697 386 697 q 642 596 569 697 q 658 490 657 569 l 658 172 q 693 136 658 136 l 731 138 l 764 140 l 772 79 m 279 174 q 303 114 279 138 q 418 140 344 117 l 418 243 q 279 174 279 246 m 324 888 q 213 756 294 799 q 75 867 118 786 q 190 1019 89 965 q 324 888 297 976 m 663 888 q 550 756 633 799 q 413 867 456 786 q 529 1019 428 965 q 663 888 636 976 z "},"å":{"ha":782,"x_min":42,"x_max":772,"o":"m 772 79 l 589 -24 q 511 6 550 -22 q 447 78 472 33 l 300 -18 l 253 -22 q 102 31 163 -22 q 42 158 42 83 q 154 322 42 263 l 418 328 l 418 442 q 354 582 418 549 q 276 565 310 579 l 243 413 l 107 410 q 81 568 81 485 l 83 619 q 276 674 167 651 q 446 697 386 697 q 642 596 569 697 q 658 490 657 569 l 658 172 q 693 136 658 136 l 731 138 l 764 140 l 772 79 m 279 174 q 303 114 279 138 q 418 140 344 117 l 418 243 q 279 174 279 246 m 197 903 q 246 1026 197 976 q 368 1075 294 1075 q 490 1025 440 1075 q 539 899 539 975 q 493 780 539 826 q 374 733 447 733 q 248 781 299 733 q 197 903 197 828 m 288 881 q 312 822 288 844 q 371 800 336 800 q 428 822 406 800 q 450 879 450 844 q 426 938 450 915 q 369 961 403 961 q 311 938 335 961 q 288 881 288 915 z "},"æ":{"ha":1101,"x_min":42,"x_max":1081,"o":"m 990 318 l 646 321 q 710 180 654 226 q 849 133 765 133 q 1028 186 931 133 l 1063 107 l 844 -17 l 781 -21 q 506 96 608 -21 l 300 -18 l 253 -22 q 102 31 163 -22 q 42 158 42 83 q 154 322 42 263 l 421 328 l 419 446 q 356 574 415 546 q 278 558 307 571 l 244 406 l 100 410 q 81 550 81 479 l 85 613 q 280 669 175 647 q 464 692 385 692 q 576 629 521 690 q 776 694 668 694 q 996 613 911 694 q 1079 399 1081 532 l 1069 397 l 990 318 m 739 579 q 651 426 669 535 l 863 440 q 820 538 854 497 q 739 579 786 578 m 303 114 q 463 156 346 117 q 431 243 440 197 l 422 243 q 279 174 279 246 q 303 114 279 138 z "},"ç":{"ha":643,"x_min":15,"x_max":643,"o":"m 425 -18 l 372 -22 l 340 -79 q 467 -113 414 -79 q 521 -196 521 -147 q 442 -324 521 -272 q 239 -376 363 -375 l 213 -329 q 312 -274 276 -307 q 347 -211 347 -242 q 247 -160 347 -151 l 210 -97 l 279 -14 q 89 106 163 13 q 15 332 15 199 q 115 592 15 489 q 367 694 215 694 q 540 648 464 694 q 643 514 617 601 l 453 407 q 314 568 393 525 q 247 368 247 496 q 298 199 247 264 q 442 133 349 133 q 593 175 507 133 l 626 99 l 425 -18 z "},"è":{"ha":694,"x_min":15,"x_max":674,"o":"m 592 318 l 242 321 q 306 182 251 231 q 444 133 361 133 q 621 186 518 133 l 656 107 l 438 -17 l 374 -21 q 117 76 219 -21 q 15 325 15 174 q 119 587 15 479 q 369 694 222 694 q 589 613 504 694 q 672 399 674 532 l 592 318 m 332 579 q 247 426 265 538 l 456 439 q 413 537 447 496 q 332 579 379 578 m 346 768 l 208 899 l 138 958 l 288 1090 l 501 829 l 381 735 l 346 768 z "},"é":{"ha":694,"x_min":15,"x_max":674,"o":"m 592 318 l 242 321 q 306 182 251 231 q 444 133 361 133 q 621 186 518 133 l 656 107 l 438 -17 l 374 -21 q 117 76 219 -21 q 15 325 15 174 q 119 587 15 479 q 369 694 222 694 q 589 613 504 694 q 672 399 674 532 l 592 318 m 332 579 q 247 426 265 538 l 456 439 q 413 537 447 496 q 332 579 379 578 m 225 829 l 439 1090 l 589 958 l 518 899 l 381 768 l 346 735 l 225 829 z "},"ê":{"ha":694,"x_min":15,"x_max":674,"o":"m 592 318 l 242 321 q 306 182 251 231 q 444 133 361 133 q 621 186 518 133 l 656 107 l 438 -17 l 374 -21 q 117 76 219 -21 q 15 325 15 174 q 119 587 15 479 q 369 694 222 694 q 589 613 504 694 q 672 399 674 532 l 592 318 m 332 579 q 247 426 265 538 l 456 439 q 413 537 447 496 q 332 579 379 578 m 290 1025 l 450 1025 l 632 808 l 556 735 l 364 886 l 194 728 l 104 797 l 290 1025 z "},"ë":{"ha":694,"x_min":15,"x_max":674,"o":"m 592 318 l 242 321 q 306 182 251 231 q 444 133 361 133 q 621 186 518 133 l 656 107 l 438 -17 l 374 -21 q 117 76 219 -21 q 15 325 15 174 q 119 587 15 479 q 369 694 222 694 q 589 613 504 694 q 672 399 674 532 l 592 318 m 332 579 q 247 426 265 538 l 456 439 q 413 537 447 496 q 332 579 379 578 m 318 888 q 207 756 289 799 q 69 867 113 786 q 185 1019 83 965 q 318 888 292 976 m 657 888 q 544 756 628 799 q 407 867 450 786 q 524 1019 422 965 q 657 888 631 976 z "},"ì":{"ha":460,"x_min":-4,"x_max":440,"o":"m 360 113 q 440 68 410 90 l 438 0 l 19 0 l 17 49 q 119 94 60 74 l 119 546 l 17 565 l 10 632 q 285 683 133 679 l 360 617 l 360 113 m 204 768 l 67 899 l -4 958 l 146 1090 l 360 829 l 239 735 l 204 768 z "},"í":{"ha":460,"x_min":10,"x_max":447,"o":"m 360 113 q 440 68 410 90 l 438 0 l 19 0 l 17 49 q 119 94 60 74 l 119 546 l 17 565 l 10 632 q 285 683 133 679 l 360 617 l 360 113 m 83 829 l 297 1090 l 447 958 l 376 899 l 239 768 l 204 735 l 83 829 z "},"î":{"ha":460,"x_min":-37,"x_max":490,"o":"m 360 113 q 440 68 410 90 l 438 0 l 19 0 l 17 49 q 119 94 60 74 l 119 546 l 17 565 l 10 632 q 285 683 133 679 l 360 617 l 360 113 m 149 1025 l 308 1025 l 490 808 l 414 735 l 222 886 l 53 728 l -37 797 l 149 1025 z "},"ï":{"ha":460,"x_min":-72,"x_max":515,"o":"m 360 113 q 440 68 410 90 l 438 0 l 19 0 l 17 49 q 119 94 60 74 l 119 546 l 17 565 l 10 632 q 285 683 133 679 l 360 617 l 360 113 m 176 888 q 65 756 147 799 q -72 867 -29 786 q 43 1019 -58 965 q 176 888 150 976 m 515 888 q 403 756 486 799 q 265 867 308 786 q 382 1019 281 965 q 515 888 489 976 z "},"ð":{"ha":751,"x_min":24,"x_max":736,"o":"m 593 844 q 736 357 736 582 q 640 72 736 181 q 390 -37 543 -37 q 130 67 236 -37 q 24 331 24 172 q 113 569 24 475 q 332 663 201 663 q 456 633 400 663 l 401 763 l 308 724 l 215 783 l 204 839 l 331 894 l 268 992 l 436 1076 l 514 976 l 631 1028 l 701 890 l 593 844 m 438 94 q 508 344 508 171 q 496 469 508 410 q 350 538 428 528 q 292 446 314 508 q 269 315 269 383 q 313 157 269 222 q 438 94 357 92 z "},"ñ":{"ha":903,"x_min":15,"x_max":885,"o":"m 785 117 q 885 68 846 96 l 881 0 l 544 0 l 544 385 q 456 525 544 525 q 365 500 415 525 l 365 113 q 446 68 415 90 l 443 0 l 25 0 l 22 49 q 125 94 65 74 l 125 554 l 22 574 l 15 640 q 290 692 139 688 l 365 617 l 365 572 q 575 688 478 657 q 768 588 706 683 q 785 461 783 560 l 785 117 m 154 818 q 272 983 229 943 q 361 1024 314 1024 q 460 984 390 1024 q 590 899 529 944 l 704 1014 l 779 960 q 588 749 671 749 q 532 765 563 749 q 438 823 501 781 q 354 865 375 865 q 308 841 333 865 q 233 757 283 817 l 154 818 z "},"ò":{"ha":732,"x_min":15,"x_max":710,"o":"m 15 338 q 114 594 15 494 q 364 694 213 694 q 613 593 515 694 q 710 331 710 492 q 615 72 710 171 q 369 -28 519 -28 q 116 76 217 -28 q 15 338 15 179 m 415 104 q 467 315 467 143 q 354 561 467 561 q 300 546 319 561 q 258 335 258 490 q 288 163 258 229 q 376 97 317 97 q 415 104 396 97 m 346 768 l 208 899 l 138 958 l 288 1090 l 501 829 l 381 735 l 346 768 z "},"ó":{"ha":732,"x_min":15,"x_max":710,"o":"m 15 338 q 114 594 15 494 q 364 694 213 694 q 613 593 515 694 q 710 331 710 492 q 615 72 710 171 q 369 -28 519 -28 q 116 76 217 -28 q 15 338 15 179 m 415 104 q 467 315 467 143 q 354 561 467 561 q 300 546 319 561 q 258 335 258 490 q 288 163 258 229 q 376 97 317 97 q 415 104 396 97 m 225 829 l 439 1090 l 589 958 l 518 899 l 381 768 l 346 735 l 225 829 z "},"ô":{"ha":732,"x_min":15,"x_max":710,"o":"m 15 338 q 114 594 15 494 q 364 694 213 694 q 613 593 515 694 q 710 331 710 492 q 615 72 710 171 q 369 -28 519 -28 q 116 76 217 -28 q 15 338 15 179 m 415 104 q 467 315 467 143 q 354 561 467 561 q 300 546 319 561 q 258 335 258 490 q 288 163 258 229 q 376 97 317 97 q 415 104 396 97 m 290 1025 l 450 1025 l 632 808 l 556 735 l 364 886 l 194 728 l 104 797 l 290 1025 z "},"õ":{"ha":732,"x_min":15,"x_max":710,"o":"m 15 338 q 114 594 15 494 q 364 694 213 694 q 613 593 515 694 q 710 331 710 492 q 615 72 710 171 q 369 -28 519 -28 q 116 76 217 -28 q 15 338 15 179 m 415 104 q 467 315 467 143 q 354 561 467 561 q 300 546 319 561 q 258 335 258 490 q 288 163 258 229 q 376 97 317 97 q 415 104 396 97 m 65 818 q 183 983 140 943 q 272 1024 225 1024 q 371 984 301 1024 q 501 899 440 944 l 615 1014 l 690 960 q 499 749 582 749 q 443 765 474 749 q 349 823 413 781 q 265 865 286 865 q 219 841 244 865 q 144 757 194 817 l 65 818 z "},"ö":{"ha":732,"x_min":15,"x_max":710,"o":"m 15 338 q 114 594 15 494 q 364 694 213 694 q 613 593 515 694 q 710 331 710 492 q 615 72 710 171 q 369 -28 519 -28 q 116 76 217 -28 q 15 338 15 179 m 415 104 q 467 315 467 143 q 354 561 467 561 q 300 546 319 561 q 258 335 258 490 q 288 163 258 229 q 376 97 317 97 q 415 104 396 97 m 318 888 q 207 756 289 799 q 69 867 113 786 q 185 1019 83 965 q 318 888 292 976 m 657 888 q 544 756 628 799 q 407 867 450 786 q 524 1019 422 965 q 657 888 631 976 z "},"÷":{"ha":828,"x_min":75,"x_max":753,"o":"m 536 608 q 431 483 507 519 q 297 590 340 507 q 410 738 310 681 q 536 608 508 696 m 753 288 l 75 288 l 75 425 l 753 425 l 753 288 m 535 99 q 429 -28 504 8 q 296 79 342 -6 q 408 226 308 169 q 535 99 507 185 z "},"ø":{"ha":744,"x_min":15,"x_max":710,"o":"m 629 575 q 710 331 710 479 q 615 72 710 171 q 369 -28 519 -28 q 238 -4 301 -28 l 157 -122 l 38 -39 l 115 76 q 15 338 15 179 q 114 594 15 494 q 364 694 213 694 q 513 663 442 694 l 571 749 l 693 669 l 629 575 m 258 335 l 260 289 l 421 526 q 354 561 394 561 q 300 546 319 561 q 258 335 258 490 m 415 104 q 467 335 467 143 l 319 118 q 376 97 343 97 q 415 104 396 97 z "},"ù":{"ha":881,"x_min":0,"x_max":875,"o":"m 875 79 l 690 -24 q 609 11 650 -21 q 543 94 568 43 q 319 -24 432 10 q 185 21 249 -24 q 114 132 122 65 l 110 211 l 110 554 l 7 574 l 0 640 q 275 692 124 688 l 350 625 l 350 258 q 438 143 350 143 q 521 161 481 143 l 521 558 l 443 578 l 436 644 q 686 692 547 689 l 761 625 l 761 172 q 796 136 761 136 l 832 138 l 867 140 l 875 79 m 392 768 l 254 899 l 183 958 l 333 1090 l 547 829 l 426 735 l 392 768 z "},"ú":{"ha":881,"x_min":0,"x_max":875,"o":"m 875 79 l 690 -24 q 609 11 650 -21 q 543 94 568 43 q 319 -24 432 10 q 185 21 249 -24 q 114 132 122 65 l 110 211 l 110 554 l 7 574 l 0 640 q 275 692 124 688 l 350 625 l 350 258 q 438 143 350 143 q 521 161 481 143 l 521 558 l 443 578 l 436 644 q 686 692 547 689 l 761 625 l 761 172 q 796 136 761 136 l 832 138 l 867 140 l 875 79 m 271 829 l 485 1090 l 635 958 l 564 899 l 426 768 l 392 735 l 271 829 z "},"û":{"ha":881,"x_min":0,"x_max":875,"o":"m 875 79 l 690 -24 q 609 11 650 -21 q 543 94 568 43 q 319 -24 432 10 q 185 21 249 -24 q 114 132 122 65 l 110 211 l 110 554 l 7 574 l 0 640 q 275 692 124 688 l 350 625 l 350 258 q 438 143 350 143 q 521 161 481 143 l 521 558 l 443 578 l 436 644 q 686 692 547 689 l 761 625 l 761 172 q 796 136 761 136 l 832 138 l 867 140 l 875 79 m 336 1025 l 496 1025 l 678 808 l 601 735 l 410 886 l 240 728 l 150 797 l 336 1025 z "},"ü":{"ha":881,"x_min":0,"x_max":875,"o":"m 875 79 l 690 -24 q 609 11 650 -21 q 543 94 568 43 q 319 -24 432 10 q 185 21 249 -24 q 114 132 122 65 l 110 211 l 110 554 l 7 574 l 0 640 q 275 692 124 688 l 350 625 l 350 258 q 438 143 350 143 q 521 161 481 143 l 521 558 l 443 578 l 436 644 q 686 692 547 689 l 761 625 l 761 172 q 796 136 761 136 l 832 138 l 867 140 l 875 79 m 364 888 q 253 756 335 799 q 115 867 158 786 q 231 1019 129 965 q 364 888 338 976 m 703 888 q 590 756 674 799 q 453 867 496 786 q 569 1019 468 965 q 703 888 676 976 z "},"ý":{"ha":792,"x_min":-33,"x_max":794,"o":"m 794 597 l 726 561 l 656 317 l 606 164 q 454 -115 547 -1 q 194 -319 361 -229 l 69 -103 q 381 22 253 -47 l 244 61 l 72 531 l -33 589 l -32 665 l 281 665 l 378 328 l 389 217 l 411 217 q 506 665 478 481 l 790 665 l 794 597 m 275 829 l 489 1090 l 639 958 l 568 899 l 431 768 l 396 735 l 275 829 z "},"þ":{"ha":813,"x_min":-32,"x_max":789,"o":"m 385 -25 l 332 -22 l 332 -153 q 463 -212 396 -178 l 460 -281 l 3 -281 l 0 -232 l 92 -196 l 92 611 l 93 611 l 93 869 l -26 901 l -32 968 q 260 1024 94 1015 l 335 954 l 335 574 l 483 682 l 531 686 q 717 594 646 686 q 789 364 789 501 q 678 84 789 193 q 385 -25 567 -25 m 404 518 q 335 501 375 518 l 335 117 q 418 103 376 103 l 457 106 q 542 322 542 179 q 504 461 542 404 q 404 518 467 518 z "},"ÿ":{"ha":792,"x_min":-33,"x_max":794,"o":"m 794 597 l 726 561 l 656 317 l 606 164 q 454 -115 547 -1 q 194 -319 361 -229 l 69 -103 q 381 22 253 -47 l 244 61 l 72 531 l -33 589 l -32 665 l 281 665 l 378 328 l 389 217 l 411 217 q 506 665 478 481 l 790 665 l 794 597 m 368 888 q 257 756 339 799 q 119 867 163 786 q 235 1019 133 965 q 368 888 342 976 m 707 888 q 594 756 678 799 q 457 867 500 786 q 574 1019 472 965 q 707 888 681 976 z "},"Ā":{"ha":1014,"x_min":-28,"x_max":1031,"o":"m 1031 74 l 1029 0 l 558 0 l 550 44 q 661 107 589 72 l 613 239 l 307 239 l 251 93 l 371 74 l 369 0 l -19 0 l -28 44 q 89 108 21 78 l 386 840 l 365 897 l 582 953 l 931 89 l 1031 74 m 568 356 l 460 647 l 350 356 l 568 356 m 789 1168 l 796 1094 l 731 1031 l 224 1031 l 215 1133 q 372 1168 283 1168 l 789 1168 z "},"ā":{"ha":782,"x_min":42,"x_max":772,"o":"m 772 79 l 589 -24 q 511 6 550 -22 q 447 78 472 33 l 300 -18 l 253 -22 q 102 31 163 -22 q 42 158 42 83 q 154 322 42 263 l 418 328 l 418 442 q 354 582 418 549 q 276 565 310 579 l 243 413 l 107 410 q 81 568 81 485 l 83 619 q 276 674 167 651 q 446 697 386 697 q 642 596 569 697 q 658 490 657 569 l 658 172 q 693 136 658 136 l 731 138 l 764 140 l 772 79 m 279 174 q 303 114 279 138 q 418 140 344 117 l 418 243 q 279 174 279 246 m 635 918 l 642 844 l 576 781 l 144 781 l 136 883 q 293 918 207 918 l 635 918 z "},"Ă":{"ha":1014,"x_min":-28,"x_max":1031,"o":"m 1031 74 l 1029 0 l 558 0 l 550 44 q 661 107 589 72 l 613 239 l 307 239 l 251 93 l 371 74 l 369 0 l -19 0 l -28 44 q 89 108 21 78 l 386 840 l 365 897 l 582 953 l 931 89 l 1031 74 m 568 356 l 460 647 l 350 356 l 568 356 m 729 1224 q 655 1058 719 1114 q 499 1003 590 1003 q 336 1060 403 1003 q 258 1221 269 1117 l 396 1229 q 486 1129 410 1129 q 575 1226 567 1129 l 729 1224 z "},"ă":{"ha":782,"x_min":42,"x_max":772,"o":"m 772 79 l 589 -24 q 511 6 550 -22 q 447 78 472 33 l 300 -18 l 253 -22 q 102 31 163 -22 q 42 158 42 83 q 154 322 42 263 l 418 328 l 418 442 q 354 582 418 549 q 276 565 310 579 l 243 413 l 107 410 q 81 568 81 485 l 83 619 q 276 674 167 651 q 446 697 386 697 q 642 596 569 697 q 658 490 657 569 l 658 172 q 693 136 658 136 l 731 138 l 764 140 l 772 79 m 279 174 q 303 114 279 138 q 418 140 344 117 l 418 243 q 279 174 279 246 m 604 986 q 536 817 603 876 q 374 757 469 757 q 208 820 275 757 q 135 986 140 883 l 271 993 q 364 886 282 886 q 426 915 401 886 q 450 992 450 943 l 604 986 z "},"Ą":{"ha":1014,"x_min":-28,"x_max":1031,"o":"m 931 0 q 797 -99 843 -53 q 751 -194 751 -144 q 772 -248 751 -228 q 829 -268 793 -268 q 938 -232 878 -268 l 971 -301 l 796 -394 l 767 -396 q 636 -350 686 -396 q 586 -239 586 -304 q 645 -110 586 -174 q 815 0 704 -47 l 558 0 l 550 44 q 661 107 589 72 l 613 239 l 307 239 l 251 93 l 371 74 l 369 0 l -19 0 l -28 44 q 89 108 21 78 l 386 840 l 365 897 l 582 953 l 931 89 l 1031 74 l 1029 0 l 931 0 m 568 356 l 460 647 l 350 356 l 568 356 z "},"ą":{"ha":761,"x_min":42,"x_max":772,"o":"m 524 -151 q 603 -225 524 -225 q 711 -190 650 -225 l 743 -261 l 568 -353 l 540 -354 q 410 -308 461 -354 q 358 -197 358 -262 q 511 6 358 -85 q 447 78 472 31 l 300 -18 l 253 -22 q 102 31 163 -22 q 42 158 42 83 q 154 322 42 263 l 418 328 l 418 442 q 354 582 418 549 q 276 565 310 579 l 243 413 l 107 410 q 81 568 81 485 l 83 619 q 276 674 167 651 q 446 697 386 697 q 642 596 569 697 q 658 490 657 569 l 658 172 q 693 136 658 136 l 731 138 l 764 140 l 772 79 l 696 36 q 567 -59 611 -15 q 524 -151 524 -103 m 279 174 q 303 114 279 138 q 418 140 344 117 l 418 243 q 279 174 279 246 z "},"Ć":{"ha":829,"x_min":13,"x_max":818,"o":"m 818 100 l 526 -24 q 229 38 344 -31 q 63 215 114 106 q 13 447 13 325 q 67 692 13 578 q 232 876 122 806 q 499 947 342 947 q 792 857 667 947 l 793 831 q 758 590 793 718 l 608 590 l 567 776 q 386 814 479 810 q 295 671 325 760 q 265 483 265 582 q 337 233 265 331 q 543 139 408 136 l 779 214 l 818 100 m 607 1264 l 693 1092 q 333 953 421 990 l 268 1065 l 607 1264 z "},"ć":{"ha":643,"x_min":15,"x_max":643,"o":"m 425 -18 l 364 -22 q 115 77 214 -22 q 15 332 15 176 q 115 592 15 489 q 367 694 215 694 q 540 648 464 694 q 643 514 617 601 l 453 407 q 314 568 393 525 q 247 368 247 496 q 298 199 247 264 q 442 133 349 133 q 593 175 507 133 l 626 99 l 425 -18 m 226 829 l 440 1090 l 590 958 l 519 899 l 382 768 l 347 735 l 226 829 z "},"Č":{"ha":829,"x_min":13,"x_max":818,"o":"m 818 100 l 526 -24 q 229 38 344 -31 q 63 215 114 106 q 13 447 13 325 q 67 692 13 578 q 232 876 122 806 q 499 947 342 947 q 792 857 667 947 l 793 831 q 758 590 793 718 l 608 590 l 567 776 q 386 814 479 810 q 295 671 325 760 q 265 483 265 582 q 337 233 265 331 q 543 139 408 136 l 779 214 l 818 100 m 467 1113 l 654 1279 l 749 1194 l 540 990 l 376 988 l 171 1178 l 282 1279 l 467 1113 z "},"č":{"ha":643,"x_min":15,"x_max":643,"o":"m 425 -18 l 364 -22 q 115 77 214 -22 q 15 332 15 176 q 115 592 15 489 q 367 694 215 694 q 540 648 464 694 q 643 514 617 601 l 453 407 q 314 568 393 525 q 247 368 247 496 q 298 199 247 264 q 442 133 349 133 q 593 175 507 133 l 626 99 l 425 -18 m 368 872 l 533 1069 l 636 982 l 451 747 l 278 744 l 75 958 l 197 1068 l 368 872 z "},"Ď":{"ha":1017,"x_min":33,"x_max":1001,"o":"m 517 931 q 779 864 669 931 q 945 691 889 797 q 1001 468 1001 585 q 871 134 1001 264 q 526 0 740 4 l 42 0 l 33 44 q 151 110 86 81 l 151 832 l 53 846 l 54 919 q 517 931 264 931 m 496 128 q 672 220 606 128 q 739 456 739 313 q 695 664 739 565 q 578 810 651 763 l 403 789 l 403 142 q 496 128 450 128 m 504 1113 l 692 1279 l 786 1194 l 578 990 l 414 988 l 208 1178 l 319 1279 l 504 1113 z "},"ď":{"ha":1032,"x_min":15,"x_max":1036,"o":"m 817 79 l 632 -24 q 549 10 590 -22 q 483 94 507 42 l 325 -24 q 103 74 190 -25 q 15 325 15 174 q 118 587 15 483 q 385 690 221 690 l 463 683 l 463 885 l 360 903 l 353 972 q 628 1024 469 1014 l 703 954 l 703 174 q 738 136 703 136 l 774 138 l 808 140 l 817 79 m 265 350 q 302 209 265 265 q 403 153 339 153 q 463 164 433 153 l 463 540 q 343 564 407 565 q 265 350 265 489 m 990 1125 q 1036 988 1036 1065 q 989 830 1036 910 q 861 685 942 750 l 786 744 q 858 918 858 856 q 813 979 858 969 l 813 1046 l 990 1125 z "},"Đ":{"ha":1050,"x_min":18,"x_max":1001,"o":"m 517 931 q 779 864 669 931 q 945 691 889 797 q 1001 468 1001 585 q 871 134 1001 264 q 526 0 740 4 l 42 0 l 33 44 q 151 110 86 81 l 151 372 l 26 372 l 18 421 l 78 481 l 151 481 l 151 832 l 53 846 l 54 919 q 517 931 264 931 m 496 128 q 672 220 606 128 q 739 456 739 313 q 695 664 739 565 q 578 810 651 763 l 403 789 l 403 481 l 581 481 l 589 432 l 529 372 l 403 372 l 403 142 q 496 128 450 128 z "},"đ":{"ha":842,"x_min":15,"x_max":832,"o":"m 774 138 l 808 140 l 817 79 l 632 -24 q 549 10 590 -22 q 483 94 507 42 l 325 -24 q 103 74 190 -25 q 15 325 15 174 q 118 587 15 483 q 385 690 221 690 l 463 683 l 463 739 l 311 739 l 303 788 l 363 838 l 463 838 l 463 885 l 360 903 l 353 972 q 628 1024 469 1014 l 703 954 l 703 838 l 824 838 l 832 789 l 772 739 l 703 739 l 703 169 q 738 136 703 136 l 774 138 m 265 350 q 302 209 265 265 q 403 153 339 153 q 463 164 433 153 l 463 540 q 343 564 407 565 q 265 350 265 489 z "},"Ē":{"ha":893,"x_min":33,"x_max":826,"o":"m 824 289 q 807 0 826 153 l 42 0 l 33 44 q 151 110 86 81 l 151 831 l 47 846 l 49 919 l 817 919 l 818 888 q 792 639 818 760 l 653 639 l 628 781 l 403 796 l 403 515 l 693 539 l 693 389 l 403 401 l 403 129 l 636 147 l 686 300 l 824 289 m 744 1168 l 751 1094 l 686 1031 l 179 1031 l 171 1133 q 328 1168 239 1168 l 744 1168 z "},"ē":{"ha":694,"x_min":15,"x_max":674,"o":"m 592 318 l 242 321 q 306 182 251 231 q 444 133 361 133 q 621 186 518 133 l 656 107 l 438 -17 l 374 -21 q 117 76 219 -21 q 15 325 15 174 q 119 587 15 479 q 369 694 222 694 q 589 613 504 694 q 672 399 674 532 l 592 318 m 332 579 q 247 426 265 538 l 456 439 q 413 537 447 496 q 332 579 379 578 m 629 918 l 636 844 l 571 781 l 139 781 l 131 883 q 288 918 201 918 l 629 918 z "},"Ė":{"ha":893,"x_min":33,"x_max":826,"o":"m 824 289 q 807 0 826 153 l 42 0 l 33 44 q 151 110 86 81 l 151 831 l 47 846 l 49 919 l 817 919 l 818 888 q 792 639 818 760 l 653 639 l 628 781 l 403 796 l 403 515 l 693 539 l 693 389 l 403 401 l 403 129 l 636 147 l 686 300 l 824 289 m 575 1142 q 465 1010 547 1053 q 326 1121 369 1038 q 443 1274 340 1218 q 575 1142 554 1229 z "},"ė":{"ha":694,"x_min":15,"x_max":674,"o":"m 592 318 l 242 321 q 306 182 251 231 q 444 133 361 133 q 621 186 518 133 l 656 107 l 438 -17 l 374 -21 q 117 76 219 -21 q 15 325 15 174 q 119 587 15 479 q 369 694 222 694 q 589 613 504 694 q 672 399 674 532 l 592 318 m 332 579 q 247 426 265 538 l 456 439 q 413 537 447 496 q 332 579 379 578 m 490 888 q 381 756 463 799 q 242 867 285 783 q 358 1019 256 964 q 490 888 469 975 z "},"Ę":{"ha":897,"x_min":33,"x_max":847,"o":"m 847 -304 l 672 -397 l 643 -399 q 513 -353 563 -399 q 463 -242 463 -307 q 524 -111 463 -175 q 699 0 585 -47 l 42 0 l 33 44 q 151 110 86 81 l 151 831 l 47 846 l 49 919 l 817 919 l 818 888 q 792 639 818 760 l 653 639 l 628 781 l 403 796 l 403 515 l 693 539 l 693 389 l 403 401 l 403 129 l 636 147 l 686 300 l 824 289 q 807 3 826 156 l 811 0 q 674 -101 721 -56 q 628 -197 628 -147 q 649 -251 628 -231 q 706 -271 669 -271 q 814 -235 754 -271 l 847 -304 z "},"ę":{"ha":715,"x_min":15,"x_max":674,"o":"m 592 318 l 242 321 q 306 182 251 231 q 444 133 361 133 q 621 186 518 133 l 656 107 q 458 -31 500 13 q 415 -122 415 -75 q 493 -196 415 -196 q 600 -162 542 -196 l 633 -232 l 458 -325 l 431 -326 q 302 -280 354 -326 q 250 -168 250 -233 q 329 -18 250 -92 q 102 92 189 -3 q 15 325 15 186 q 119 587 15 479 q 369 694 222 694 q 589 613 504 694 q 672 399 674 532 l 592 318 m 332 579 q 247 426 265 538 l 456 439 q 413 537 447 496 q 332 579 379 578 z "},"Ě":{"ha":893,"x_min":33,"x_max":826,"o":"m 824 289 q 807 0 826 153 l 42 0 l 33 44 q 151 110 86 81 l 151 831 l 47 846 l 49 919 l 817 919 l 818 888 q 792 639 818 760 l 653 639 l 628 781 l 403 796 l 403 515 l 693 539 l 693 389 l 403 401 l 403 129 l 636 147 l 686 300 l 824 289 m 449 1113 l 636 1279 l 731 1194 l 522 990 l 358 988 l 153 1178 l 264 1279 l 449 1113 z "},"ě":{"ha":694,"x_min":15,"x_max":674,"o":"m 592 318 l 242 321 q 306 182 251 231 q 444 133 361 133 q 621 186 518 133 l 656 107 l 438 -17 l 374 -21 q 117 76 219 -21 q 15 325 15 174 q 119 587 15 479 q 369 694 222 694 q 589 613 504 694 q 672 399 674 532 l 592 318 m 332 579 q 247 426 265 538 l 456 439 q 413 537 447 496 q 332 579 379 578 m 367 872 l 532 1069 l 635 982 l 450 747 l 276 744 l 74 958 l 196 1068 l 367 872 z "},"Ğ":{"ha":983,"x_min":13,"x_max":958,"o":"m 853 331 l 853 94 l 544 -28 l 501 -29 q 221 41 331 -29 q 62 219 111 111 q 13 443 13 326 q 158 804 13 661 q 535 947 303 947 q 838 863 714 947 l 839 832 q 807 610 839 728 l 658 610 l 615 778 q 392 814 511 815 q 297 672 329 763 q 264 479 264 582 q 341 222 264 319 q 547 124 418 124 l 626 131 l 626 307 q 494 376 536 347 l 503 422 l 957 422 l 958 357 l 853 331 m 728 1224 q 653 1058 718 1114 q 497 1003 589 1003 q 335 1060 401 1003 q 257 1221 268 1117 l 394 1229 q 485 1129 408 1129 q 574 1226 565 1129 l 728 1224 z "},"ğ":{"ha":806,"x_min":19,"x_max":794,"o":"m 263 165 q 504 142 375 164 q 738 88 633 121 q 757 -4 757 40 q 627 -240 757 -137 q 322 -343 497 -343 q 117 -291 206 -343 q 19 -129 28 -239 l 164 0 l 90 4 l 61 107 q 219 238 142 190 q 88 324 135 267 q 42 453 42 382 q 135 628 42 557 q 371 700 229 700 q 568 654 483 700 q 756 779 610 771 l 794 582 l 746 586 q 663 571 701 586 q 697 457 697 519 q 604 285 697 353 q 365 217 511 217 l 324 218 l 263 165 m 311 583 q 275 458 275 553 q 303 357 275 397 q 382 317 331 317 q 419 322 401 317 q 465 443 465 354 q 433 547 465 501 q 351 592 401 592 q 311 583 332 592 m 360 -165 q 493 -143 429 -165 q 588 -81 557 -121 q 251 -8 468 -33 q 206 -85 206 -50 q 360 -165 206 -165 m 604 986 q 536 817 603 876 q 374 757 469 757 q 208 820 275 757 q 135 986 140 883 l 271 993 q 364 886 282 886 q 426 915 401 886 q 450 992 450 943 l 604 986 z "},"Ģ":{"ha":983,"x_min":13,"x_max":958,"o":"m 853 331 l 853 94 l 544 -28 l 501 -29 q 221 41 331 -29 q 62 219 111 111 q 13 443 13 326 q 158 804 13 661 q 535 947 303 947 q 838 863 714 947 l 839 832 q 807 610 839 728 l 658 610 l 615 778 q 392 814 511 815 q 297 672 329 763 q 264 479 264 582 q 341 222 264 319 q 547 124 418 124 l 626 131 l 626 307 q 494 376 536 347 l 503 422 l 957 422 l 958 357 l 853 331 m 532 -93 q 608 -206 608 -129 q 563 -335 608 -267 q 464 -436 517 -404 l 392 -385 q 436 -276 436 -328 q 400 -206 436 -232 l 397 -154 l 532 -93 z "},"ģ":{"ha":806,"x_min":19,"x_max":794,"o":"m 263 165 q 504 142 375 164 q 738 88 633 121 q 757 -4 757 40 q 627 -240 757 -137 q 322 -343 497 -343 q 117 -291 206 -343 q 19 -129 28 -239 l 164 0 l 90 4 l 61 107 q 219 238 142 190 q 88 324 135 267 q 42 453 42 382 q 135 628 42 557 q 371 700 229 700 q 568 654 483 700 q 756 779 610 771 l 794 582 l 746 586 q 663 571 701 586 q 697 457 697 519 q 604 285 697 353 q 365 217 511 217 l 324 218 l 263 165 m 311 583 q 275 458 275 553 q 303 357 275 397 q 382 317 331 317 q 419 322 401 317 q 465 443 465 354 q 433 547 465 501 q 351 592 401 592 q 311 583 332 592 m 360 -165 q 493 -143 429 -165 q 588 -81 557 -121 q 251 -8 468 -33 q 206 -85 206 -50 q 360 -165 206 -165 m 460 1076 q 536 964 536 1040 q 490 834 536 903 q 392 733 444 765 l 319 785 q 364 893 364 842 q 328 964 364 938 l 325 1015 l 460 1076 z "},"Ī":{"ha":585,"x_min":42,"x_max":547,"o":"m 54 1017 l 46 1119 q 203 1154 114 1154 l 540 1154 l 547 1081 l 482 1017 l 54 1017 m 411 94 l 538 74 l 536 0 l 50 0 l 42 44 q 160 110 94 81 l 160 829 l 53 846 l 54 919 l 521 919 l 529 875 q 411 810 479 839 l 411 94 z "},"ī":{"ha":492,"x_min":18,"x_max":469,"o":"m 26 790 l 18 893 q 175 928 89 928 l 463 928 l 469 854 l 404 790 l 26 790 m 374 113 q 454 68 424 90 l 451 0 l 33 0 l 31 49 q 133 94 74 74 l 133 546 l 31 565 l 24 632 q 299 683 147 679 l 374 617 l 374 113 z "},"Į":{"ha":563,"x_min":33,"x_max":529,"o":"m 410 0 q 276 -99 322 -53 q 231 -194 231 -144 q 251 -248 231 -228 q 308 -268 272 -268 q 417 -232 357 -268 l 450 -301 l 275 -394 l 246 -396 q 115 -350 165 -396 q 65 -239 65 -304 q 124 -110 65 -174 q 294 0 183 -47 l 42 0 l 33 44 q 151 110 86 81 l 151 829 l 44 846 l 46 919 l 513 919 l 521 875 q 403 810 471 839 l 403 94 l 529 74 l 528 0 l 410 0 z "},"į":{"ha":489,"x_min":10,"x_max":460,"o":"m 253 765 q 88 892 157 808 q 225 1058 143 999 q 382 917 318 1010 q 253 765 336 825 m 403 0 q 236 -185 236 -101 q 315 -258 236 -258 q 424 -224 363 -258 l 456 -294 l 281 -386 l 253 -387 q 122 -342 174 -387 q 71 -231 71 -296 q 124 -108 71 -168 q 279 0 178 -47 l 17 0 l 14 49 q 119 96 63 76 l 119 554 l 17 574 l 10 640 q 285 692 133 688 l 360 625 l 360 117 q 460 68 421 96 l 457 0 l 403 0 z "},"İ":{"ha":563,"x_min":33,"x_max":529,"o":"m 529 74 l 528 0 l 42 0 l 33 44 q 151 110 86 81 l 151 829 l 44 846 l 46 919 l 513 919 l 521 875 q 403 810 471 839 l 403 94 l 529 74 m 406 1142 q 296 1010 378 1053 q 157 1121 200 1038 q 274 1274 171 1218 q 406 1142 385 1229 z "},"ı":{"ha":460,"x_min":10,"x_max":440,"o":"m 360 113 q 440 68 410 90 l 438 0 l 19 0 l 17 49 q 119 94 60 74 l 119 546 l 17 565 l 10 632 q 285 683 133 679 l 360 617 l 360 113 z "},"Ķ":{"ha":1046,"x_min":33,"x_max":1036,"o":"m 1036 74 l 1035 0 l 714 0 l 443 381 l 403 338 l 403 92 l 513 74 l 511 0 l 42 0 l 33 44 q 151 110 86 81 l 151 829 l 44 846 l 46 919 l 513 919 l 521 875 q 403 810 471 839 l 403 519 l 693 832 l 603 846 l 604 919 l 972 919 l 981 875 q 856 817 943 850 l 607 554 l 951 90 l 1036 74 m 593 -93 q 669 -206 669 -129 q 624 -335 669 -267 q 525 -436 578 -404 l 453 -385 q 497 -276 497 -328 q 461 -206 497 -232 l 458 -154 l 593 -93 z "},"ķ":{"ha":844,"x_min":13,"x_max":819,"o":"m 756 106 q 819 57 783 78 l 808 -8 l 571 -8 q 504 68 543 8 l 365 292 l 365 0 l 22 0 l 19 49 q 125 96 68 76 l 125 883 l 19 903 l 13 972 q 288 1024 129 1014 l 288 1022 l 290 1024 l 365 954 l 365 358 l 518 561 l 446 574 l 439 642 q 719 692 557 686 l 785 599 l 582 350 l 756 106 m 481 -93 q 557 -206 557 -129 q 511 -335 557 -267 q 413 -436 465 -404 l 340 -385 q 385 -276 385 -328 q 349 -206 385 -232 l 346 -154 l 481 -93 z "},"Ĺ":{"ha":860,"x_min":33,"x_max":856,"o":"m 856 290 q 836 0 856 108 l 42 0 l 33 44 q 151 110 86 81 l 151 829 l 44 846 l 46 919 l 513 919 l 521 875 q 403 810 471 839 l 403 129 l 650 153 l 713 354 l 856 342 l 856 290 m 439 1264 l 525 1092 q 165 953 253 990 l 100 1065 l 439 1264 z "},"ĺ":{"ha":488,"x_min":10,"x_max":461,"o":"m 360 117 q 460 68 421 96 l 457 0 l 17 0 l 14 49 q 119 96 63 76 l 119 885 l 17 903 l 10 972 q 285 1024 126 1014 l 360 954 l 360 117 m 375 1382 l 461 1210 q 101 1071 189 1108 l 36 1183 l 375 1382 z "},"Ļ":{"ha":860,"x_min":33,"x_max":856,"o":"m 856 290 q 836 0 856 108 l 42 0 l 33 44 q 151 110 86 81 l 151 829 l 44 846 l 46 919 l 513 919 l 521 875 q 403 810 471 839 l 403 129 l 650 153 l 713 354 l 856 342 l 856 290 m 482 -93 q 558 -206 558 -129 q 513 -335 558 -267 q 414 -436 467 -404 l 342 -385 q 386 -276 386 -328 q 350 -206 386 -232 l 347 -154 l 482 -93 z "},"ļ":{"ha":488,"x_min":10,"x_max":460,"o":"m 360 117 q 460 68 421 96 l 457 0 l 17 0 l 14 49 q 119 96 63 76 l 119 885 l 17 903 l 10 972 q 285 1024 126 1014 l 360 954 l 360 117 m 294 -93 q 371 -206 371 -129 q 325 -335 371 -267 q 226 -436 279 -404 l 154 -385 q 199 -276 199 -328 q 163 -206 199 -232 l 160 -154 l 294 -93 z "},"Ľ":{"ha":876,"x_min":33,"x_max":856,"o":"m 856 290 q 836 0 856 108 l 42 0 l 33 44 q 151 110 86 81 l 151 829 l 44 846 l 46 919 l 513 919 l 521 875 q 403 810 471 839 l 403 129 l 650 153 l 713 354 l 856 342 l 856 290 m 808 1053 q 854 915 854 993 q 807 758 854 838 q 679 613 760 678 l 604 672 q 676 846 676 783 q 631 907 676 897 l 631 974 l 808 1053 z "},"ľ":{"ha":696,"x_min":10,"x_max":692,"o":"m 360 117 q 460 68 421 96 l 457 0 l 17 0 l 14 49 q 119 96 63 76 l 119 885 l 17 903 l 10 972 q 285 1024 126 1014 l 360 954 l 360 117 m 646 1111 q 692 974 692 1051 q 644 816 692 896 q 517 671 597 736 l 442 731 q 514 904 514 842 q 468 965 514 956 l 468 1032 l 646 1111 z "},"Ł":{"ha":882,"x_min":38,"x_max":881,"o":"m 881 290 q 861 0 881 108 l 67 0 l 58 44 q 176 110 111 81 l 176 346 l 78 300 l 38 385 l 176 450 l 176 829 l 69 846 l 71 919 l 538 919 l 546 875 q 428 810 496 839 l 428 568 l 583 642 l 606 608 l 585 536 l 428 463 l 428 129 l 675 153 l 738 354 l 881 342 l 881 290 z "},"ł":{"ha":600,"x_min":8,"x_max":519,"o":"m 392 528 l 392 117 q 492 68 453 96 l 489 0 l 49 0 l 46 49 q 151 96 94 76 l 151 406 l 57 358 l 8 451 l 151 524 l 151 885 l 49 903 l 42 972 q 317 1024 158 1014 l 392 954 l 392 646 l 483 692 l 519 669 l 519 592 l 392 528 z "},"Ń":{"ha":1094,"x_min":33,"x_max":1061,"o":"m 1061 875 q 950 814 1011 840 l 943 0 l 721 -18 l 306 606 l 325 438 l 325 93 l 447 74 l 446 0 l 42 0 l 33 44 q 151 110 86 81 l 151 828 l 50 846 l 51 919 l 392 919 l 390 918 l 797 293 l 778 467 l 778 824 l 640 846 l 642 919 l 1053 919 l 1061 875 m 663 1264 l 749 1092 q 389 953 476 990 l 324 1065 l 663 1264 z "},"ń":{"ha":903,"x_min":15,"x_max":885,"o":"m 785 117 q 885 68 846 96 l 881 0 l 544 0 l 544 385 q 456 525 544 525 q 365 500 415 525 l 365 113 q 446 68 415 90 l 443 0 l 25 0 l 22 49 q 125 94 65 74 l 125 554 l 22 574 l 15 640 q 290 692 139 688 l 365 617 l 365 572 q 575 688 478 657 q 768 588 706 683 q 785 461 783 560 l 785 117 m 314 829 l 528 1090 l 678 958 l 607 899 l 469 768 l 435 735 l 314 829 z "},"Ņ":{"ha":1094,"x_min":33,"x_max":1061,"o":"m 1061 875 q 950 814 1011 840 l 943 0 l 721 -18 l 306 606 l 325 438 l 325 93 l 447 74 l 446 0 l 42 0 l 33 44 q 151 110 86 81 l 151 828 l 50 846 l 51 919 l 392 919 l 390 918 l 797 293 l 778 467 l 778 824 l 640 846 l 642 919 l 1053 919 l 1061 875 m 586 -93 q 663 -206 663 -129 q 617 -335 663 -267 q 518 -436 571 -404 l 446 -385 q 490 -276 490 -328 q 454 -206 490 -232 l 451 -154 l 586 -93 z "},"ņ":{"ha":903,"x_min":15,"x_max":885,"o":"m 785 117 q 885 68 846 96 l 881 0 l 544 0 l 544 385 q 456 525 544 525 q 365 500 415 525 l 365 113 q 446 68 415 90 l 443 0 l 25 0 l 22 49 q 125 94 65 74 l 125 554 l 22 574 l 15 640 q 290 692 139 688 l 365 617 l 365 572 q 575 688 478 657 q 768 588 706 683 q 785 461 783 560 l 785 117 m 504 -93 q 581 -206 581 -129 q 535 -335 581 -267 q 436 -436 489 -404 l 364 -385 q 408 -276 408 -328 q 372 -206 408 -232 l 369 -154 l 504 -93 z "},"Ň":{"ha":1094,"x_min":33,"x_max":1061,"o":"m 1061 875 q 950 814 1011 840 l 943 0 l 721 -18 l 306 606 l 325 438 l 325 93 l 447 74 l 446 0 l 42 0 l 33 44 q 151 110 86 81 l 151 828 l 50 846 l 51 919 l 392 919 l 390 918 l 797 293 l 778 467 l 778 824 l 640 846 l 642 919 l 1053 919 l 1061 875 m 521 1113 l 708 1279 l 803 1194 l 594 990 l 431 988 l 225 1178 l 336 1279 l 521 1113 z "},"ň":{"ha":903,"x_min":15,"x_max":885,"o":"m 785 117 q 885 68 846 96 l 881 0 l 544 0 l 544 385 q 456 525 544 525 q 365 500 415 525 l 365 113 q 446 68 415 90 l 443 0 l 25 0 l 22 49 q 125 94 65 74 l 125 554 l 22 574 l 15 640 q 290 692 139 688 l 365 617 l 365 572 q 575 688 478 657 q 768 588 706 683 q 785 461 783 560 l 785 117 m 456 872 l 621 1069 l 724 982 l 539 747 l 365 744 l 163 958 l 285 1068 l 456 872 z "},"Ō":{"ha":954,"x_min":15,"x_max":939,"o":"m 474 947 q 808 808 676 947 q 939 447 939 668 q 813 102 939 232 q 483 -28 686 -28 q 147 105 278 -28 q 15 453 15 238 q 144 809 15 671 q 474 947 274 947 m 369 794 q 304 674 329 758 q 279 481 279 590 q 340 209 279 311 q 508 107 400 107 q 574 118 543 107 q 647 249 619 161 q 675 443 675 336 q 615 710 675 607 q 456 813 556 813 q 369 794 414 813 m 775 1168 l 782 1094 l 717 1031 l 210 1031 l 201 1133 q 358 1168 269 1168 l 775 1168 z "},"ō":{"ha":732,"x_min":15,"x_max":710,"o":"m 15 338 q 114 594 15 494 q 364 694 213 694 q 613 593 515 694 q 710 331 710 492 q 615 72 710 171 q 369 -28 519 -28 q 116 76 217 -28 q 15 338 15 179 m 415 104 q 467 315 467 143 q 354 561 467 561 q 300 546 319 561 q 258 335 258 490 q 288 163 258 229 q 376 97 317 97 q 415 104 396 97 m 629 918 l 636 844 l 571 781 l 139 781 l 131 883 q 288 918 201 918 l 629 918 z "},"Ő":{"ha":954,"x_min":15,"x_max":939,"o":"m 474 947 q 808 808 676 947 q 939 447 939 668 q 813 102 939 232 q 483 -28 686 -28 q 147 105 278 -28 q 15 453 15 238 q 144 809 15 671 q 474 947 274 947 m 369 794 q 304 674 329 758 q 279 481 279 590 q 340 209 279 311 q 508 107 400 107 q 574 118 543 107 q 647 249 619 161 q 675 443 675 336 q 615 710 675 607 q 456 813 556 813 q 369 794 414 813 m 444 1299 l 576 1182 l 333 986 l 232 1075 l 444 1299 m 733 1281 l 865 1163 q 624 967 771 1093 l 522 1057 l 733 1281 z "},"ő":{"ha":732,"x_min":15,"x_max":743,"o":"m 15 338 q 114 594 15 494 q 364 694 213 694 q 613 593 515 694 q 710 331 710 492 q 615 72 710 171 q 369 -28 519 -28 q 116 76 217 -28 q 15 338 15 179 m 415 104 q 467 315 467 143 q 354 561 467 561 q 300 546 319 561 q 258 335 258 490 q 288 163 258 229 q 376 97 317 97 q 415 104 396 97 m 306 1068 l 451 961 q 218 735 400 917 l 110 815 l 306 1068 m 597 1068 l 743 961 q 510 735 692 917 l 401 815 l 597 1068 z "},"Œ":{"ha":1361,"x_min":43,"x_max":1324,"o":"m 1321 289 q 1306 6 1324 154 l 1306 0 l 682 0 q 522 -22 614 -22 q 290 31 400 -22 q 112 192 181 83 q 43 460 43 301 q 183 809 43 674 q 532 944 322 944 q 689 919 615 944 l 1313 919 l 1314 888 q 1288 639 1314 760 l 1149 639 l 1124 779 l 886 793 l 886 515 l 1174 539 l 1174 389 l 886 401 l 886 136 l 1135 151 l 1183 300 l 1321 289 m 294 468 q 359 210 294 310 q 533 111 424 111 q 635 132 589 111 l 635 782 q 510 806 582 806 q 404 789 449 806 q 324 659 353 747 q 294 468 294 571 z "},"œ":{"ha":1151,"x_min":15,"x_max":1129,"o":"m 1049 318 l 692 321 q 755 181 699 229 q 899 133 811 133 q 1078 186 978 133 l 1111 107 l 894 -17 l 836 -21 q 601 61 704 -21 q 369 -28 507 -28 q 116 76 217 -28 q 15 338 15 179 q 114 594 15 494 q 364 694 213 694 q 596 606 504 694 q 826 694 693 694 q 1044 614 958 694 q 1129 399 1129 533 l 1049 318 m 788 579 q 699 426 724 539 l 911 439 q 869 537 903 496 q 788 579 835 578 m 415 104 q 467 315 467 143 q 439 493 467 425 q 353 561 411 561 q 300 546 319 561 q 258 333 258 488 q 288 163 258 229 q 376 97 317 97 q 415 104 396 97 z "},"Ŕ":{"ha":999,"x_min":33,"x_max":990,"o":"m 990 74 l 989 0 l 678 0 l 494 350 l 403 349 l 403 92 l 518 74 l 517 0 l 42 0 l 33 44 q 151 110 86 81 l 151 831 l 47 846 l 49 919 l 519 931 q 794 848 686 931 q 901 640 901 765 q 853 491 901 560 q 721 385 804 422 l 906 86 l 990 74 m 403 478 q 481 468 442 468 q 644 636 644 468 q 574 810 644 750 l 403 789 l 403 478 m 613 1264 l 699 1092 q 339 953 426 990 l 274 1065 l 613 1264 z "},"ŕ":{"ha":689,"x_min":15,"x_max":694,"o":"m 365 456 l 365 126 q 517 68 458 104 l 514 0 l 25 0 l 22 49 q 125 94 65 74 l 125 554 l 22 574 l 15 640 q 290 692 139 688 l 365 588 l 365 563 l 475 686 q 528 693 496 693 q 630 665 583 693 q 694 588 676 638 l 535 386 q 386 471 442 464 l 365 456 m 228 829 l 442 1090 l 592 958 l 521 899 l 383 768 l 349 735 l 228 829 z "},"Ŗ":{"ha":999,"x_min":33,"x_max":990,"o":"m 990 74 l 989 0 l 678 0 l 494 350 l 403 349 l 403 92 l 518 74 l 517 0 l 42 0 l 33 44 q 151 110 86 81 l 151 831 l 47 846 l 49 919 l 519 931 q 794 848 686 931 q 901 640 901 765 q 853 491 901 560 q 721 385 804 422 l 906 86 l 990 74 m 403 478 q 481 468 442 468 q 644 636 644 468 q 574 810 644 750 l 403 789 l 403 478 m 532 -93 q 608 -206 608 -129 q 563 -335 608 -267 q 464 -436 517 -404 l 392 -385 q 436 -276 436 -328 q 400 -206 436 -232 l 397 -154 l 532 -93 z "},"ŗ":{"ha":689,"x_min":15,"x_max":694,"o":"m 365 456 l 365 126 q 517 68 458 104 l 514 0 l 25 0 l 22 49 q 125 94 65 74 l 125 554 l 22 574 l 15 640 q 290 692 139 688 l 365 588 l 365 563 l 475 686 q 528 693 496 693 q 630 665 583 693 q 694 588 676 638 l 535 386 q 386 471 442 464 l 365 456 m 310 -93 q 386 -206 386 -129 q 340 -335 386 -267 q 242 -436 294 -404 l 169 -385 q 214 -276 214 -328 q 178 -206 214 -232 l 175 -154 l 310 -93 z "},"Ř":{"ha":999,"x_min":33,"x_max":990,"o":"m 990 74 l 989 0 l 678 0 l 494 350 l 403 349 l 403 92 l 518 74 l 517 0 l 42 0 l 33 44 q 151 110 86 81 l 151 831 l 47 846 l 49 919 l 519 931 q 794 848 686 931 q 901 640 901 765 q 853 491 901 560 q 721 385 804 422 l 906 86 l 990 74 m 403 478 q 481 468 442 468 q 644 636 644 468 q 574 810 644 750 l 403 789 l 403 478 m 471 1113 l 658 1279 l 753 1194 l 544 990 l 381 988 l 175 1178 l 286 1279 l 471 1113 z "},"ř":{"ha":689,"x_min":15,"x_max":694,"o":"m 365 456 l 365 126 q 517 68 458 104 l 514 0 l 25 0 l 22 49 q 125 94 65 74 l 125 554 l 22 574 l 15 640 q 290 692 139 688 l 365 588 l 365 563 l 475 686 q 528 693 496 693 q 630 665 583 693 q 694 588 676 638 l 535 386 q 386 471 442 464 l 365 456 m 369 872 l 535 1069 l 638 982 l 453 747 l 279 744 l 76 958 l 199 1068 l 369 872 z "},"Ś":{"ha":833,"x_min":71,"x_max":783,"o":"m 783 258 q 683 52 783 131 q 421 -26 582 -26 q 238 -4 336 -26 q 72 58 140 18 l 74 61 l 72 103 q 97 326 72 233 l 210 326 l 300 125 q 461 94 379 97 q 536 199 536 129 q 442 318 536 268 l 272 400 l 218 431 q 71 663 71 519 q 175 868 71 789 q 444 947 279 947 q 742 894 600 947 q 713 629 736 726 l 585 629 l 531 799 q 369 829 461 826 q 307 725 307 792 q 351 648 307 679 q 494 573 394 617 q 652 490 593 529 q 747 395 711 451 q 783 258 783 339 m 574 1264 l 660 1092 q 300 953 388 990 l 235 1065 l 574 1264 z "},"ś":{"ha":638,"x_min":24,"x_max":599,"o":"m 263 529 q 281 484 263 504 q 410 406 299 464 q 560 299 521 349 q 599 188 599 250 q 521 33 599 93 q 314 -28 443 -28 q 24 47 168 -28 l 103 229 q 353 90 224 136 q 378 142 378 113 q 358 189 378 168 q 230 265 338 210 q 84 367 122 319 q 46 476 46 415 q 131 634 46 574 q 353 694 217 694 q 568 649 479 694 l 571 600 q 547 454 571 528 l 425 454 l 382 581 l 318 588 q 263 529 263 571 m 197 829 l 411 1090 l 561 958 l 490 899 l 353 768 l 318 735 l 197 829 z "},"Ş":{"ha":833,"x_min":71,"x_max":783,"o":"m 783 258 q 687 56 783 135 q 438 -26 590 -22 l 407 -79 q 534 -113 481 -79 q 588 -196 588 -147 q 508 -324 588 -272 q 306 -376 429 -375 l 279 -329 q 378 -274 343 -307 q 414 -211 414 -242 q 314 -160 414 -151 l 276 -97 l 339 -21 q 72 58 182 -6 l 74 61 l 72 103 q 97 326 72 233 l 210 326 l 300 125 q 461 94 379 97 q 536 199 536 129 q 442 318 536 268 l 272 400 l 218 431 q 71 663 71 519 q 175 868 71 789 q 444 947 279 947 q 742 894 600 947 q 713 629 736 726 l 585 629 l 531 799 q 369 829 461 826 q 307 725 307 792 q 351 648 307 679 q 494 573 394 617 q 652 490 593 529 q 747 395 711 451 q 783 258 783 339 z "},"ş":{"ha":638,"x_min":24,"x_max":599,"o":"m 599 188 q 533 42 599 101 q 353 -26 467 -17 l 322 -79 q 449 -113 396 -79 q 503 -196 503 -147 q 424 -324 503 -272 q 221 -376 344 -375 l 194 -329 q 294 -274 258 -307 q 329 -211 329 -242 q 229 -160 329 -151 l 192 -97 l 253 -24 q 24 47 139 -12 l 103 229 q 353 90 224 136 q 378 142 378 113 q 358 189 378 168 q 230 265 338 210 q 84 367 122 319 q 46 476 46 415 q 131 634 46 574 q 353 694 217 694 q 568 649 479 694 l 571 600 q 547 454 571 528 l 425 454 l 382 581 l 318 588 q 263 529 263 571 q 281 484 263 504 q 410 406 299 464 q 560 299 521 349 q 599 188 599 250 z "},"Š":{"ha":833,"x_min":71,"x_max":783,"o":"m 783 258 q 683 52 783 131 q 421 -26 582 -26 q 238 -4 336 -26 q 72 58 140 18 l 74 61 l 72 103 q 97 326 72 233 l 210 326 l 300 125 q 461 94 379 97 q 536 199 536 129 q 442 318 536 268 l 272 400 l 218 431 q 71 663 71 519 q 175 868 71 789 q 444 947 279 947 q 742 894 600 947 q 713 629 736 726 l 585 629 l 531 799 q 369 829 461 826 q 307 725 307 792 q 351 648 307 679 q 494 573 394 617 q 652 490 593 529 q 747 395 711 451 q 783 258 783 339 m 432 1113 l 619 1279 l 714 1194 l 506 990 l 342 988 l 136 1178 l 247 1279 l 432 1113 z "},"š":{"ha":638,"x_min":24,"x_max":607,"o":"m 263 529 q 281 484 263 504 q 410 406 299 464 q 560 299 521 349 q 599 188 599 250 q 521 33 599 93 q 314 -28 443 -28 q 24 47 168 -28 l 103 229 q 353 90 224 136 q 378 142 378 113 q 358 189 378 168 q 230 265 338 210 q 84 367 122 319 q 46 476 46 415 q 131 634 46 574 q 353 694 217 694 q 568 649 479 694 l 571 600 q 547 454 571 528 l 425 454 l 382 581 l 318 588 q 263 529 263 571 m 339 872 l 504 1069 l 607 982 l 422 747 l 249 744 l 46 958 l 168 1068 l 339 872 z "},"Ţ":{"ha":928,"x_min":10,"x_max":921,"o":"m 918 928 q 913 777 921 882 q 892 606 904 672 l 761 606 l 740 800 l 590 814 l 590 96 l 726 74 l 725 0 l 503 0 l 457 -79 q 584 -113 531 -79 q 638 -196 638 -147 q 558 -324 638 -272 q 356 -376 479 -375 l 329 -329 q 428 -274 393 -307 q 464 -211 464 -242 q 364 -160 464 -151 l 326 -97 l 407 0 l 211 0 l 203 44 q 339 114 243 72 l 339 814 l 188 800 l 167 606 l 38 606 q 10 886 10 726 l 11 928 l 467 922 l 917 928 l 918 928 z "},"ţ":{"ha":558,"x_min":3,"x_max":535,"o":"m 300 -19 l 267 -79 q 394 -113 340 -79 q 447 -196 447 -147 q 368 -324 447 -272 q 165 -376 289 -375 l 139 -329 q 238 -274 203 -307 q 274 -211 274 -242 q 174 -160 274 -151 l 136 -97 l 211 -7 q 108 140 108 38 l 108 501 l 7 501 l 3 576 q 121 657 49 615 l 197 843 l 307 843 l 342 657 l 533 657 l 535 588 l 465 500 l 349 500 l 349 214 q 401 154 349 154 q 513 167 450 154 l 522 94 l 300 -19 z "},"Ť":{"ha":928,"x_min":10,"x_max":921,"o":"m 918 928 q 913 777 921 882 q 892 606 904 672 l 761 606 l 740 800 l 590 814 l 590 96 l 726 74 l 725 0 l 211 0 l 203 44 q 339 114 243 72 l 339 814 l 188 800 l 167 606 l 38 606 q 10 886 10 726 l 11 928 l 467 922 l 917 928 l 918 928 m 467 1113 l 654 1279 l 749 1194 l 540 990 l 376 988 l 171 1178 l 282 1279 l 467 1113 z "},"ť":{"ha":821,"x_min":3,"x_max":819,"o":"m 401 154 q 513 167 450 154 l 522 94 l 293 -24 q 166 20 224 -26 q 108 129 108 67 l 108 501 l 7 501 l 3 576 q 121 657 49 615 l 197 843 l 307 843 l 342 657 l 533 657 l 535 588 l 465 500 l 349 500 l 349 214 q 401 154 349 154 m 774 1108 q 819 971 819 1049 q 772 813 819 893 q 644 668 725 733 l 569 728 q 642 901 642 839 q 596 963 642 953 l 596 1029 l 774 1108 z "},"Ū":{"ha":1049,"x_min":10,"x_max":1039,"o":"m 1039 875 q 921 810 989 839 l 921 397 q 817 72 919 172 q 547 -28 715 -28 q 237 85 351 -28 q 117 397 122 199 l 117 829 l 10 846 l 11 919 l 478 919 l 486 875 q 368 810 436 839 l 368 363 q 424 174 368 236 q 572 111 479 111 q 688 146 640 111 q 747 394 746 210 l 747 828 l 632 846 l 633 919 l 1031 919 l 1039 875 m 822 1168 l 829 1094 l 764 1031 l 257 1031 l 249 1133 q 406 1168 317 1168 l 822 1168 z "},"ū":{"ha":881,"x_min":0,"x_max":875,"o":"m 875 79 l 690 -24 q 609 11 650 -21 q 543 94 568 43 q 319 -24 432 10 q 185 21 249 -24 q 114 132 122 65 l 110 211 l 110 554 l 7 574 l 0 640 q 275 692 124 688 l 350 625 l 350 258 q 438 143 350 143 q 521 161 481 143 l 521 558 l 443 578 l 436 644 q 686 692 547 689 l 761 625 l 761 172 q 796 136 761 136 l 832 138 l 867 140 l 875 79 m 675 918 l 682 844 l 617 781 l 185 781 l 176 883 q 333 918 247 918 l 675 918 z "},"Ů":{"ha":1049,"x_min":10,"x_max":1039,"o":"m 1039 875 q 921 810 989 839 l 921 397 q 817 72 919 172 q 547 -28 715 -28 q 237 85 351 -28 q 117 397 122 199 l 117 829 l 10 846 l 11 919 l 478 919 l 486 875 q 368 810 436 839 l 368 363 q 424 174 368 236 q 572 111 479 111 q 688 146 640 111 q 747 394 746 210 l 747 828 l 632 846 l 633 919 l 1031 919 l 1039 875 m 354 1156 q 403 1278 354 1229 q 525 1328 451 1328 q 647 1278 597 1328 q 696 1151 696 1228 q 650 1033 696 1079 q 531 986 604 986 q 405 1033 456 986 q 354 1156 354 1081 m 444 1133 q 469 1075 444 1097 q 528 1053 493 1053 q 585 1075 563 1053 q 607 1132 607 1097 q 583 1191 607 1168 q 526 1214 560 1214 q 468 1191 492 1214 q 444 1133 444 1168 z "},"ů":{"ha":881,"x_min":0,"x_max":875,"o":"m 875 79 l 690 -24 q 609 11 650 -21 q 543 94 568 43 q 319 -24 432 10 q 185 21 249 -24 q 114 132 122 65 l 110 211 l 110 554 l 7 574 l 0 640 q 275 692 124 688 l 350 625 l 350 258 q 438 143 350 143 q 521 161 481 143 l 521 558 l 443 578 l 436 644 q 686 692 547 689 l 761 625 l 761 172 q 796 136 761 136 l 832 138 l 867 140 l 875 79 m 238 903 q 286 1026 238 976 q 408 1075 335 1075 q 530 1025 481 1075 q 579 899 579 975 q 533 780 579 826 q 414 733 488 733 q 288 781 339 733 q 238 903 238 828 m 328 881 q 352 822 328 844 q 411 800 376 800 q 468 822 446 800 q 490 879 490 844 q 467 938 490 915 q 410 961 443 961 q 351 938 375 961 q 328 881 328 915 z "},"Ű":{"ha":1049,"x_min":10,"x_max":1039,"o":"m 1039 875 q 921 810 989 839 l 921 397 q 817 72 919 172 q 547 -28 715 -28 q 237 85 351 -28 q 117 397 122 199 l 117 829 l 10 846 l 11 919 l 478 919 l 486 875 q 368 810 436 839 l 368 363 q 424 174 368 236 q 572 111 479 111 q 688 146 640 111 q 747 394 746 210 l 747 828 l 632 846 l 633 919 l 1031 919 l 1039 875 m 492 1299 l 624 1182 l 381 986 l 279 1075 l 492 1299 m 781 1281 l 913 1163 q 671 967 818 1093 l 569 1057 l 781 1281 z "},"ű":{"ha":881,"x_min":0,"x_max":875,"o":"m 875 79 l 690 -24 q 609 11 650 -21 q 543 94 568 43 q 319 -24 432 10 q 185 21 249 -24 q 114 132 122 65 l 110 211 l 110 554 l 7 574 l 0 640 q 275 692 124 688 l 350 625 l 350 258 q 438 143 350 143 q 521 161 481 143 l 521 558 l 443 578 l 436 644 q 686 692 547 689 l 761 625 l 761 172 q 796 136 761 136 l 832 138 l 867 140 l 875 79 m 351 1068 l 497 961 q 264 735 446 917 l 156 815 l 351 1068 m 643 1068 l 789 961 q 556 735 738 917 l 447 815 l 643 1068 z "},"Ų":{"ha":1049,"x_min":10,"x_max":1039,"o":"m 1039 875 q 921 810 989 839 l 921 379 q 681 -10 913 60 q 559 -104 600 -61 q 518 -194 518 -147 q 539 -248 518 -228 q 596 -268 560 -268 q 704 -232 644 -268 l 738 -301 l 563 -394 l 533 -396 q 403 -350 453 -396 q 353 -239 353 -304 q 524 -28 353 -119 q 224 101 331 -18 q 117 417 117 219 l 117 829 l 10 846 l 11 919 l 478 919 l 486 875 q 368 810 436 839 l 368 363 q 424 174 368 236 q 572 111 479 111 q 688 146 640 111 q 747 394 746 210 l 747 828 l 632 846 l 633 919 l 1031 919 l 1039 875 z "},"ų":{"ha":881,"x_min":0,"x_max":875,"o":"m 621 -151 q 700 -225 621 -225 q 808 -190 747 -225 l 840 -261 l 665 -353 l 638 -354 q 507 -308 558 -354 q 456 -197 456 -262 q 614 7 456 -83 q 543 94 571 39 q 319 -24 432 10 q 185 21 249 -24 q 114 132 122 65 l 110 211 l 110 554 l 7 574 l 0 640 q 275 692 124 688 l 350 625 l 350 258 q 438 143 350 143 q 521 161 481 143 l 521 558 l 443 578 l 436 644 q 686 692 547 689 l 761 625 l 761 172 q 796 136 761 136 l 832 138 l 867 140 l 875 79 l 754 13 q 621 -151 621 -75 z "},"Ÿ":{"ha":933,"x_min":-4,"x_max":943,"o":"m 589 92 l 706 74 l 704 0 l 240 0 l 232 44 q 346 107 279 78 l 346 340 l 85 832 l -4 846 l -3 919 l 397 919 l 406 875 l 333 832 l 454 606 l 493 485 l 501 485 l 675 831 l 576 846 l 578 919 l 935 919 l 943 875 q 822 808 899 843 l 589 372 l 589 92 m 447 1142 q 336 1010 418 1053 q 199 1121 242 1040 q 314 1274 213 1219 q 447 1142 421 1231 m 786 1142 q 674 1010 757 1053 q 536 1121 579 1040 q 653 1274 551 1219 q 786 1142 760 1231 z "},"Ź":{"ha":917,"x_min":44,"x_max":867,"o":"m 867 310 q 832 4 863 196 l 832 0 l 113 -1 l 44 110 l 567 803 l 294 783 l 239 596 l 101 596 q 86 799 86 692 l 92 919 l 806 919 l 860 813 l 349 132 l 646 143 l 719 329 l 867 310 m 613 1264 l 699 1092 q 339 953 426 990 l 274 1065 l 613 1264 z "},"ź":{"ha":729,"x_min":22,"x_max":706,"o":"m 619 200 l 696 219 q 646 -25 674 92 l 186 35 l 107 -25 l 22 46 l 399 571 l 254 549 l 200 414 l 72 414 q 60 561 60 479 l 65 657 l 65 665 l 582 665 l 628 694 l 706 621 l 354 143 l 554 182 l 619 200 m 236 829 l 450 1090 l 600 958 l 529 899 l 392 768 l 357 735 l 236 829 z "},"Ż":{"ha":917,"x_min":44,"x_max":867,"o":"m 867 310 q 832 4 863 196 l 832 0 l 113 -1 l 44 110 l 567 803 l 294 783 l 239 596 l 101 596 q 86 799 86 692 l 92 919 l 806 919 l 860 813 l 349 132 l 646 143 l 719 329 l 867 310 m 597 1142 q 488 1010 569 1053 q 349 1121 392 1038 q 465 1274 363 1218 q 597 1142 576 1229 z "},"ż":{"ha":729,"x_min":22,"x_max":706,"o":"m 619 200 l 696 219 q 646 -25 674 92 l 186 35 l 107 -25 l 22 46 l 399 571 l 254 549 l 200 414 l 72 414 q 60 561 60 479 l 65 657 l 65 665 l 582 665 l 628 694 l 706 621 l 354 143 l 554 182 l 619 200 m 501 888 q 392 756 474 799 q 253 867 296 783 q 369 1019 267 964 q 501 888 481 975 z "},"Ž":{"ha":917,"x_min":44,"x_max":867,"o":"m 867 310 q 832 4 863 196 l 832 0 l 113 -1 l 44 110 l 567 803 l 294 783 l 239 596 l 101 596 q 86 799 86 692 l 92 919 l 806 919 l 860 813 l 349 132 l 646 143 l 719 329 l 867 310 m 472 1113 l 660 1279 l 754 1194 l 546 990 l 382 988 l 176 1178 l 288 1279 l 472 1113 z "},"ž":{"ha":729,"x_min":22,"x_max":706,"o":"m 619 200 l 696 219 q 646 -25 674 92 l 186 35 l 107 -25 l 22 46 l 399 571 l 254 549 l 200 414 l 72 414 q 60 561 60 479 l 65 657 l 65 665 l 582 665 l 628 694 l 706 621 l 354 143 l 554 182 l 619 200 m 378 872 l 543 1069 l 646 982 l 461 747 l 288 744 l 85 958 l 207 1068 l 378 872 z "},"Ș":{"ha":833,"x_min":71,"x_max":783,"o":"m 783 258 q 683 52 783 131 q 421 -26 582 -26 q 238 -4 336 -26 q 72 58 140 18 l 74 61 l 72 103 q 97 326 72 233 l 210 326 l 300 125 q 461 94 379 97 q 536 199 536 129 q 442 318 536 268 l 272 400 l 218 431 q 71 663 71 519 q 175 868 71 789 q 444 947 279 947 q 742 894 600 947 q 713 629 736 726 l 585 629 l 531 799 q 369 829 461 826 q 307 725 307 792 q 351 648 307 679 q 494 573 394 617 q 652 490 593 529 q 747 395 711 451 q 783 258 783 339 m 456 -93 q 532 -206 532 -129 q 486 -335 532 -267 q 388 -436 440 -404 l 315 -385 q 360 -276 360 -328 q 324 -206 360 -232 l 321 -154 l 456 -93 z "},"ș":{"ha":638,"x_min":24,"x_max":599,"o":"m 263 529 q 281 484 263 504 q 410 406 299 464 q 560 299 521 349 q 599 188 599 250 q 521 33 599 93 q 314 -28 443 -28 q 24 47 168 -28 l 103 229 q 353 90 224 136 q 378 142 378 113 q 358 189 378 168 q 230 265 338 210 q 84 367 122 319 q 46 476 46 415 q 131 634 46 574 q 353 694 217 694 q 568 649 479 694 l 571 600 q 547 454 571 528 l 425 454 l 382 581 l 318 588 q 263 529 263 571 m 371 -93 q 447 -206 447 -129 q 401 -335 447 -267 q 303 -436 356 -404 l 231 -385 q 275 -276 275 -328 q 239 -206 275 -232 l 236 -154 l 371 -93 z "},"Ț":{"ha":928,"x_min":10,"x_max":921,"o":"m 918 928 q 913 777 921 882 q 892 606 904 672 l 761 606 l 740 800 l 590 814 l 590 96 l 726 74 l 725 0 l 211 0 l 203 44 q 339 114 243 72 l 339 814 l 188 800 l 167 606 l 38 606 q 10 886 10 726 l 11 928 l 467 922 l 917 928 l 918 928 m 506 -93 q 582 -206 582 -129 q 536 -335 582 -267 q 438 -436 490 -404 l 365 -385 q 410 -276 410 -328 q 374 -206 410 -232 l 371 -154 l 506 -93 z "},"ț":{"ha":558,"x_min":3,"x_max":535,"o":"m 401 154 q 513 167 450 154 l 522 94 l 293 -24 q 166 20 224 -26 q 108 129 108 67 l 108 501 l 7 501 l 3 576 q 121 657 49 615 l 197 843 l 307 843 l 342 657 l 533 657 l 535 588 l 465 500 l 349 500 l 349 214 q 401 154 349 154 m 315 -93 q 392 -206 392 -129 q 346 -335 392 -267 q 247 -436 300 -404 l 175 -385 q 219 -276 219 -328 q 183 -206 219 -232 l 181 -154 l 315 -93 z "},"ˆ":{"ha":601,"x_min":38,"x_max":565,"o":"m 224 1032 l 383 1032 l 565 815 l 489 742 l 297 893 l 128 735 l 38 804 l 224 1032 z "},"ˇ":{"ha":631,"x_min":40,"x_max":601,"o":"m 333 879 l 499 1076 l 601 989 l 417 754 l 243 751 l 40 965 l 163 1075 l 333 879 z "},"ˉ":{"ha":0,"x_min":-231,"x_max":275,"o":"m 268 925 l 275 851 l 210 788 l -222 788 l -231 890 q -74 925 -160 925 l 268 925 z "},"˘":{"ha":536,"x_min":39,"x_max":508,"o":"m 508 993 q 440 824 507 883 q 278 764 374 764 q 112 827 179 764 q 39 993 44 890 l 175 1000 q 268 893 186 893 q 330 922 306 893 q 354 999 354 950 l 508 993 z "},"˙":{"ha":333,"x_min":40,"x_max":289,"o":"m 289 894 q 179 763 261 806 q 40 874 83 790 q 157 1026 54 971 q 289 894 268 982 z "},"˚":{"ha":415,"x_min":36,"x_max":378,"o":"m 36 1156 q 85 1278 36 1229 q 207 1328 133 1328 q 328 1278 279 1328 q 378 1151 378 1228 q 332 1033 378 1079 q 213 986 286 986 q 87 1033 138 986 q 36 1156 36 1081 m 126 1133 q 151 1075 126 1097 q 210 1053 175 1053 q 267 1075 244 1053 q 289 1132 289 1097 q 265 1191 289 1168 q 208 1214 242 1214 q 150 1191 174 1214 q 126 1133 126 1168 z "},"˛":{"ha":425,"x_min":36,"x_max":421,"o":"m 385 40 q 248 -59 294 -14 q 201 -154 201 -104 q 281 -228 201 -228 q 389 -193 328 -228 l 421 -264 l 246 -356 l 218 -357 q 88 -311 139 -357 q 36 -200 36 -265 q 118 -49 36 -121 q 351 71 200 24 l 385 40 z "},"˜":{"ha":713,"x_min":43,"x_max":668,"o":"m 43 825 q 160 990 118 950 q 250 1031 203 1031 q 349 991 279 1031 q 479 906 418 951 l 593 1021 l 668 967 q 476 756 560 756 q 421 772 451 756 q 327 830 390 788 q 243 872 264 872 q 197 848 222 872 q 122 764 172 824 l 43 825 z "},"˝":{"ha":726,"x_min":42,"x_max":675,"o":"m 238 1075 l 383 968 q 150 742 332 924 l 42 822 l 238 1075 m 529 1075 l 675 968 q 442 742 624 924 l 333 822 l 529 1075 z "},"π":{"ha":1072,"x_min":42,"x_max":1039,"o":"m 985 492 l 863 499 l 907 0 l 729 -3 l 657 46 l 653 511 l 532 517 l 524 285 q 459 44 515 114 q 290 -25 403 -25 q 58 24 181 -25 l 129 199 q 265 88 196 139 q 285 201 279 111 l 297 531 l 224 535 l 92 444 l 42 519 q 126 601 69 557 q 221 657 182 646 l 1033 657 l 1039 532 l 985 492 z "},"–":{"ha":801,"x_min":50,"x_max":732,"o":"m 726 444 l 732 374 l 667 303 l 58 303 l 50 407 q 213 444 122 444 l 726 444 z "},"—":{"ha":1429,"x_min":50,"x_max":1360,"o":"m 1353 444 l 1360 374 l 1294 303 l 58 303 l 50 407 q 213 444 122 444 l 1353 444 z "},"‘":{"ha":357,"x_min":33,"x_max":301,"o":"m 301 983 q 207 826 222 915 l 286 754 q 241 669 278 711 q 160 615 204 628 q 33 779 33 664 q 93 930 33 857 q 249 1049 153 1003 l 301 983 z "},"’":{"ha":357,"x_min":56,"x_max":324,"o":"m 56 681 q 150 839 136 747 l 71 911 q 116 994 79 953 q 199 1049 153 1036 q 295 977 267 1024 q 324 883 324 931 q 264 734 324 807 q 108 615 204 661 l 56 681 z "},"‚":{"ha":357,"x_min":56,"x_max":324,"o":"m 56 -153 q 150 6 136 -86 l 71 78 q 116 161 79 119 q 199 215 153 203 q 295 144 267 190 q 324 50 324 97 q 264 -99 324 -26 q 108 -218 204 -172 l 56 -153 z "},"“":{"ha":661,"x_min":33,"x_max":606,"o":"m 301 983 q 207 826 222 915 l 286 754 q 241 669 278 711 q 160 615 204 628 q 33 779 33 664 q 93 930 33 857 q 249 1049 153 1003 l 301 983 m 606 983 q 511 826 526 915 l 590 754 q 545 669 582 711 q 464 615 508 628 q 338 779 338 664 q 397 930 338 857 q 553 1049 457 1003 l 606 983 z "},"”":{"ha":663,"x_min":56,"x_max":628,"o":"m 56 681 q 150 839 136 747 l 71 911 q 116 994 79 953 q 199 1049 153 1036 q 295 977 267 1024 q 324 883 324 931 q 264 734 324 807 q 108 615 204 661 l 56 681 m 360 681 q 454 839 440 747 l 375 911 q 420 994 383 953 q 503 1049 457 1036 q 599 977 571 1024 q 628 883 628 931 q 568 734 628 807 q 413 615 508 661 l 360 681 z "},"„":{"ha":663,"x_min":56,"x_max":628,"o":"m 56 -153 q 150 6 136 -86 l 71 78 q 116 161 79 119 q 199 215 153 203 q 295 144 267 190 q 324 50 324 97 q 264 -99 324 -26 q 108 -218 204 -172 l 56 -153 m 360 -153 q 454 6 440 -86 l 375 78 q 420 161 383 119 q 503 215 457 203 q 599 144 571 190 q 628 50 628 97 q 568 -99 628 -26 q 413 -218 508 -172 l 360 -153 z "},"†":{"ha":788,"x_min":53,"x_max":735,"o":"m 675 524 l 503 524 l 467 -250 l 299 -250 l 271 524 l 61 524 l 53 572 l 113 651 l 265 651 l 257 896 l 313 957 l 522 951 l 508 651 l 726 651 l 735 603 l 675 524 z "},"‡":{"ha":793,"x_min":53,"x_max":740,"o":"m 726 314 l 735 265 l 675 188 l 493 188 l 472 -250 l 304 -250 l 289 188 l 61 188 l 53 236 l 113 314 l 283 314 l 276 524 l 67 524 l 58 572 l 118 651 l 271 651 l 263 896 l 318 957 l 528 951 l 514 651 l 732 651 l 740 603 l 681 524 l 508 524 l 499 314 l 726 314 z "},"•":{"ha":579,"x_min":81,"x_max":499,"o":"m 499 353 q 311 132 453 203 q 81 318 150 185 q 276 576 107 483 q 499 353 449 504 z "},"…":{"ha":1304,"x_min":135,"x_max":1249,"o":"m 399 114 q 281 -28 372 21 q 135 92 179 6 q 260 254 150 197 q 399 114 374 203 m 824 114 q 706 -28 797 21 q 560 92 604 6 q 685 254 575 197 q 824 114 799 203 m 1249 114 q 1131 -28 1222 21 q 985 92 1029 6 q 1110 254 1000 197 q 1249 114 1224 203 z "},"‰":{"ha":1660,"x_min":58,"x_max":1600,"o":"m 58 604 q 123 770 58 697 q 278 843 188 843 q 435 772 369 843 q 501 604 501 700 q 440 435 501 503 q 285 368 378 368 q 126 437 193 368 q 58 604 58 506 m 793 821 l 890 747 l 322 -53 l 226 24 l 793 821 m 324 493 q 357 588 357 528 q 330 678 357 640 q 263 715 303 715 q 229 708 250 715 q 200 622 200 671 q 226 531 200 572 q 297 490 251 490 l 324 493 m 651 204 q 716 370 651 297 q 871 443 781 443 q 1028 372 963 443 q 1094 204 1094 300 q 1033 35 1094 103 q 878 -32 971 -32 q 719 37 786 -32 q 651 204 651 106 m 1157 204 q 1222 370 1157 297 q 1376 443 1286 443 q 1534 372 1468 443 q 1600 204 1600 300 q 1538 35 1600 103 q 1383 -32 1476 -32 q 1224 37 1292 -32 q 1157 204 1157 106 m 917 93 q 950 188 950 128 q 924 277 950 238 q 856 317 897 317 q 822 308 842 317 q 793 219 793 274 q 820 129 793 168 q 893 90 847 90 l 917 93 m 1422 93 q 1456 188 1456 128 q 1429 277 1456 238 q 1361 317 1403 317 q 1328 308 1347 317 q 1299 219 1299 274 q 1326 129 1299 168 q 1399 90 1353 90 l 1422 93 z "},"‹":{"ha":504,"x_min":75,"x_max":429,"o":"m 306 661 l 421 583 l 293 351 l 429 132 l 307 46 l 75 297 l 75 407 l 306 661 z "},"›":{"ha":504,"x_min":75,"x_max":429,"o":"m 429 297 l 197 46 l 75 132 l 213 351 l 85 583 l 200 661 l 429 407 l 429 297 z "},"⁄":{"ha":256,"x_min":-293,"x_max":613,"o":"m 524 958 l 613 869 l -201 18 l -293 104 l 524 958 z "},"€":{"ha":903,"x_min":-36,"x_max":882,"o":"m 840 183 l 878 74 l 621 -31 q 299 53 417 -35 q 140 279 181 140 l -28 279 l -36 314 l 19 378 l 121 378 l 118 432 l 119 467 l 6 467 l -3 501 l 51 565 l 133 565 q 299 833 175 736 q 596 931 422 931 q 881 844 768 931 l 882 844 q 833 624 865 710 l 721 624 l 700 749 q 531 790 617 790 l 501 789 q 372 565 404 711 l 788 565 l 796 531 l 742 467 l 361 467 l 361 449 l 365 378 l 732 378 l 740 343 l 686 279 l 393 279 q 638 129 456 142 l 840 183 z "},"₽":{"ha":936,"x_min":38,"x_max":908,"o":"m 408 324 l 408 269 l 565 269 l 572 217 l 514 168 l 408 168 l 408 100 l 578 74 l 576 0 l 56 0 l 47 44 q 157 106 101 81 l 157 168 l 46 168 l 38 217 l 97 269 l 157 269 l 157 332 l 46 332 l 38 381 l 97 440 l 157 440 l 157 831 l 54 846 l 56 919 l 535 931 q 804 845 700 932 q 908 621 908 758 q 810 411 908 496 q 557 324 711 326 l 408 324 m 408 794 l 408 444 l 501 444 q 615 494 576 444 q 654 617 654 543 q 635 731 654 674 q 581 811 615 789 l 408 794 z "},"™":{"ha":1231,"x_min":4,"x_max":1197,"o":"m 257 1021 l 506 1024 q 502 932 508 999 q 488 844 496 865 l 404 844 l 386 953 l 333 956 l 333 669 l 399 657 l 397 622 l 117 622 l 113 642 q 179 681 143 667 l 179 956 l 124 953 l 106 844 l 21 844 q 4 1003 4 899 l 6 1024 l 257 1021 m 1197 658 l 1197 624 l 951 624 l 947 643 l 1003 679 l 994 818 l 1000 893 l 896 633 l 793 619 l 681 897 l 688 822 l 682 669 l 743 658 l 743 624 l 531 624 l 526 643 l 585 681 l 597 976 l 547 986 l 549 1021 l 775 1021 l 881 763 l 983 1021 l 1175 1021 l 1179 1001 l 1129 968 l 1142 668 l 1197 658 z "},"Ω":{"ha":1019,"x_min":43,"x_max":976,"o":"m 976 507 q 915 279 976 386 q 746 94 853 172 l 944 74 l 943 0 l 568 0 l 568 113 q 702 313 658 203 q 746 526 746 422 q 687 731 746 653 q 521 810 628 810 q 358 731 417 810 q 299 526 299 653 q 346 310 299 419 q 486 118 393 200 l 486 0 l 92 0 l 83 44 q 289 97 151 76 q 43 494 43 253 q 183 803 43 676 q 517 931 322 931 q 842 808 708 931 q 976 507 976 686 z "},"∂":{"ha":833,"x_min":76,"x_max":772,"o":"m 279 1057 q 641 814 510 986 q 772 403 772 642 q 673 78 772 201 q 411 -46 574 -46 q 170 49 264 -46 q 76 294 76 143 q 170 551 76 443 q 392 658 264 658 l 531 597 q 421 817 499 722 q 231 950 343 911 l 279 1057 m 414 83 q 515 224 479 128 q 550 436 550 321 l 546 510 q 368 438 436 510 q 300 257 300 365 q 328 140 300 189 q 414 83 357 92 z "},"∆":{"ha":1007,"x_min":56,"x_max":960,"o":"m 960 46 l 903 0 l 64 0 l 56 49 l 378 879 l 376 881 l 593 936 l 951 99 l 954 99 l 960 46 m 690 99 l 451 693 l 235 99 l 690 99 z "},"∏":{"ha":1149,"x_min":33,"x_max":1115,"o":"m 946 -44 l 1072 -65 l 1071 -139 l 694 -139 l 694 886 l 446 886 l 446 -46 l 571 -65 l 569 -139 l 85 -139 l 76 -94 q 194 -29 129 -58 l 194 886 l 50 886 l 33 981 q 179 1021 108 1021 l 1110 1021 l 1115 947 l 1054 886 l 946 886 l 946 -44 z "},"∑":{"ha":950,"x_min":42,"x_max":876,"o":"m 875 -139 l 58 -139 l 58 -47 l 60 -47 l 58 -46 l 313 356 l 42 921 l 42 1021 l 839 1021 l 838 1014 q 832 857 840 960 q 811 704 824 754 l 664 704 l 615 863 l 371 872 l 306 882 l 518 426 l 239 -15 l 346 3 l 649 14 l 700 178 l 847 179 q 868 25 860 128 q 874 -132 876 -78 l 875 -139 z "},"−":{"ha":828,"x_min":75,"x_max":753,"o":"m 753 288 l 75 288 l 75 425 l 753 425 l 753 288 z "},"∕":{"ha":256,"x_min":-293,"x_max":613,"o":"m 524 958 l 613 869 l -201 18 l -293 104 l 524 958 z "},"∙":{"ha":392,"x_min":42,"x_max":311,"o":"m 194 235 q 111 285 157 250 q 42 353 65 319 q 165 503 97 463 q 311 385 249 468 q 194 235 276 290 z "},"√":{"ha":1076,"x_min":50,"x_max":976,"o":"m 976 983 l 651 -108 q 436 -132 568 -139 l 267 438 l 138 353 l 50 474 l 256 657 l 404 657 l 540 147 l 806 1043 l 976 983 z "},"∞":{"ha":1064,"x_min":42,"x_max":1033,"o":"m 806 733 q 967 657 900 733 q 1033 467 1033 581 q 958 272 1033 349 q 774 194 883 194 q 640 235 699 194 q 521 351 582 276 q 286 197 417 197 q 113 269 185 197 q 42 453 42 342 q 120 653 42 572 q 307 735 199 735 q 445 693 383 735 q 569 579 507 651 q 806 733 682 733 m 213 511 q 249 416 213 453 q 343 379 286 379 q 460 431 406 379 q 275 578 350 578 q 232 567 250 578 q 213 511 213 538 m 844 376 q 871 450 871 406 q 842 529 871 493 q 765 565 813 565 q 631 507 700 565 q 726 402 688 436 q 806 368 765 368 q 844 376 824 368 z "},"∫":{"ha":593,"x_min":-50,"x_max":643,"o":"m 303 899 q 525 765 408 885 l 643 975 q 417 1043 513 1043 q 172 928 283 1043 q 61 668 61 813 l 293 -104 q 68 31 189 -90 l -50 -179 q 179 -247 96 -250 q 424 -133 314 -247 q 535 128 535 -18 l 303 899 z "},"≈":{"ha":799,"x_min":76,"x_max":729,"o":"m 76 431 q 185 581 147 538 q 261 624 224 624 q 546 501 310 624 l 667 600 l 729 547 q 623 390 661 435 q 546 344 585 344 q 381 408 508 344 q 261 458 286 458 q 151 375 232 458 l 76 431 m 76 161 q 185 311 147 268 q 261 354 224 354 q 546 232 310 354 l 667 331 l 729 278 q 623 120 661 165 q 546 75 585 75 q 381 139 508 75 q 261 189 286 189 q 151 106 232 189 l 76 161 z "},"≠":{"ha":806,"x_min":75,"x_max":731,"o":"m 504 422 l 421 288 l 731 288 l 731 164 l 344 164 l 233 -17 l 164 25 l 250 164 l 75 164 l 75 288 l 326 288 l 410 422 l 75 422 l 75 546 l 486 546 l 593 718 l 663 679 l 581 546 l 731 546 l 731 422 l 504 422 z "},"≤":{"ha":828,"x_min":75,"x_max":753,"o":"m 724 742 l 288 519 l 289 511 l 724 310 l 663 200 l 108 461 l 97 558 l 663 847 l 724 742 m 753 0 l 75 0 l 75 124 l 753 124 l 753 0 z "},"≥":{"ha":828,"x_min":75,"x_max":753,"o":"m 731 558 l 719 461 l 165 200 l 106 310 l 540 511 l 542 519 l 104 742 l 168 847 l 731 558 m 753 124 l 753 0 l 75 0 l 75 124 l 753 124 z "},"◊":{"ha":769,"x_min":53,"x_max":717,"o":"m 717 510 l 464 0 l 333 -11 l 53 511 l 306 1021 l 436 1032 l 717 510 m 544 510 l 379 826 l 371 825 l 225 511 l 392 194 l 400 196 l 544 510 z "},"́":{"ha":0,"x_min":-137,"x_max":226,"o":"m -137 836 l 76 1097 l 226 965 l 156 906 l 18 775 l -17 742 l -137 836 z "},"̆":{"ha":0,"x_min":-233,"x_max":236,"o":"m 236 993 q 168 824 235 883 q 6 764 101 764 q -160 827 -93 764 q -233 993 -228 890 l -97 1000 q -4 893 -86 893 q 58 922 33 893 q 82 999 82 950 l 236 993 z "},"̌":{"ha":0,"x_min":-289,"x_max":272,"o":"m 4 879 l 169 1076 l 272 989 l 88 754 l -86 751 l -289 965 l -167 1075 l 4 879 z "},"̧":{"ha":0,"x_min":-137,"x_max":174,"o":"m -7 -79 q 120 -113 67 -79 q 174 -196 174 -147 q 94 -324 174 -272 q -108 -376 15 -375 l -135 -329 q -35 -274 -71 -307 q 0 -211 0 -242 q -100 -160 0 -151 l -137 -97 l -50 8 l 43 8 l -7 -79 z "},"̂":{"ha":0,"x_min":-258,"x_max":269,"o":"m -72 1032 l 88 1032 l 269 815 l 193 742 l 1 893 l -168 735 l -258 804 l -72 1032 z "},"̦":{"ha":0,"x_min":-99,"x_max":118,"o":"m 42 -93 q 118 -206 118 -129 q 72 -335 118 -267 q -26 -436 26 -404 l -99 -385 q -54 -276 -54 -328 q -90 -206 -54 -232 l -93 -154 l 42 -93 z "},"̈":{"ha":0,"x_min":-293,"x_max":294,"o":"m -44 894 q -156 763 -74 806 q -293 874 -250 793 q -178 1026 -279 972 q -44 894 -71 983 m 294 894 q 182 763 265 806 q 44 874 88 793 q 161 1026 60 972 q 294 894 268 983 z "},"̇":{"ha":0,"x_min":-121,"x_max":128,"o":"m 128 894 q 18 763 100 806 q -121 874 -78 790 q -4 1026 -107 971 q 128 894 107 982 z "},"̣":{"ha":0,"x_min":-121,"x_max":128,"o":"m 128 -269 q 18 -401 100 -358 q -121 -290 -78 -371 q -4 -136 -107 -190 q 128 -269 108 -185 z "},"̀":{"ha":0,"x_min":-225,"x_max":139,"o":"m -17 775 l -154 906 l -225 965 l -75 1097 l 139 836 l 18 742 l -17 775 z "},"̋":{"ha":0,"x_min":-253,"x_max":381,"o":"m -57 1075 l 89 968 q -144 742 38 924 l -253 822 l -57 1075 m 235 1075 l 381 968 q 147 742 329 924 l 39 822 l 235 1075 z "},"̱":{"ha":0,"x_min":-265,"x_max":268,"o":"m 261 -187 l 268 -261 l 203 -325 l -257 -325 l -265 -222 q -101 -187 -193 -187 l 261 -187 z "},"̄":{"ha":0,"x_min":-231,"x_max":275,"o":"m 268 925 l 275 851 l 210 788 l -222 788 l -231 890 q -74 925 -160 925 l 268 925 z "},"̨":{"ha":0,"x_min":-335,"x_max":50,"o":"m 14 40 q -123 -59 -76 -14 q -169 -154 -169 -104 q -90 -228 -169 -228 q 18 -193 -43 -228 l 50 -264 l -125 -356 l -153 -357 q -283 -311 -232 -357 q -335 -200 -335 -265 q -253 -49 -335 -121 q -19 71 -171 24 l 14 40 z "},"̊":{"ha":0,"x_min":-171,"x_max":171,"o":"m -171 1156 q -122 1278 -171 1229 q 0 1328 -74 1328 q 122 1278 72 1328 q 171 1151 171 1228 q 125 1033 171 1079 q 6 986 79 986 q -120 1033 -69 986 q -171 1156 -171 1081 m -81 1133 q -56 1075 -81 1097 q 3 1053 -32 1053 q 60 1075 38 1053 q 82 1132 82 1097 q 58 1191 82 1168 q 1 1214 35 1214 q -57 1191 -33 1214 q -81 1133 -81 1168 z "},"̃":{"ha":0,"x_min":-297,"x_max":328,"o":"m -297 825 q -180 990 -222 950 q -90 1031 -137 1031 q 8 991 -61 1031 q 139 906 78 951 l 253 1021 l 328 967 q 136 756 219 756 q 81 772 111 756 q -13 830 50 788 q -97 872 -76 872 q -143 848 -118 872 q -218 764 -168 824 l -297 825 z "},"̒":{"ha":0,"x_min":-124,"x_max":144,"o":"m 144 1082 q 50 925 65 1014 l 129 853 q 84 768 121 810 q 3 714 47 726 q -124 878 -124 763 q -64 1028 -124 956 q 92 1147 -4 1101 l 144 1082 z "},"ऄ":{"ha":1193,"x_min":22,"x_max":1271,"o":"m 1242 747 l 996 747 l 1089 681 l 1089 -29 l 1025 -60 l 867 26 l 867 293 q 819 285 846 285 q 726 307 776 285 q 736 232 736 269 q 665 57 736 126 q 481 -12 594 -12 q 244 74 364 -12 q 22 382 124 160 l 133 453 q 266 248 197 317 q 419 179 335 179 q 522 215 485 179 q 560 297 560 251 q 490 401 560 374 l 351 318 l 226 506 q 407 581 304 575 q 515 729 515 647 q 501 765 515 751 q 380 735 449 771 q 247 639 311 700 l 129 793 q 256 890 185 851 q 400 928 328 928 q 597 845 510 928 q 683 667 683 763 q 607 497 683 579 q 736 456 664 456 q 867 503 817 456 l 867 747 l 758 747 l 681 851 l 710 910 l 889 910 q 781 1018 871 994 l 603 1054 l 543 1072 q 357 1414 365 1135 l 481 1428 q 624 1268 499 1299 l 706 1253 q 873 1213 814 1238 q 975 1118 932 1189 q 1025 910 1018 1047 l 1193 910 l 1271 806 l 1242 747 z "},"अ":{"ha":1193,"x_min":22,"x_max":1271,"o":"m 1242 747 l 996 747 l 1089 681 l 1089 -29 l 1025 -60 l 867 26 l 867 293 q 819 285 846 285 q 726 307 776 285 q 736 232 736 269 q 665 57 736 126 q 481 -12 594 -12 q 244 74 364 -12 q 22 382 124 160 l 133 453 q 266 248 197 317 q 419 179 335 179 q 522 215 485 179 q 560 297 560 251 q 490 401 560 374 l 351 318 l 226 506 q 407 581 304 575 q 515 729 515 647 q 501 765 515 751 q 380 735 449 771 q 247 639 311 700 l 129 793 q 256 890 185 851 q 400 928 328 928 q 597 845 510 928 q 683 667 683 763 q 607 497 683 579 q 736 456 664 456 q 867 503 817 456 l 867 747 l 758 747 l 681 851 l 710 910 l 1193 910 l 1271 806 l 1242 747 z "},"आ":{"ha":1614,"x_min":22,"x_max":1692,"o":"m 1663 747 l 1415 747 l 1508 681 l 1508 -29 l 1444 -60 l 1286 26 l 1286 747 l 996 747 l 1089 681 l 1089 -29 l 1025 -60 l 867 26 l 867 293 q 819 285 846 285 q 726 307 776 285 q 736 232 736 269 q 665 57 736 126 q 481 -12 594 -12 q 244 74 364 -12 q 22 382 124 160 l 133 453 q 266 248 197 317 q 419 179 335 179 q 522 215 485 179 q 560 297 560 251 q 490 401 560 374 l 351 318 l 226 506 q 407 581 304 575 q 515 729 515 647 q 501 765 515 751 q 380 735 449 771 q 247 639 311 700 l 129 793 q 256 890 185 851 q 400 928 328 928 q 597 845 510 928 q 683 667 683 763 q 607 497 683 579 q 736 456 664 456 q 867 503 817 456 l 867 747 l 758 747 l 681 851 l 710 910 l 1614 910 l 1692 806 l 1663 747 z "},"इ":{"ha":813,"x_min":-79,"x_max":890,"o":"m 861 747 l 588 747 l 681 681 l 681 490 l 346 490 q 233 424 233 490 q 258 375 233 400 l 542 432 q 708 319 650 393 q 767 158 767 244 q 674 -18 767 43 q 460 -93 581 -79 l 631 -237 l 464 -358 l 288 -83 q 93 15 200 -60 l 142 203 l 244 201 l 329 76 l 357 75 q 524 126 447 75 q 603 240 600 178 l 379 182 q 139 310 232 225 q 46 488 46 396 q 112 616 46 564 q 300 668 178 668 l 481 668 l 481 747 l 0 747 l -79 851 l -50 910 l 811 910 l 890 806 l 861 747 z "},"ई":{"ha":813,"x_min":-79,"x_max":890,"o":"m 861 747 l 588 747 l 681 681 l 681 490 l 346 490 q 233 424 233 490 q 258 375 233 400 l 542 432 q 708 319 650 393 q 767 158 767 244 q 674 -18 767 43 q 460 -93 581 -79 l 631 -237 l 464 -358 l 288 -83 q 93 15 200 -60 l 142 203 l 244 201 l 329 76 l 357 75 q 524 126 447 75 q 603 240 600 178 l 379 182 q 139 310 232 225 q 46 488 46 396 q 112 616 46 564 q 300 668 178 668 l 481 668 l 481 747 l 0 747 l -79 851 l -50 910 l 446 910 q 331 1144 331 1029 q 396 1296 331 1235 q 557 1357 461 1357 q 677 1331 619 1357 q 769 1265 735 1306 l 739 1160 q 643 1183 692 1183 q 547 1151 586 1183 q 507 1060 507 1119 q 575 910 507 992 l 811 910 l 890 806 l 861 747 z "},"उ":{"ha":810,"x_min":-79,"x_max":888,"o":"m 858 747 l 592 747 q 661 603 661 682 q 604 468 661 526 q 715 352 676 421 q 753 210 753 283 q 671 17 753 94 q 463 -61 589 -61 q -4 356 185 -61 l 113 419 q 247 207 178 281 q 404 133 317 133 q 512 173 471 133 q 553 267 553 213 q 481 378 553 349 l 340 293 l 210 489 q 408 568 289 561 q 463 658 463 606 q 413 747 463 710 l 0 747 l -79 851 l -50 910 l 810 910 l 888 806 l 858 747 z "},"ऊ":{"ha":1188,"x_min":-79,"x_max":1267,"o":"m 592 747 q 661 603 661 682 q 604 468 661 526 l 642 440 q 890 578 767 578 q 1082 489 1000 578 q 1164 289 1164 400 q 968 -6 1164 131 l 818 158 q 948 274 900 225 q 996 361 996 324 q 983 390 996 378 q 950 401 971 401 q 749 261 874 401 l 753 210 q 671 17 753 94 q 463 -61 589 -61 q -4 356 185 -61 l 113 419 q 247 207 178 281 q 404 133 317 133 q 512 173 471 133 q 553 267 553 213 q 481 378 553 349 l 340 293 l 210 489 q 408 568 289 561 q 463 658 463 606 q 413 747 463 710 l 0 747 l -79 851 l -50 910 l 1188 910 l 1267 806 l 1238 747 l 592 747 z "},"ऋ":{"ha":1294,"x_min":-74,"x_max":1372,"o":"m 696 747 l 789 681 l 789 415 q 853 407 821 407 q 985 451 929 407 l 897 581 l 935 651 l 1140 646 q 1169 529 1169 596 q 1147 433 1169 474 q 1286 169 1286 281 q 1229 28 1286 93 q 1061 -57 1172 -36 l 946 64 l 958 126 q 1100 256 1100 167 q 1081 322 1100 288 q 969 244 1038 274 q 829 214 901 214 l 789 217 l 789 -29 l 725 -60 l 567 26 l 567 239 l 290 26 l 136 201 l 472 425 q 364 485 413 485 q 285 459 329 485 q 149 368 240 433 l 11 572 q 258 686 156 686 q 471 579 361 686 l 567 486 l 567 747 l 6 747 l -74 851 l -44 910 l 1294 910 l 1372 806 l 1343 747 l 696 747 z "},"ॠ":{"ha":1317,"x_min":-74,"x_max":1472,"o":"m 1472 -257 q 1251 -356 1379 -356 q 1061 -284 1146 -356 q 976 -124 976 -212 q 986 -74 976 -97 q 858 92 858 -7 q 1096 283 858 224 l 1064 333 q 829 249 967 249 l 789 251 l 789 -29 l 725 -60 l 567 26 l 567 239 l 290 26 l 136 201 l 472 425 q 364 485 413 485 q 285 459 329 485 q 149 368 240 433 l 11 572 q 258 686 156 686 q 471 579 361 686 l 567 486 l 567 747 l 6 747 l -74 851 l -44 910 l 1328 910 l 1406 806 l 1376 747 l 696 747 l 789 681 l 789 428 q 851 419 821 419 q 982 458 929 419 l 897 583 l 935 656 l 1140 650 q 1169 535 1169 600 q 1140 428 1169 468 l 1272 200 l 1239 133 q 1087 90 1154 119 q 1019 28 1019 61 q 1040 -4 1019 8 q 1271 88 1117 56 l 1351 -25 l 1321 -86 q 1138 -175 1138 -124 q 1175 -200 1138 -200 q 1277 -168 1215 -200 q 1371 -97 1339 -136 l 1472 -257 z "},"ऌ":{"ha":1113,"x_min":-79,"x_max":1190,"o":"m 1161 747 l 744 747 l 838 681 l 838 617 q 968 509 918 581 q 1018 357 1018 438 q 975 208 1018 279 q 865 57 932 136 q 799 -50 799 -22 q 840 -93 799 -93 q 992 72 911 -93 l 1144 -64 q 908 -251 1060 -251 q 708 -165 799 -251 q 617 24 617 -78 q 637 111 617 71 q 710 217 657 151 q 786 323 763 283 q 810 407 810 363 q 742 488 810 488 q 649 400 689 488 q 614 201 610 313 l 563 167 l 397 269 l 396 299 q 421 440 396 372 q 374 449 396 449 q 291 414 325 449 q 257 324 257 379 q 319 189 257 251 q 514 43 381 126 l 429 -71 q 25 407 25 156 q 95 581 25 513 q 267 649 165 649 q 353 632 313 649 l 471 529 q 622 631 532 604 l 622 747 l 0 747 l -79 851 l -50 910 l 1113 910 l 1190 806 l 1161 747 z "},"ॡ":{"ha":1113,"x_min":-79,"x_max":1261,"o":"m 1261 -262 q 1032 -415 1175 -415 q 865 -352 940 -415 q 779 -207 790 -289 q 656 -116 701 -174 q 611 10 611 -58 q 639 114 611 67 q 717 224 667 161 q 788 324 767 286 q 810 406 810 363 q 742 488 810 488 q 649 400 689 488 q 614 201 610 313 l 563 167 l 397 269 l 396 299 q 421 440 396 372 q 374 449 396 449 q 291 414 325 449 q 257 324 257 379 q 319 189 257 251 q 514 43 381 126 l 429 -71 q 25 407 25 156 q 95 581 25 513 q 267 649 165 649 q 353 632 313 649 l 471 529 q 622 631 532 604 l 622 747 l 0 747 l -79 851 l -50 910 l 1113 910 l 1190 806 l 1161 747 l 744 747 l 838 681 l 838 617 q 968 509 918 581 q 1018 357 1018 438 q 974 208 1018 278 q 858 57 931 138 q 786 -54 786 -24 q 806 -96 786 -81 q 994 44 863 -8 l 1106 -58 l 1093 -117 q 946 -246 946 -194 q 974 -271 946 -271 q 1054 -233 1004 -271 q 1138 -139 1104 -196 l 1261 -262 z "},"ऍ":{"ha":839,"x_min":-79,"x_max":917,"o":"m 888 747 l 663 747 l 756 681 l 756 472 q 713 283 756 351 q 551 163 671 214 l 444 310 l 533 378 l 533 747 l 200 747 l 293 681 l 293 247 l 618 90 q 817 -37 761 19 q 874 -162 874 -93 q 807 -318 874 -251 l 606 -228 q 647 -136 647 -172 q 575 -51 647 -90 l 306 79 q 68 415 68 194 l 68 747 l 0 747 l -79 851 l -50 910 l 839 910 l 917 806 l 888 747 m 721 1229 q 631 1042 700 1113 q 453 971 561 971 q 255 1040 349 971 q 107 1236 161 1108 l 206 1317 q 396 1156 285 1156 q 550 1318 522 1156 l 721 1229 z "},"ऎ":{"ha":839,"x_min":-79,"x_max":917,"o":"m 888 747 l 663 747 l 756 681 l 756 472 q 713 283 756 351 q 551 163 671 214 l 444 310 l 533 378 l 533 747 l 200 747 l 293 681 l 293 247 l 618 90 q 817 -37 761 19 q 874 -162 874 -93 q 807 -318 874 -251 l 606 -228 q 647 -136 647 -172 q 575 -51 647 -90 l 306 79 q 68 415 68 194 l 68 747 l 0 747 l -79 851 l -50 910 l 543 910 q 435 1018 525 994 l 257 1054 l 197 1072 q 11 1414 19 1135 l 135 1428 q 278 1268 153 1299 l 360 1253 q 527 1213 468 1238 q 629 1118 586 1189 q 679 910 672 1047 l 839 910 l 917 806 l 888 747 z "},"ए":{"ha":839,"x_min":-79,"x_max":917,"o":"m 888 747 l 663 747 l 756 681 l 756 472 q 713 283 756 351 q 551 163 671 214 l 444 310 l 533 378 l 533 747 l 200 747 l 293 681 l 293 247 l 618 90 q 817 -37 761 19 q 874 -162 874 -93 q 807 -318 874 -251 l 606 -228 q 647 -136 647 -172 q 575 -51 647 -90 l 306 79 q 68 415 68 194 l 68 747 l 0 747 l -79 851 l -50 910 l 839 910 l 917 806 l 888 747 z "},"ऐ":{"ha":839,"x_min":-79,"x_max":917,"o":"m 888 747 l 663 747 l 756 681 l 756 472 q 713 283 756 351 q 551 163 671 214 l 444 310 l 533 378 l 533 747 l 200 747 l 293 681 l 293 247 l 618 90 q 817 -37 761 19 q 874 -162 874 -93 q 807 -318 874 -251 l 606 -228 q 647 -136 647 -172 q 575 -51 647 -90 l 306 79 q 68 415 68 194 l 68 747 l 0 747 l -79 851 l -50 910 l 529 910 l 461 1022 q 307 1131 397 1131 q 125 1058 232 1131 l 7 1285 q 219 1356 121 1356 q 538 1136 390 1356 l 681 910 l 839 910 l 917 806 l 888 747 z "},"ऑ":{"ha":1614,"x_min":22,"x_max":1692,"o":"m 1214 967 q 1016 1035 1110 967 q 868 1232 922 1104 l 967 1313 q 1157 1151 1046 1151 q 1311 1314 1283 1151 l 1482 1225 q 1392 1038 1461 1108 q 1214 967 1322 967 m 1663 747 l 1415 747 l 1508 681 l 1508 -29 l 1444 -60 l 1286 26 l 1286 747 l 996 747 l 1089 681 l 1089 -29 l 1025 -60 l 867 26 l 867 293 q 819 285 846 285 q 726 307 776 285 q 736 232 736 269 q 665 57 736 126 q 481 -12 594 -12 q 244 74 364 -12 q 22 382 124 160 l 133 453 q 266 248 197 317 q 419 179 335 179 q 522 215 485 179 q 560 297 560 251 q 490 401 560 374 l 351 318 l 226 506 q 407 581 304 575 q 515 729 515 647 q 501 765 515 751 q 380 735 449 771 q 247 639 311 700 l 129 793 q 256 890 185 851 q 400 928 328 928 q 597 845 510 928 q 683 667 683 763 q 607 497 683 579 q 736 456 664 456 q 867 503 817 456 l 867 747 l 758 747 l 681 851 l 710 910 l 1614 910 l 1692 806 l 1663 747 z "},"ऒ":{"ha":1614,"x_min":22,"x_max":1692,"o":"m 1663 747 l 1415 747 l 1508 681 l 1508 -29 l 1444 -60 l 1286 26 l 1286 747 l 996 747 l 1089 681 l 1089 -29 l 1025 -60 l 867 26 l 867 293 q 819 285 846 285 q 726 307 776 285 q 736 232 736 269 q 665 57 736 126 q 481 -12 594 -12 q 244 74 364 -12 q 22 382 124 160 l 133 453 q 266 248 197 317 q 419 179 335 179 q 522 215 485 179 q 560 297 560 251 q 490 401 560 374 l 351 318 l 226 506 q 407 581 304 575 q 515 729 515 647 q 501 765 515 751 q 380 735 449 771 q 247 639 311 700 l 129 793 q 256 890 185 851 q 400 928 328 928 q 597 845 510 928 q 683 667 683 763 q 607 497 683 579 q 736 456 664 456 q 867 503 817 456 l 867 747 l 758 747 l 681 851 l 710 910 l 1322 910 q 1214 1018 1304 994 l 1036 1054 l 976 1072 q 790 1414 799 1135 l 914 1428 q 1057 1268 932 1299 l 1139 1253 q 1306 1213 1247 1238 q 1408 1118 1365 1189 q 1458 910 1451 1047 l 1614 910 l 1692 806 l 1663 747 z "},"ओ":{"ha":1614,"x_min":22,"x_max":1692,"o":"m 1663 747 l 1415 747 l 1508 681 l 1508 -29 l 1444 -60 l 1286 26 l 1286 747 l 996 747 l 1089 681 l 1089 -29 l 1025 -60 l 867 26 l 867 293 q 819 285 846 285 q 726 307 776 285 q 736 232 736 269 q 665 57 736 126 q 481 -12 594 -12 q 244 74 364 -12 q 22 382 124 160 l 133 453 q 266 248 197 317 q 419 179 335 179 q 522 215 485 179 q 560 297 560 251 q 490 401 560 374 l 351 318 l 226 506 q 407 581 304 575 q 515 729 515 647 q 501 765 515 751 q 380 735 449 771 q 247 639 311 700 l 129 793 q 256 890 185 851 q 400 928 328 928 q 597 845 510 928 q 683 667 683 763 q 607 497 683 579 q 736 456 664 456 q 867 503 817 456 l 867 747 l 758 747 l 681 851 l 710 910 l 1271 910 l 1210 1010 q 1056 1121 1147 1121 q 872 1049 982 1121 l 756 1275 q 967 1346 867 1346 q 1292 1118 1144 1346 l 1422 910 l 1614 910 l 1692 806 l 1663 747 z "},"ॲ":{"ha":1193,"x_min":22,"x_max":1271,"o":"m 1242 747 l 996 747 l 1089 681 l 1089 -29 l 1025 -60 l 867 26 l 867 293 q 819 285 846 285 q 726 307 776 285 q 736 232 736 269 q 665 57 736 126 q 481 -12 594 -12 q 244 74 364 -12 q 22 382 124 160 l 133 453 q 266 248 197 317 q 419 179 335 179 q 522 215 485 179 q 560 297 560 251 q 490 401 560 374 l 351 318 l 226 506 q 407 581 304 575 q 515 729 515 647 q 501 765 515 751 q 380 735 449 771 q 247 639 311 700 l 129 793 q 256 890 185 851 q 400 928 328 928 q 597 845 510 928 q 683 667 683 763 q 607 497 683 579 q 736 456 664 456 q 867 503 817 456 l 867 747 l 758 747 l 681 851 l 710 910 l 1193 910 l 1271 806 l 1242 747 m 1210 1222 q 1119 1035 1189 1106 q 942 964 1050 964 q 744 1033 838 964 q 596 1229 650 1101 l 694 1310 q 885 1149 774 1149 q 1039 1311 1011 1149 l 1210 1222 z "},"ॳ":{"ha":1193,"x_min":22,"x_max":1271,"o":"m 1242 747 l 996 747 l 1089 681 l 1089 -29 l 1025 -60 l 867 26 l 867 293 q 819 285 846 285 q 726 307 776 285 q 736 232 736 269 q 665 57 736 126 q 481 -12 594 -12 q 244 74 364 -12 q 22 382 124 160 l 133 453 q 266 248 197 317 q 419 179 335 179 q 522 215 485 179 q 560 297 560 251 q 490 401 560 374 l 351 318 l 226 506 q 407 581 304 575 q 515 729 515 647 q 501 765 515 751 q 380 735 449 771 q 247 639 311 700 l 129 793 q 256 890 185 851 q 400 928 328 928 q 597 845 510 928 q 683 667 683 763 q 607 497 683 579 q 736 456 664 456 q 867 503 817 456 l 867 747 l 758 747 l 681 851 l 710 910 l 886 910 l 886 1160 l 1040 1160 l 1040 910 l 1193 910 l 1271 806 l 1242 747 z "},"ॴ":{"ha":1614,"x_min":22,"x_max":1692,"o":"m 1663 747 l 1415 747 l 1508 681 l 1508 -29 l 1444 -60 l 1286 26 l 1286 747 l 996 747 l 1089 681 l 1089 -29 l 1025 -60 l 867 26 l 867 293 q 819 285 846 285 q 726 307 776 285 q 736 232 736 269 q 665 57 736 126 q 481 -12 594 -12 q 244 74 364 -12 q 22 382 124 160 l 133 453 q 266 248 197 317 q 419 179 335 179 q 522 215 485 179 q 560 297 560 251 q 490 401 560 374 l 351 318 l 226 506 q 407 581 304 575 q 515 729 515 647 q 501 765 515 751 q 380 735 449 771 q 247 639 311 700 l 129 793 q 256 890 185 851 q 400 928 328 928 q 597 845 510 928 q 683 667 683 763 q 607 497 683 579 q 736 456 664 456 q 867 503 817 456 l 867 747 l 758 747 l 681 851 l 710 910 l 1304 910 l 1304 1160 l 1458 1160 l 1458 910 l 1614 910 l 1692 806 l 1663 747 z "},"ॵ":{"ha":1614,"x_min":22,"x_max":1692,"o":"m 1663 747 l 1415 747 l 1508 681 l 1508 -29 l 1444 -60 l 1286 26 l 1286 747 l 996 747 l 1089 681 l 1089 -29 l 1025 -60 l 867 26 l 867 293 q 819 285 846 285 q 726 307 776 285 q 736 232 736 269 q 665 57 736 126 q 481 -12 594 -12 q 244 74 364 -12 q 22 382 124 160 l 133 453 q 266 248 197 317 q 419 179 335 179 q 522 215 485 179 q 560 297 560 251 q 490 401 560 374 l 351 318 l 226 506 q 407 581 304 575 q 515 729 515 647 q 501 765 515 751 q 380 735 449 771 q 247 639 311 700 l 129 793 q 256 890 185 851 q 400 928 328 928 q 597 845 510 928 q 683 667 683 763 q 607 497 683 579 q 736 456 664 456 q 867 503 817 456 l 867 747 l 758 747 l 681 851 l 710 910 l 1310 910 q 1242 971 1297 965 l 1036 975 q 871 1042 939 983 q 779 1238 785 1115 l 901 1275 q 1028 1128 932 1132 l 1108 1128 q 1236 1108 1186 1128 l 1240 1121 q 1190 1147 1221 1136 l 1119 1175 q 975 1368 975 1232 q 1003 1485 975 1428 l 1132 1467 q 1117 1397 1117 1424 q 1138 1344 1117 1365 q 1267 1269 1160 1322 q 1418 1133 1375 1215 q 1461 954 1461 1051 l 1458 910 l 1614 910 l 1692 806 l 1663 747 z "},"ॶ":{"ha":1193,"x_min":22,"x_max":1271,"o":"m 1242 747 l 996 747 l 1089 681 l 1089 -29 l 1025 -60 l 867 26 l 867 293 q 819 285 846 285 q 726 307 776 285 q 736 232 736 269 q 665 57 736 126 q 481 -12 594 -12 q 244 74 364 -12 q 22 382 124 160 l 133 453 q 266 248 197 317 q 419 179 335 179 q 522 215 485 179 q 560 297 560 251 q 490 401 560 374 l 351 318 l 226 506 q 407 581 304 575 q 515 729 515 647 q 501 765 515 751 q 380 735 449 771 q 247 639 311 700 l 129 793 q 256 890 185 851 q 400 928 328 928 q 597 845 510 928 q 683 667 683 763 q 607 497 683 579 q 736 456 664 456 q 867 503 817 456 l 867 747 l 758 747 l 681 851 l 710 910 l 1193 910 l 1271 806 l 1242 747 m 456 -90 q 681 -181 550 -181 q 933 -81 833 -181 l 1035 -242 q 915 -331 993 -296 q 750 -365 838 -365 q 551 -314 646 -365 q 399 -160 457 -262 l 456 -90 z "},"ॷ":{"ha":1193,"x_min":22,"x_max":1271,"o":"m 1242 747 l 996 747 l 1089 681 l 1089 -29 l 1025 -60 l 867 26 l 867 293 q 819 285 846 285 q 726 307 776 285 q 736 232 736 269 q 665 57 736 126 q 481 -12 594 -12 q 244 74 364 -12 q 22 382 124 160 l 133 453 q 266 248 197 317 q 419 179 335 179 q 522 215 485 179 q 560 297 560 251 q 490 401 560 374 l 351 318 l 226 506 q 407 581 304 575 q 515 729 515 647 q 501 765 515 751 q 380 735 449 771 q 247 639 311 700 l 129 793 q 256 890 185 851 q 400 928 328 928 q 597 845 510 928 q 683 667 683 763 q 607 497 683 579 q 736 456 664 456 q 867 503 817 456 l 867 747 l 758 747 l 681 851 l 710 910 l 1193 910 l 1271 806 l 1242 747 m 451 -382 q 676 -472 546 -472 q 929 -372 829 -472 l 1031 -533 q 911 -622 989 -587 q 746 -657 833 -657 q 547 -606 642 -657 q 394 -451 453 -554 l 451 -382 m 451 -90 q 676 -181 546 -181 q 929 -81 829 -181 l 1031 -242 q 911 -331 989 -296 q 746 -365 833 -365 q 547 -314 642 -365 q 394 -160 453 -262 l 451 -90 z "},"औ":{"ha":1614,"x_min":22,"x_max":1692,"o":"m 1663 747 l 1415 747 l 1508 681 l 1508 -29 l 1444 -60 l 1286 26 l 1286 747 l 996 747 l 1089 681 l 1089 -29 l 1025 -60 l 867 26 l 867 293 q 819 285 846 285 q 726 307 776 285 q 736 232 736 269 q 665 57 736 126 q 481 -12 594 -12 q 244 74 364 -12 q 22 382 124 160 l 133 453 q 266 248 197 317 q 419 179 335 179 q 522 215 485 179 q 560 297 560 251 q 490 401 560 374 l 351 318 l 226 506 q 407 581 304 575 q 515 729 515 647 q 501 765 515 751 q 380 735 449 771 q 247 639 311 700 l 129 793 q 256 890 185 851 q 400 928 328 928 q 597 845 510 928 q 683 667 683 763 q 607 497 683 579 q 736 456 664 456 q 867 503 817 456 l 867 747 l 758 747 l 681 851 l 710 910 l 1247 910 l 1190 964 q 1051 1032 1122 1032 q 875 965 983 1032 l 771 1151 q 971 1228 879 1228 q 1218 1083 1090 1228 l 1357 921 l 1283 1099 q 1192 1257 1239 1208 q 1071 1306 1144 1306 q 922 1274 1014 1306 l 839 1493 q 1013 1532 933 1532 q 1357 1207 1231 1532 l 1463 910 l 1614 910 l 1692 806 l 1663 747 z "},"क":{"ha":1132,"x_min":-79,"x_max":1210,"o":"m 1181 747 l 586 747 l 679 681 l 679 565 q 829 618 753 618 q 1023 528 940 618 q 1106 319 1106 439 q 875 -19 1106 133 l 719 143 q 868 269 819 218 q 917 365 917 319 q 868 415 917 415 q 679 283 793 415 l 679 -29 l 615 -60 l 457 26 l 457 131 q 389 121 428 121 q 142 210 256 121 q 28 422 28 300 q 97 590 28 522 q 274 657 165 657 l 335 651 l 457 588 l 457 747 l 0 747 l -79 851 l -50 910 l 1132 910 l 1210 806 l 1181 747 m 268 282 q 367 304 314 279 q 457 378 419 329 l 457 475 q 382 490 415 490 q 281 449 319 490 q 243 354 243 408 q 268 282 243 314 z "},"ख":{"ha":1231,"x_min":-79,"x_max":1308,"o":"m 1279 747 l 1032 747 l 1125 681 l 1125 -29 l 1061 -60 l 939 7 q 667 -65 828 -65 q 299 57 471 -65 q 40 382 126 179 l 88 493 l 272 492 l 275 504 l 275 747 l 0 747 l -79 851 l -50 910 l 1231 910 l 1308 806 l 1279 747 m 903 747 l 400 747 l 494 681 l 494 500 q 469 399 494 440 q 382 313 444 358 l 311 261 q 454 140 364 182 q 647 97 544 97 q 903 171 800 97 l 903 186 q 840 178 876 178 q 608 258 713 178 q 503 451 503 339 q 566 607 503 542 q 724 672 629 672 l 782 665 l 903 592 l 903 747 m 903 499 q 824 515 861 515 q 727 478 763 515 q 692 392 692 440 q 714 326 692 353 l 751 322 q 903 399 844 322 l 903 499 z "},"ग":{"ha":924,"x_min":-79,"x_max":1001,"o":"m 972 747 l 726 747 l 819 681 l 819 -29 l 756 -60 l 597 26 l 597 747 l 301 747 l 394 681 l 394 182 l 310 136 q 138 247 225 165 q 24 406 50 328 l 71 481 l 178 481 l 174 747 l 0 747 l -79 851 l -50 910 l 924 910 l 1001 806 l 972 747 z "},"घ":{"ha":985,"x_min":-100,"x_max":1063,"o":"m 1033 747 l 786 747 l 879 681 l 879 -29 l 815 -60 l 657 26 l 657 121 q 525 93 597 93 q 263 188 383 93 q 142 399 142 283 q 176 510 142 458 q 21 717 21 600 l 24 747 l -21 747 l -100 851 l -71 910 l 983 910 l 1063 806 l 1033 747 m 657 747 l 297 747 q 244 654 244 711 q 264 590 244 621 q 413 625 326 625 q 496 617 453 625 l 588 472 l 558 415 l 513 418 q 394 386 438 418 q 350 311 350 354 q 364 268 350 288 l 406 263 q 548 303 474 263 q 657 407 622 344 l 657 747 z "},"ङ":{"ha":1033,"x_min":-79,"x_max":1111,"o":"m 1111 806 l 1082 747 l 621 747 l 714 681 l 714 488 l 401 488 q 283 426 283 488 q 313 374 283 397 l 556 444 q 729 329 667 408 q 792 158 792 250 q 711 -25 792 49 q 506 -99 631 -99 q 11 249 249 -99 l 106 326 q 435 96 257 96 q 576 143 519 96 q 625 250 632 190 l 433 179 q 187 313 281 228 q 93 490 93 399 q 160 619 93 569 q 336 671 226 669 l 514 671 l 514 747 l 0 747 l -79 851 l -50 910 l 1033 910 l 1111 806 m 882 522 q 959 474 918 508 q 1025 408 1000 440 q 911 265 993 324 q 831 313 875 279 q 764 379 788 347 q 882 522 818 482 z "},"च":{"ha":996,"x_min":-79,"x_max":1074,"o":"m 1044 747 l 799 747 l 892 681 l 892 -29 l 828 -60 l 669 26 l 669 124 q 547 99 615 99 q 278 190 403 99 q 154 401 154 282 q 174 483 154 444 l 54 483 l -21 589 l 8 647 l 525 647 l 610 522 l 581 464 l 447 464 q 368 321 368 411 q 376 274 368 297 l 422 269 q 563 309 493 269 q 669 410 633 349 l 669 747 l 0 747 l -79 851 l -50 910 l 996 910 l 1074 806 l 1044 747 z "},"छ":{"ha":1094,"x_min":-79,"x_max":1172,"o":"m 1143 747 l 813 747 l 906 681 l 906 635 q 1009 507 971 586 q 1047 338 1047 428 q 986 120 1047 224 q 817 -47 925 17 q 576 -110 708 -110 q 290 -17 414 -110 q 165 197 165 76 q 188 286 165 242 q 25 510 25 382 q 81 634 25 582 q 243 686 136 686 l 382 686 l 474 551 l 443 494 l 336 494 q 219 429 219 494 q 263 364 219 394 q 411 403 329 403 q 503 392 460 403 l 596 246 l 551 189 q 475 203 511 203 q 399 179 428 203 q 369 121 369 156 q 396 61 369 82 q 460 53 428 53 q 648 94 563 53 q 790 204 733 135 q 605 340 676 261 q 533 501 533 419 q 583 623 533 569 q 706 689 632 676 l 706 747 l 0 747 l -79 851 l -50 910 l 1093 910 l 1172 806 l 1143 747 m 729 450 q 839 283 729 342 q 871 421 871 350 q 842 539 871 507 q 808 544 825 544 q 751 517 772 544 q 729 450 729 490 z "},"ज":{"ha":1033,"x_min":-79,"x_max":1111,"o":"m 1082 747 l 836 747 l 929 681 l 929 -29 l 865 -60 l 707 26 l 707 431 l 546 431 q 631 247 631 349 q 571 99 631 158 q 415 40 511 40 q 161 181 265 40 q -7 560 57 322 l 132 606 q 241 333 193 403 q 351 264 289 264 q 418 290 394 264 q 442 354 442 315 q 375 471 442 426 l 271 508 l 271 619 l 707 619 l 707 747 l 0 747 l -79 851 l -50 910 l 1033 910 l 1111 806 l 1082 747 z "},"झ":{"ha":1197,"x_min":-79,"x_max":1275,"o":"m 1246 747 l 1000 747 l 1093 681 l 1093 -29 l 1029 -60 l 871 26 l 871 226 l 831 222 q 756 232 801 222 q 767 158 767 194 q 674 -18 767 43 q 460 -93 581 -79 l 631 -237 l 464 -358 l 288 -83 q 93 15 200 -60 l 142 203 l 244 201 l 329 76 l 357 75 q 524 126 447 75 q 603 240 600 178 l 379 182 q 139 310 232 225 q 46 488 46 396 q 112 616 46 564 q 300 668 178 668 l 481 668 l 481 747 l 0 747 l -79 851 l -50 910 l 1197 910 l 1275 806 l 1246 747 m 871 747 l 588 747 l 681 681 l 681 490 l 346 490 q 233 424 233 490 q 258 375 233 400 l 543 432 l 543 432 q 735 392 642 392 q 871 431 822 392 l 871 747 z "},"ञ":{"ha":1126,"x_min":-79,"x_max":1204,"o":"m 1175 747 l 929 747 l 1022 681 l 1022 -29 l 958 -60 l 800 26 l 800 264 q 715 286 756 271 q 619 139 692 196 q 450 82 547 82 q 210 169 338 82 q -33 469 82 257 l 76 544 q 228 343 161 406 q 376 281 296 281 q 486 321 446 281 q 526 417 526 361 q 458 529 526 497 l 314 411 l 181 586 q 392 685 267 685 q 595 612 503 685 q 715 429 688 539 l 739 428 q 800 435 768 428 l 800 747 l 0 747 l -79 851 l -50 910 l 1126 910 l 1204 806 l 1175 747 z "},"ट":{"ha":811,"x_min":-79,"x_max":889,"o":"m 860 747 l 553 747 l 646 681 l 646 390 l 415 390 q 290 354 333 390 q 247 264 247 318 q 286 174 247 217 q 386 154 326 154 q 540 188 461 154 q 671 278 618 221 l 796 96 q 653 -13 735 21 q 494 -47 572 -47 q 284 6 392 -47 q 106 149 176 58 q 36 346 36 240 q 117 528 36 456 q 361 600 197 600 l 431 600 l 431 747 l 0 747 l -79 851 l -50 910 l 811 910 l 889 806 l 860 747 z "},"ठ":{"ha":889,"x_min":-79,"x_max":967,"o":"m 938 747 l 560 747 l 653 681 l 653 503 q 788 364 738 446 q 838 196 838 282 q 751 9 838 81 q 526 -62 664 -62 q 194 58 340 -62 q 49 331 49 178 q 136 518 49 447 q 371 590 224 589 l 438 590 l 438 747 l 0 747 l -79 851 l -50 910 l 888 910 l 967 806 l 938 747 m 439 122 q 580 167 528 122 q 632 274 632 211 q 588 385 632 329 l 426 385 q 301 348 344 385 q 258 256 258 311 q 299 158 258 206 q 439 122 363 122 z "},"ड":{"ha":863,"x_min":-79,"x_max":940,"o":"m 911 747 l 642 747 l 735 681 l 735 496 l 404 496 q 289 438 289 496 q 324 381 289 406 l 576 439 q 751 321 690 400 q 813 156 813 242 q 730 -22 813 50 q 521 -93 647 -93 q 17 256 251 -93 l 111 333 q 457 97 263 97 q 594 139 536 97 q 651 242 653 181 l 444 176 q 197 315 293 225 q 100 501 100 404 q 165 631 100 581 q 357 681 231 681 l 535 681 l 535 747 l 0 747 l -79 851 l -50 910 l 863 910 l 940 806 l 911 747 z "},"ढ":{"ha":869,"x_min":-79,"x_max":947,"o":"m 918 747 l 617 747 l 711 681 l 711 429 l 444 429 q 301 379 351 429 q 250 258 250 329 q 308 119 250 178 q 492 78 389 78 l 400 138 q 375 233 375 186 q 427 348 375 306 q 557 390 479 390 q 747 309 665 390 q 828 129 828 228 q 748 -35 828 33 q 550 -103 668 -103 q 316 -41 435 -103 q 119 123 197 21 q 42 339 42 225 q 132 547 42 465 q 369 632 222 628 l 497 632 l 497 747 l 0 747 l -79 851 l -50 910 l 869 910 l 947 806 l 918 747 m 567 181 q 590 99 567 142 q 675 203 675 135 q 661 244 675 229 q 628 260 647 260 q 585 238 604 260 q 567 181 567 217 z "},"ण":{"ha":1049,"x_min":-100,"x_max":1126,"o":"m 1097 747 l 851 747 l 944 681 l 944 -29 l 881 -60 l 722 26 l 722 747 l 517 747 l 611 681 l 611 418 q 556 228 611 289 q 411 168 500 168 q 174 274 288 168 q 56 500 60 379 l 56 747 l -21 747 l -100 851 l -71 910 l 1049 910 l 1126 806 l 1097 747 m 396 747 l 181 747 l 268 681 l 268 357 q 324 333 289 333 q 396 424 396 333 l 396 747 z "},"त":{"ha":872,"x_min":-79,"x_max":950,"o":"m 921 747 l 674 747 l 767 681 l 767 -29 l 703 -60 l 544 26 l 544 404 l 407 404 q 295 374 333 404 q 257 292 257 343 q 297 185 257 243 q 426 36 336 126 l 311 -64 q 107 170 178 64 q 36 375 36 276 q 118 551 36 485 q 339 617 200 617 l 544 617 l 544 747 l 0 747 l -79 851 l -50 910 l 872 910 l 950 806 l 921 747 z "},"थ":{"ha":935,"x_min":35,"x_max":1011,"o":"m 982 747 l 736 747 l 829 681 l 829 -29 l 765 -60 l 607 26 l 607 128 q 478 99 547 99 q 224 197 346 99 q 35 458 103 296 l 61 529 q 356 714 356 561 q 331 786 356 756 q 304 792 319 792 q 253 771 275 792 q 231 717 231 750 q 272 633 231 672 l 192 578 q 44 779 44 678 q 99 894 44 846 q 231 942 153 942 q 445 842 347 942 q 543 625 543 743 q 475 460 543 536 q 274 351 407 385 q 321 265 292 306 q 489 301 407 263 q 607 411 571 339 l 607 747 l 578 747 l 500 851 l 529 910 l 933 910 l 1011 806 l 982 747 z "},"द":{"ha":844,"x_min":-79,"x_max":922,"o":"m 893 747 l 586 747 l 679 681 l 679 425 l 681 422 l 435 422 q 300 381 346 422 q 254 281 254 339 q 303 171 254 219 q 393 153 344 153 q 521 185 460 153 l 504 301 l 644 353 l 815 140 q 714 31 783 79 l 849 -212 l 636 -299 l 579 -36 q 501 -44 540 -44 q 294 9 403 -44 q 114 155 186 63 q 42 354 42 247 q 128 551 42 476 q 357 628 214 625 l 469 628 l 469 747 l 0 747 l -79 851 l -50 910 l 844 910 l 922 806 l 893 747 z "},"ध":{"ha":983,"x_min":25,"x_max":1061,"o":"m 1032 747 l 785 747 l 878 681 l 878 -29 l 814 -60 l 656 26 l 656 122 q 521 93 596 93 q 258 188 379 93 q 138 399 138 283 q 181 522 138 464 q 25 760 25 632 q 85 895 25 840 q 236 950 144 950 q 392 894 326 950 q 519 731 458 839 l 433 663 q 350 771 383 742 l 326 774 q 260 748 288 774 q 233 682 233 722 q 271 596 233 636 q 407 625 332 625 q 492 617 449 625 l 583 472 l 554 415 l 508 418 q 390 386 433 418 q 346 311 346 354 q 360 268 346 288 q 401 263 376 263 q 548 305 472 263 q 656 413 624 347 l 656 747 l 617 747 l 539 851 l 568 910 l 982 910 l 1061 806 l 1032 747 z "},"न":{"ha":847,"x_min":-79,"x_max":925,"o":"m 896 747 l 649 747 l 742 681 l 742 -29 l 678 -60 l 519 26 l 519 381 l 342 381 l 342 236 l 250 193 q 105 327 171 236 q 22 503 39 418 l 74 579 l 519 579 l 519 747 l 0 747 l -79 851 l -50 910 l 846 910 l 925 806 l 896 747 z "},"ऩ":{"ha":847,"x_min":-79,"x_max":925,"o":"m 896 747 l 649 747 l 742 681 l 742 -29 l 678 -60 l 519 26 l 519 381 l 342 381 l 342 236 l 250 193 q 105 327 171 236 q 22 503 39 418 l 74 579 l 519 579 l 519 747 l 0 747 l -79 851 l -50 910 l 846 910 l 925 806 l 896 747 m 329 -164 q 250 -117 294 -150 q 183 -51 206 -83 q 301 92 235 51 q 443 -21 378 63 q 396 -101 428 -61 q 329 -164 364 -142 z "},"प":{"ha":853,"x_min":-79,"x_max":931,"o":"m 901 747 l 654 747 l 747 681 l 747 -29 l 683 -60 l 525 26 l 525 171 q 444 154 486 154 q 188 273 319 154 q 54 515 57 392 l 54 747 l 0 747 l -79 851 l -50 910 l 851 910 l 931 806 l 901 747 m 525 747 l 194 747 l 289 681 l 289 367 q 358 344 315 344 q 456 372 410 344 q 525 450 501 399 l 525 747 z "},"फ":{"ha":1167,"x_min":-79,"x_max":1244,"o":"m 1215 747 l 610 747 l 703 681 l 703 574 q 856 626 776 626 q 1049 536 967 626 q 1132 329 1132 446 q 901 -10 1132 142 l 746 151 q 893 276 844 225 q 942 374 942 328 q 894 424 942 424 q 703 293 818 424 l 703 -29 l 639 -60 l 481 26 l 481 182 l 447 179 q 193 300 324 179 q 61 546 63 421 l 61 747 l 0 747 l -79 851 l -50 910 l 1167 910 l 1244 806 l 1215 747 m 481 747 l 201 747 l 296 681 l 296 394 q 367 365 324 365 q 481 418 432 365 l 481 747 z "},"ब":{"ha":893,"x_min":-79,"x_max":971,"o":"m 942 747 l 696 747 l 789 681 l 789 -29 l 725 -60 l 567 26 l 567 113 q 454 90 517 90 q 265 136 364 90 q 99 261 165 182 q 32 435 32 340 q 109 611 32 539 q 301 683 186 683 q 378 675 339 683 l 567 585 l 567 747 l 0 747 l -79 851 l -50 910 l 893 910 l 971 806 l 942 747 m 519 308 q 567 360 550 335 l 567 464 q 419 506 489 506 l 390 504 l 519 308 m 283 267 q 357 253 318 253 q 442 268 399 253 l 306 468 q 254 356 254 422 q 283 267 254 307 z "},"भ":{"ha":974,"x_min":-46,"x_max":1042,"o":"m 1013 747 l 765 747 l 858 681 l 858 -29 l 794 -60 l 636 26 l 636 281 l 467 281 l 467 157 l 383 111 q 210 228 301 139 q 94 396 119 317 l 142 469 l 251 469 l 250 688 q 226 786 250 757 q 161 766 188 788 q 135 711 135 744 q 193 619 135 663 l 114 554 q -46 771 -46 661 q 8 892 -46 842 q 140 942 61 942 q 362 840 260 942 q 464 617 464 738 l 464 469 l 636 469 l 636 747 l 596 747 l 518 851 l 547 910 l 964 910 l 1042 806 l 1013 747 z "},"म":{"ha":950,"x_min":-79,"x_max":1028,"o":"m 999 747 l 753 747 l 846 681 l 846 -29 l 782 -60 l 624 26 l 624 271 l 400 271 l 400 153 l 317 107 q 144 224 235 135 q 28 390 53 313 l 75 465 l 185 465 l 172 747 l 0 747 l -79 851 l -50 910 l 950 910 l 1028 806 l 999 747 m 624 747 l 303 747 l 396 681 l 397 465 l 624 465 l 624 747 z "},"य":{"ha":914,"x_min":-79,"x_max":992,"o":"m 963 747 l 715 747 l 808 681 l 808 -29 l 744 -60 l 586 26 l 586 126 q 468 99 532 99 q 215 197 336 99 q 25 458 93 296 l 51 529 q 217 568 168 543 q 265 635 265 593 q 178 747 265 690 l 0 747 l -79 851 l -50 910 l 913 910 l 992 806 l 963 747 m 586 747 l 347 747 q 471 543 471 650 q 421 424 471 475 q 271 349 371 372 q 311 265 285 304 l 335 264 q 481 303 410 264 q 586 410 551 343 l 586 747 z "},"र":{"ha":663,"x_min":-79,"x_max":740,"o":"m 711 747 l 404 747 l 500 681 l 500 497 q 463 382 500 429 q 346 281 425 335 l 644 100 l 644 38 l 496 -89 l 32 368 l 79 493 l 268 493 q 269 747 269 497 l 0 747 l -79 851 l -50 910 l 663 910 l 740 806 l 711 747 z "},"ऱ":{"ha":663,"x_min":-79,"x_max":740,"o":"m 711 747 l 404 747 l 500 681 l 500 497 q 463 382 500 429 q 346 281 425 335 l 644 100 l 644 38 l 496 -89 l 32 368 l 79 493 l 268 493 q 269 747 269 497 l 0 747 l -79 851 l -50 910 l 663 910 l 740 806 l 711 747 m 201 -211 q 122 -164 167 -197 q 56 -99 78 -131 q 174 44 107 4 q 315 -68 250 15 q 268 -149 300 -108 q 201 -211 236 -189 z "},"ल":{"ha":1060,"x_min":-79,"x_max":1136,"o":"m 1107 747 l 860 747 l 953 681 l 953 -29 l 889 -60 l 731 26 l 731 478 q 610 211 613 407 l 556 178 l 392 281 q 422 439 392 369 q 374 449 401 449 q 292 415 326 449 q 257 325 257 382 q 319 189 257 253 q 514 43 382 125 l 429 -71 q 25 407 25 156 q 95 581 25 513 q 267 649 165 649 q 353 632 313 649 l 479 522 q 731 628 574 625 l 731 747 l 0 747 l -79 851 l -50 910 l 1058 910 l 1136 806 l 1107 747 z "},"ळ":{"ha":1093,"x_min":-79,"x_max":1171,"o":"m 1142 747 l 765 747 l 858 681 l 858 582 q 1006 440 947 536 q 1065 235 1065 344 q 992 33 1065 113 q 808 -47 919 -47 q 667 -11 729 -47 l 563 99 q 464 -10 513 25 q 350 -46 415 -46 q 126 63 221 -46 q 31 321 31 172 q 109 540 31 451 q 303 629 188 629 q 407 606 347 629 l 543 464 q 636 581 593 549 l 636 747 l 0 747 l -79 851 l -50 910 l 1093 910 l 1171 806 l 1142 747 m 735 125 q 835 176 797 125 q 872 296 872 228 q 849 393 872 347 q 782 463 825 439 l 732 386 l 657 257 l 618 189 q 735 125 674 125 m 307 92 q 486 357 392 181 q 361 429 425 429 q 266 377 303 429 q 229 260 229 325 q 251 164 229 213 q 307 92 272 115 z "},"ऴ":{"ha":1093,"x_min":-79,"x_max":1171,"o":"m 1142 747 l 765 747 l 858 681 l 858 582 q 1006 440 947 536 q 1065 235 1065 344 q 992 33 1065 113 q 808 -47 919 -47 q 667 -11 729 -47 l 563 99 q 464 -10 513 25 q 350 -46 415 -46 q 126 63 221 -46 q 31 321 31 172 q 109 540 31 451 q 303 629 188 629 q 407 606 347 629 l 543 464 q 636 581 593 549 l 636 747 l 0 747 l -79 851 l -50 910 l 1093 910 l 1171 806 l 1142 747 m 735 125 q 835 176 797 125 q 872 296 872 228 q 849 393 872 347 q 782 463 825 439 l 732 386 l 657 257 l 618 189 q 735 125 674 125 m 307 92 q 486 357 392 181 q 361 429 425 429 q 266 377 303 429 q 229 260 229 325 q 251 164 229 213 q 307 92 272 115 m 574 -257 q 494 -210 539 -243 q 428 -144 450 -176 q 546 -1 479 -42 q 688 -114 622 -31 q 640 -194 672 -154 q 574 -257 608 -235 z "},"व":{"ha":889,"x_min":-79,"x_max":967,"o":"m 938 747 l 692 747 l 785 681 l 785 -29 l 721 -60 l 563 26 l 563 122 q 451 97 513 97 q 264 141 363 97 q 99 261 165 185 q 32 432 32 338 q 108 606 32 535 q 300 676 183 676 q 376 668 338 676 l 563 585 l 563 747 l 0 747 l -79 851 l -50 910 l 889 910 l 967 806 l 938 747 m 292 274 l 338 269 q 464 300 401 269 q 563 383 526 331 l 563 465 q 428 499 497 499 q 309 456 351 499 q 267 354 267 413 q 292 274 267 310 z "},"श":{"ha":1150,"x_min":-79,"x_max":1228,"o":"m 1199 747 l 953 747 l 1046 681 l 1046 -29 l 982 -60 l 824 26 l 824 747 l 629 747 q 711 532 711 651 q 637 332 711 429 q 429 179 563 235 l 674 90 l 683 26 l 547 -111 l 258 121 q 71 182 138 124 l 131 376 l 197 390 l 271 322 q 393 386 340 347 q 183 494 264 419 q 103 661 103 569 q 121 747 103 704 l 0 747 l -79 851 l -50 910 l 1150 910 l 1228 806 l 1199 747 m 324 647 q 363 542 324 590 q 476 475 403 494 q 518 617 518 540 q 488 718 518 685 q 415 751 458 751 q 349 722 375 751 q 324 647 324 692 z "},"ष":{"ha":890,"x_min":-79,"x_max":968,"o":"m 939 747 l 693 747 l 786 681 l 786 -29 l 722 -60 l 564 26 l 564 172 q 469 153 521 153 q 194 267 329 153 q 54 513 58 382 l 54 747 l 0 747 l -79 851 l -50 910 l 890 910 l 968 806 l 939 747 m 564 747 l 349 747 l 560 454 l 564 464 l 564 747 m 367 339 q 499 381 443 339 l 283 679 l 283 367 q 367 339 314 339 z "},"स":{"ha":1085,"x_min":-89,"x_max":1163,"o":"m 1133 747 l 886 747 l 979 681 l 979 -29 l 915 -60 l 757 26 l 757 303 l 368 303 l 336 281 l 633 100 l 633 38 l 485 -89 l 21 368 l 68 493 l 258 493 q 260 747 260 497 l -10 747 l -89 851 l -60 910 l 1085 910 l 1163 806 l 1133 747 m 757 747 l 394 747 l 490 681 l 490 482 l 757 482 l 757 747 z "},"ह":{"ha":824,"x_min":-79,"x_max":901,"o":"m 872 747 l 622 747 l 715 681 l 715 486 l 349 486 q 249 425 249 486 q 257 393 249 408 q 415 422 328 422 q 667 343 563 422 q 772 149 772 264 q 643 -60 772 18 l 471 69 q 603 226 585 154 q 500 250 553 250 q 369 209 424 250 q 315 101 315 168 q 425 -50 315 4 q 731 -146 535 -104 l 688 -286 q 250 -117 411 -235 q 89 154 89 1 q 164 333 89 261 q 64 511 64 417 q 122 626 64 578 q 293 675 179 675 l 515 675 l 515 747 l 0 747 l -79 851 l -50 910 l 824 910 l 901 806 l 872 747 z "},"क़":{"ha":1132,"x_min":-79,"x_max":1210,"o":"m 256 -156 q 176 -108 221 -142 q 110 -43 132 -75 q 228 100 161 60 q 369 -12 304 71 q 322 -93 354 -53 q 256 -156 290 -133 m 1181 747 l 586 747 l 679 681 l 679 565 q 829 618 753 618 q 1023 528 940 618 q 1106 319 1106 439 q 875 -19 1106 133 l 719 143 q 868 269 819 218 q 917 365 917 319 q 868 415 917 415 q 679 283 793 415 l 679 -29 l 615 -60 l 457 26 l 457 131 q 389 121 428 121 q 142 210 256 121 q 28 422 28 300 q 97 590 28 522 q 274 657 165 657 l 335 651 l 457 588 l 457 747 l 0 747 l -79 851 l -50 910 l 1132 910 l 1210 806 l 1181 747 m 268 282 q 367 304 314 279 q 457 378 419 329 l 457 475 q 382 490 415 490 q 281 449 319 490 q 243 354 243 408 q 268 282 243 314 z "},"ख़":{"ha":1231,"x_min":-79,"x_max":1308,"o":"m 1279 747 l 1032 747 l 1125 681 l 1125 -29 l 1061 -60 l 939 7 q 667 -65 828 -65 q 299 57 471 -65 q 40 382 126 179 l 88 493 l 272 492 l 275 504 l 275 747 l 0 747 l -79 851 l -50 910 l 1231 910 l 1308 806 l 1279 747 m 903 747 l 400 747 l 494 681 l 494 500 q 469 399 494 440 q 382 313 444 358 l 311 261 q 454 140 364 182 q 647 97 544 97 q 903 171 800 97 l 903 186 q 840 178 876 178 q 608 258 713 178 q 503 451 503 339 q 566 607 503 542 q 724 672 629 672 l 782 665 l 903 592 l 903 747 m 903 499 q 824 515 861 515 q 727 478 763 515 q 692 392 692 440 q 714 326 692 353 l 751 322 q 903 399 844 322 l 903 499 m 269 -240 q 190 -193 235 -226 q 124 -128 146 -160 q 242 15 175 -25 q 383 -97 318 -14 q 336 -178 368 -137 q 269 -240 304 -218 z "},"ग़":{"ha":924,"x_min":-79,"x_max":1001,"o":"m 972 747 l 726 747 l 819 681 l 819 -29 l 756 -60 l 597 26 l 597 747 l 301 747 l 394 681 l 394 182 l 310 136 q 138 247 225 165 q 24 406 50 328 l 71 481 l 178 481 l 174 747 l 0 747 l -79 851 l -50 910 l 924 910 l 1001 806 l 972 747 m 408 -165 q 329 -118 374 -151 q 263 -53 285 -85 q 381 90 314 50 q 522 -22 457 61 q 475 -103 507 -62 q 408 -165 443 -143 z "},"ज़":{"ha":1033,"x_min":-79,"x_max":1111,"o":"m 1082 747 l 836 747 l 929 681 l 929 -29 l 865 -60 l 707 26 l 707 431 l 546 431 q 631 247 631 349 q 571 99 631 158 q 415 40 511 40 q 161 181 265 40 q -7 560 57 322 l 132 606 q 241 333 193 403 q 351 264 289 264 q 418 290 394 264 q 442 354 442 315 q 375 471 442 426 l 271 508 l 271 619 l 707 619 l 707 747 l 0 747 l -79 851 l -50 910 l 1033 910 l 1111 806 l 1082 747 m 465 -243 q 386 -196 431 -229 q 319 -131 342 -162 q 438 13 371 -28 q 579 -100 514 -17 q 532 -181 564 -140 q 465 -243 500 -221 z "},"ड़":{"ha":863,"x_min":-79,"x_max":940,"o":"m 911 747 l 642 747 l 735 681 l 735 496 l 404 496 q 289 438 289 496 q 324 381 289 406 l 576 439 q 751 321 690 400 q 813 156 813 242 q 730 -22 813 50 q 521 -93 647 -93 q 17 256 251 -93 l 111 333 q 457 97 263 97 q 594 139 536 97 q 651 242 653 181 l 444 176 q 197 315 293 225 q 100 501 100 404 q 165 631 100 581 q 357 681 231 681 l 535 681 l 535 747 l 0 747 l -79 851 l -50 910 l 863 910 l 940 806 l 911 747 m 500 -371 q 421 -324 465 -357 q 354 -258 376 -290 q 472 -115 406 -156 q 614 -228 549 -144 q 567 -308 599 -268 q 500 -371 535 -349 z "},"ढ़":{"ha":869,"x_min":-79,"x_max":947,"o":"m 918 747 l 617 747 l 711 681 l 711 429 l 444 429 q 301 379 351 429 q 250 258 250 329 q 308 119 250 178 q 492 78 389 78 l 400 138 q 375 233 375 186 q 427 348 375 306 q 557 390 479 390 q 747 309 665 390 q 828 129 828 228 q 748 -35 828 33 q 550 -103 668 -103 q 316 -41 435 -103 q 119 123 197 21 q 42 339 42 225 q 132 547 42 465 q 369 632 222 628 l 497 632 l 497 747 l 0 747 l -79 851 l -50 910 l 869 910 l 947 806 l 918 747 m 567 181 q 590 99 567 142 q 675 203 675 135 q 661 244 675 229 q 628 260 647 260 q 585 238 604 260 q 567 181 567 217 m 529 -378 q 450 -331 494 -364 q 383 -265 406 -297 q 501 -122 435 -162 q 643 -235 578 -151 q 596 -315 628 -275 q 529 -378 564 -356 z "},"फ़":{"ha":1167,"x_min":-79,"x_max":1244,"o":"m 1215 747 l 610 747 l 703 681 l 703 574 q 856 626 776 626 q 1049 536 967 626 q 1132 329 1132 446 q 901 -10 1132 142 l 746 151 q 893 276 844 225 q 942 374 942 328 q 894 424 942 424 q 703 293 818 424 l 703 -29 l 639 -60 l 481 26 l 481 182 l 447 179 q 193 300 324 179 q 61 546 63 421 l 61 747 l 0 747 l -79 851 l -50 910 l 1167 910 l 1244 806 l 1215 747 m 481 747 l 201 747 l 296 681 l 296 394 q 367 365 324 365 q 481 418 432 365 l 481 747 m 275 -106 q 196 -58 240 -92 q 129 7 151 -25 q 247 150 181 110 q 389 38 324 121 q 342 -43 374 -3 q 275 -106 310 -83 z "},"य़":{"ha":914,"x_min":-79,"x_max":992,"o":"m 963 747 l 715 747 l 808 681 l 808 -29 l 744 -60 l 586 26 l 586 126 q 468 99 532 99 q 215 197 336 99 q 25 458 93 296 l 51 529 q 217 568 168 543 q 265 635 265 593 q 178 747 265 690 l 0 747 l -79 851 l -50 910 l 913 910 l 992 806 l 963 747 m 586 747 l 347 747 q 471 543 471 650 q 421 424 471 475 q 271 349 371 372 q 311 265 285 304 l 335 264 q 481 303 410 264 q 586 410 551 343 l 586 747 m 311 -164 q 232 -117 276 -150 q 165 -51 188 -83 q 283 92 217 51 q 425 -21 360 63 q 378 -101 410 -61 q 311 -164 346 -142 z "},"ॹ":{"ha":1033,"x_min":-79,"x_max":1111,"o":"m 1082 747 l 836 747 l 929 681 l 929 -29 l 865 -60 l 707 26 l 707 431 l 546 431 q 631 247 631 349 q 571 99 631 158 q 415 40 511 40 q 161 181 265 40 q -7 560 57 322 l 132 606 q 241 333 193 403 q 351 264 289 264 q 418 290 394 264 q 442 354 442 315 q 375 471 442 426 l 271 508 l 271 619 l 707 619 l 707 747 l 0 747 l -79 851 l -50 910 l 1033 910 l 1111 806 l 1082 747 m 279 -237 q 200 -190 244 -224 q 133 -125 156 -157 q 251 18 185 -22 q 393 -94 328 -11 q 346 -175 378 -135 q 279 -237 314 -215 m 446 -414 q 367 -367 411 -400 q 300 -301 322 -333 q 418 -158 351 -199 q 560 -271 494 -187 q 513 -351 544 -311 q 446 -414 481 -392 m 606 -237 q 526 -190 571 -224 q 460 -125 482 -157 q 578 18 511 -22 q 719 -94 654 -11 q 672 -175 704 -135 q 606 -237 640 -215 z "},"ॺ":{"ha":914,"x_min":-79,"x_max":992,"o":"m 963 747 l 715 747 l 808 681 l 808 -29 l 744 -60 l 586 26 l 586 126 q 468 99 532 99 q 215 197 336 99 q 25 458 93 296 l 51 529 q 217 568 168 543 q 265 635 265 593 q 178 747 265 690 l 0 747 l -79 851 l -50 910 l 913 910 l 992 806 l 963 747 m 586 747 l 347 747 q 471 543 471 650 l 469 525 l 586 424 l 586 747 m 311 265 l 335 264 q 522 332 439 264 l 419 421 q 271 349 367 371 q 311 265 285 304 z "},"ॻ":{"ha":924,"x_min":-79,"x_max":1001,"o":"m 972 747 l 726 747 l 819 681 l 819 -140 l 776 -199 l 167 -199 l 89 -94 l 118 -37 l 597 -37 l 597 747 l 301 747 l 394 681 l 394 182 l 310 136 q 138 247 225 165 q 24 406 50 328 l 71 481 l 178 481 l 174 747 l 0 747 l -79 851 l -50 910 l 924 910 l 1001 806 l 972 747 z "},"ॼ":{"ha":1033,"x_min":-79,"x_max":1111,"o":"m 1082 747 l 836 747 l 929 681 l 929 -140 l 886 -199 l 181 -199 l 103 -94 l 132 -37 l 707 -37 l 707 433 l 547 433 q 631 250 631 354 q 570 103 631 161 q 415 44 510 44 q 161 185 265 44 q -7 563 57 326 l 132 610 q 241 338 193 407 q 351 268 289 268 q 418 294 394 268 q 442 358 442 319 q 375 475 442 431 l 271 511 l 271 622 l 707 622 l 707 747 l 0 747 l -79 851 l -50 910 l 1033 910 l 1111 806 l 1082 747 z "},"ॾ":{"ha":863,"x_min":-79,"x_max":940,"o":"m 940 806 l 911 747 l 642 747 l 735 681 l 735 496 l 404 496 q 289 438 289 496 q 324 381 289 406 l 576 439 q 751 321 690 400 q 813 156 813 242 q 730 -22 813 50 q 521 -93 647 -93 q 17 256 251 -93 l 111 333 q 457 97 263 97 q 594 139 536 97 q 651 242 653 181 l 444 176 q 197 315 293 225 q 100 501 100 404 q 165 631 100 581 q 357 681 231 681 l 535 681 l 535 747 l 0 747 l -79 851 l -50 910 l 863 910 l 940 806 m 771 -144 l 849 -247 l 819 -306 l 190 -306 l 113 -201 l 142 -144 l 771 -144 z "},"ॿ":{"ha":893,"x_min":-79,"x_max":971,"o":"m 942 747 l 696 747 l 789 681 l 789 -37 l 790 -37 l 790 -140 l 747 -199 l 172 -199 l 94 -94 l 124 -37 l 567 -37 l 567 113 q 454 90 517 90 q 265 136 364 90 q 99 261 165 182 q 32 435 32 340 q 109 611 32 539 q 301 683 186 683 q 378 675 339 683 l 567 585 l 567 747 l 0 747 l -79 851 l -50 910 l 893 910 l 971 806 l 942 747 m 519 308 q 567 360 550 335 l 567 464 q 419 506 489 506 l 390 504 l 519 308 m 283 267 q 357 253 318 253 q 442 268 399 253 l 306 468 q 254 356 254 422 q 283 267 254 307 z "},"ऽ":{"ha":813,"x_min":86,"x_max":725,"o":"m 313 626 q 338 582 313 601 q 424 533 364 563 l 499 493 q 725 193 725 360 q 650 22 725 92 q 461 -47 575 -47 q 233 40 333 -47 q 86 267 133 126 l 213 340 q 422 133 286 133 q 505 160 471 133 q 539 232 539 186 q 474 331 539 286 l 247 475 q 119 669 119 563 q 190 806 119 754 q 382 858 260 858 l 613 858 l 696 728 l 665 672 l 415 672 q 313 626 313 672 z "},"ॽ":{"ha":817,"x_min":117,"x_max":736,"o":"m 736 551 q 504 267 736 369 l 504 -29 l 440 -60 l 288 26 l 288 431 q 468 506 408 451 q 528 622 528 561 q 497 701 528 668 q 363 668 444 700 q 217 592 281 636 l 117 799 q 383 904 253 904 q 626 795 517 904 q 736 551 736 686 z "},"ा":{"ha":421,"x_min":-79,"x_max":499,"o":"m 469 747 l 222 747 l 315 681 l 315 -29 l 251 -60 l 93 26 l 93 747 l 0 747 l -79 851 l -50 910 l 421 910 l 499 806 l 469 747 z "},"ि":{"ha":421,"x_min":-79,"x_max":1069,"o":"m 439 1182 q 269 1138 336 1182 q 203 1017 203 1094 q 240 910 203 968 l 421 910 l 499 806 l 469 747 l 233 747 l 326 681 l 326 -29 l 263 -60 l 104 26 l 104 747 l 0 747 l -79 851 l -50 910 l 104 910 q 15 1114 15 1003 q 108 1309 15 1235 q 346 1383 200 1383 q 672 1298 486 1383 q 1069 1015 858 1213 l 1000 926 q 439 1182 678 1182 z "},"ी":{"ha":421,"x_min":-440,"x_max":499,"o":"m 469 747 l 222 747 l 315 681 l 315 -29 l 251 -60 l 93 26 l 93 747 l 0 747 l -79 851 l -50 910 l 100 910 q -1 1115 54 1039 q -136 1192 -56 1192 q -225 1158 -190 1192 q -260 1075 -260 1125 q -222 971 -260 1024 l -308 925 q -440 1168 -440 1031 q -372 1331 -440 1267 q -194 1394 -303 1394 q 76 1258 -32 1394 q 249 910 185 1122 l 421 910 l 499 806 l 469 747 z "},"ु":{"ha":0,"x_min":-740,"x_max":-3,"o":"m -471 -82 q -381 12 -436 -22 q -264 46 -325 46 q -82 -39 -161 46 q -3 -229 -3 -124 q -73 -389 -3 -325 q -249 -453 -143 -453 q -740 -125 -475 -453 l -644 -36 q -436 -236 -504 -190 q -304 -282 -368 -282 q -204 -247 -243 -282 q -165 -165 -165 -212 q -203 -87 -165 -121 l -335 -214 l -471 -82 z "},"ू":{"ha":0,"x_min":-528,"x_max":194,"o":"m -78 -354 q -256 -440 -158 -440 q -443 -362 -358 -440 q -528 -183 -528 -283 q -455 -26 -528 -92 q -279 40 -382 40 q 29 -149 -121 40 q 194 -379 83 -215 l 93 -464 l -65 -250 q -233 -144 -150 -144 q -326 -180 -289 -144 q -364 -261 -364 -215 q -346 -308 -364 -290 l -190 -212 l -78 -354 z "},"ृ":{"ha":0,"x_min":-515,"x_max":44,"o":"m -104 -90 q -264 -151 -190 -108 q -337 -236 -337 -193 q -274 -282 -337 -282 q -161 -249 -228 -282 q -47 -174 -94 -215 l 44 -364 q -69 -437 -4 -411 q -197 -462 -135 -462 q -417 -379 -319 -462 q -515 -185 -515 -296 q -411 2 -515 -71 q -133 86 -307 75 l -104 86 l -104 -90 z "},"ॄ":{"ha":0,"x_min":-494,"x_max":140,"o":"m 140 -479 q -81 -578 47 -578 q -272 -506 -189 -578 q -356 -346 -356 -435 q -347 -300 -356 -321 q -494 -131 -494 -240 q -401 6 -494 -43 q -153 86 -308 56 l -104 86 l -104 -86 q -256 -129 -189 -100 q -324 -192 -324 -158 q -293 -228 -324 -215 q -62 -136 -222 -168 l 19 -247 l -11 -308 q -194 -397 -194 -346 q -158 -422 -194 -422 q -56 -390 -118 -422 q 39 -319 7 -358 l 140 -479 z "},"ॢ":{"ha":0,"x_min":-282,"x_max":283,"o":"m 283 -440 q 168 -518 242 -518 q 72 -478 115 -518 q 29 -386 29 -439 q 92 -272 29 -344 q 128 -206 128 -231 q 119 -177 128 -189 q 96 -165 110 -165 q 46 -203 68 -165 q 22 -306 24 -240 l -83 -301 l -85 -275 q -72 -193 -85 -233 q -110 -179 -87 -179 q -158 -235 -158 -179 q -53 -369 -158 -296 l -112 -429 q -282 -203 -282 -322 q -242 -104 -282 -144 q -149 -64 -203 -64 q -37 -124 -83 -64 q 78 -67 8 -67 q 184 -111 140 -67 q 228 -215 228 -156 q 174 -340 228 -276 q 124 -414 124 -390 q 144 -435 124 -435 q 180 -418 160 -435 q 211 -379 200 -401 l 283 -440 z "},"ॣ":{"ha":0,"x_min":-306,"x_max":306,"o":"m 306 -533 q 199 -600 263 -600 q 119 -572 156 -600 q 83 -489 83 -543 q 7 -386 7 -454 q 69 -272 7 -344 q 106 -206 106 -231 q 97 -177 106 -189 q 74 -165 88 -165 q 24 -203 46 -165 q 0 -306 1 -240 l -106 -301 l -107 -275 q -94 -193 -107 -233 q -133 -179 -112 -179 q -182 -235 -182 -179 q -76 -369 -182 -296 l -136 -429 q -306 -203 -306 -322 q -266 -104 -306 -144 q -172 -64 -226 -64 q -60 -124 -106 -64 q 56 -67 -17 -67 q 162 -111 118 -67 q 206 -215 206 -156 q 151 -340 206 -276 q 101 -414 101 -390 q 110 -431 101 -426 q 201 -382 142 -396 l 236 -453 q 172 -481 194 -462 q 149 -512 149 -499 q 171 -532 149 -532 q 247 -483 213 -532 l 306 -533 z "},"ॅ":{"ha":0,"x_min":-586,"x_max":28,"o":"m 28 1232 q -62 1044 7 1115 q -240 974 -132 974 q -438 1042 -344 974 q -586 1239 -532 1111 l -487 1319 q -297 1158 -408 1158 q -143 1321 -171 1158 l 28 1232 z "},"ॆ":{"ha":0,"x_min":-818,"x_max":-149,"o":"m -694 1428 q -553 1268 -676 1300 l -367 1233 l -315 1218 q -149 878 -151 1160 l -282 878 q -324 982 -285 946 q -484 1037 -364 1018 q -665 1086 -604 1056 q -818 1414 -811 1158 l -694 1428 z "},"े":{"ha":0,"x_min":-837,"x_max":-146,"o":"m -837 1285 q -625 1356 -724 1356 q -307 1136 -454 1356 l -146 881 l -264 825 l -383 1022 q -537 1131 -447 1131 q -719 1058 -612 1131 l -837 1285 z "},"ै":{"ha":0,"x_min":-847,"x_max":-131,"o":"m -131 839 l -249 793 l -440 988 q -565 1043 -499 1043 q -743 975 -629 1043 l -847 1161 q -644 1239 -737 1239 q -403 1099 -524 1239 l -261 925 l -337 1115 q -428 1270 -382 1224 q -546 1317 -474 1317 q -696 1283 -606 1317 l -779 1504 q -607 1542 -683 1542 q -267 1229 -389 1542 l -131 839 z "},"ॉ":{"ha":421,"x_min":-325,"x_max":499,"o":"m 469 747 l 222 747 l 315 681 l 315 -29 l 251 -60 l 93 26 l 93 747 l 0 747 l -79 851 l -50 910 l 421 910 l 499 806 l 469 747 m 289 1225 q 199 1038 268 1108 q 21 967 129 967 q -177 1035 -83 967 q -325 1232 -271 1104 l -226 1313 q -36 1151 -147 1151 q 118 1314 90 1151 l 289 1225 z "},"ॊ":{"ha":421,"x_min":-403,"x_max":499,"o":"m 469 747 l 222 747 l 315 681 l 315 -29 l 251 -60 l 93 26 l 93 747 l 0 747 l -79 851 l -50 910 l 129 910 q 21 1018 111 994 l -157 1054 l -217 1072 q -403 1414 -394 1135 l -279 1428 q -136 1268 -261 1299 l -54 1253 q 113 1213 54 1238 q 215 1118 172 1189 q 265 910 258 1047 l 421 910 l 499 806 l 469 747 z "},"ो":{"ha":421,"x_min":-437,"x_max":499,"o":"m 469 747 l 222 747 l 315 681 l 315 -29 l 251 -60 l 93 26 l 93 747 l 0 747 l -79 851 l -50 910 l 78 910 l 17 1010 q -137 1121 -46 1121 q -321 1049 -211 1121 l -437 1275 q -226 1346 -326 1346 q 99 1118 -49 1346 l 229 910 l 421 910 l 499 806 l 469 747 z "},"ौ":{"ha":421,"x_min":-422,"x_max":499,"o":"m 469 747 l 222 747 l 315 681 l 315 -29 l 251 -60 l 93 26 l 93 747 l 0 747 l -79 851 l -50 910 l 54 910 l -3 964 q -142 1032 -71 1032 q -318 965 -210 1032 l -422 1151 q -222 1228 -314 1228 q 25 1083 -103 1228 l 164 921 l 90 1099 q -1 1257 46 1208 q -122 1306 -49 1306 q -271 1274 -179 1306 l -354 1493 q -181 1532 -260 1532 q 164 1207 38 1532 l 269 910 l 421 910 l 499 806 l 469 747 z "},"ॖ":{"ha":0,"x_min":-724,"x_max":-87,"o":"m -667 -90 q -442 -181 -572 -181 q -189 -81 -289 -181 l -87 -242 q -207 -331 -129 -296 q -372 -365 -285 -365 q -571 -314 -476 -365 q -724 -160 -665 -262 l -667 -90 z "},"ॗ":{"ha":0,"x_min":-724,"x_max":-87,"o":"m -667 -382 q -442 -472 -572 -472 q -189 -372 -289 -472 l -87 -533 q -207 -622 -129 -587 q -372 -657 -285 -657 q -571 -606 -476 -657 q -724 -451 -665 -554 l -667 -382 m -667 -90 q -442 -181 -572 -181 q -189 -81 -289 -181 l -87 -242 q -207 -331 -129 -296 q -372 -365 -285 -365 q -571 -314 -476 -365 q -724 -160 -665 -262 l -667 -90 z "},"ऺ":{"ha":0,"x_min":-311,"x_max":-157,"o":"m -157 803 l -197 779 l -311 836 l -311 1160 l -157 1160 l -157 803 z "},"ऻ":{"ha":421,"x_min":-79,"x_max":499,"o":"m 469 747 l 222 747 l 315 681 l 315 -29 l 251 -60 l 93 26 l 93 747 l 0 747 l -79 851 l -50 910 l 103 910 l 103 1160 l 257 1160 l 257 910 l 421 910 l 499 806 l 469 747 z "},"ॏ":{"ha":421,"x_min":-414,"x_max":499,"o":"m 469 747 l 222 747 l 315 681 l 315 -29 l 251 -60 l 93 26 l 93 747 l 0 747 l -79 851 l -50 910 l 117 910 q 49 971 104 965 l -157 975 q -322 1042 -254 983 q -414 1238 -408 1115 l -292 1275 q -165 1128 -261 1132 l -85 1128 q 43 1108 -7 1128 l 47 1121 q -3 1147 28 1136 l -74 1175 q -218 1368 -218 1232 q -190 1485 -218 1428 l -61 1467 q -76 1397 -76 1424 q -55 1344 -76 1365 q 74 1269 -33 1322 q 225 1133 182 1215 q 268 954 268 1051 l 265 910 l 421 910 l 499 806 l 469 747 z "},"ॕ":{"ha":499,"x_min":-92,"x_max":571,"o":"m 522 1232 q 432 1044 501 1115 q 254 974 363 974 q 56 1042 150 974 q -92 1239 -37 1111 l 7 1319 q 197 1158 86 1158 q 351 1321 324 1158 l 522 1232 m -79 851 l -50 910 l 493 910 l 571 806 l 542 747 l 0 747 l -79 851 z "},"्":{"ha":0,"x_min":-435,"x_max":165,"o":"m -167 -261 l -306 -331 l -435 -197 q -231 -107 -331 -107 q -62 -182 -149 -107 l 165 -396 l 82 -483 l -167 -261 z "},"ऀ":{"ha":0,"x_min":-658,"x_max":-3,"o":"m -658 1204 q -559 1390 -637 1318 q -369 1463 -481 1463 q -160 1393 -262 1463 q -3 1197 -57 1324 l -101 1117 q -314 1278 -183 1278 q -426 1236 -378 1278 q -489 1117 -475 1194 l -658 1204 m -290 1207 q -182 1069 -217 1156 q -317 960 -244 989 q -431 1097 -374 993 q -367 1160 -410 1128 q -290 1207 -325 1193 z "},"ँ":{"ha":0,"x_min":-632,"x_max":24,"o":"m -311 1197 q -388 1244 -346 1211 q -451 1307 -431 1276 q -337 1444 -394 1411 q -203 1335 -265 1415 q -311 1197 -237 1249 m 24 1218 q -76 1033 4 1106 q -265 960 -156 960 q -475 1029 -372 960 q -632 1225 -578 1099 l -533 1306 q -437 1184 -493 1224 q -322 1144 -381 1144 q -210 1187 -258 1144 q -147 1307 -161 1229 l 24 1218 z "},"ं":{"ha":0,"x_min":-156,"x_max":118,"o":"m 0 1001 q -84 1052 -37 1017 q -156 1121 -131 1088 q -31 1271 -101 1229 q 51 1222 8 1257 q 118 1153 93 1186 q 69 1069 103 1113 q 0 1001 35 1025 z "},"ः":{"ha":456,"x_min":82,"x_max":350,"o":"m 228 419 q 149 466 193 432 q 82 532 104 500 q 200 675 136 635 q 342 561 275 646 q 294 481 326 522 q 228 419 261 440 m 236 43 q 156 91 200 57 q 90 157 113 125 q 208 299 146 261 q 350 186 285 269 q 236 43 314 96 z "},"़":{"ha":0,"x_min":-121,"x_max":139,"o":"m 25 -286 q -54 -239 -10 -272 q -121 -174 -99 -206 q -3 -31 -69 -71 q 139 -143 74 -60 q 92 -224 124 -183 q 25 -286 60 -264 z "},"॑":{"ha":0,"x_min":-297,"x_max":-144,"o":"m -144 1010 l -185 986 l -297 1043 l -297 1379 l -257 1403 l -144 1346 l -144 1010 z "},"॒":{"ha":0,"x_min":-551,"x_max":-51,"o":"m -551 -183 l -528 -143 l -108 -143 l -51 -256 l -75 -297 l -494 -297 l -551 -183 z "},"॓":{"ha":0,"x_min":-472,"x_max":-103,"o":"m -103 1074 l -178 988 l -228 988 l -472 1233 l -393 1318 l -343 1318 l -103 1074 z "},"॔":{"ha":0,"x_min":-385,"x_max":-14,"o":"m -304 989 l -385 1072 l -140 1317 l -89 1317 l -14 1224 l -254 989 l -304 989 z "},"ॱ":{"ha":529,"x_min":126,"x_max":400,"o":"m 282 697 q 198 748 244 713 q 126 817 151 783 q 251 967 181 925 q 333 917 290 953 q 400 849 375 882 q 351 765 385 808 q 282 697 317 721 z "},"०":{"ha":749,"x_min":36,"x_max":711,"o":"m 432 85 q 160 203 285 85 q 36 468 36 321 q 125 674 36 590 q 333 757 214 757 q 593 631 475 757 q 711 360 711 506 q 631 164 711 243 q 432 85 550 85 m 474 547 q 403 560 442 560 q 287 508 333 560 q 240 389 240 457 q 283 279 240 326 q 351 269 317 269 q 470 317 425 269 q 515 431 515 364 q 474 547 515 496 z "},"१":{"ha":647,"x_min":44,"x_max":600,"o":"m 600 21 q 550 -103 600 -50 l 340 -17 q 371 57 371 21 q 324 132 371 94 l 103 292 l 93 390 l 268 526 q 390 701 390 624 q 354 790 390 754 l 339 792 q 269 760 294 792 q 246 688 243 729 q 293 600 249 633 l 218 539 q 44 750 44 633 q 104 885 44 829 q 256 942 164 942 q 423 888 349 942 q 540 756 497 835 q 582 606 582 676 q 435 358 582 482 l 344 283 l 456 204 q 564 112 528 153 q 600 21 600 71 z "},"२":{"ha":797,"x_min":31,"x_max":735,"o":"m 735 56 l 735 -7 l 628 -90 l 267 221 q 78 288 144 231 l 147 497 l 211 510 l 274 436 q 448 519 386 460 q 510 651 510 578 q 444 781 510 729 q 160 624 322 757 l 31 817 q 181 909 96 876 q 344 942 265 942 q 603 833 490 942 q 715 583 715 725 q 642 388 715 475 q 443 256 569 301 l 735 56 z "},"३":{"ha":840,"x_min":22,"x_max":774,"o":"m 774 244 q 679 58 774 132 q 446 -15 585 -15 l 414 -14 l 600 -175 l 601 -237 l 494 -310 l 254 -4 q 86 93 158 28 l 168 285 l 238 290 l 301 185 q 375 175 336 175 q 513 214 454 175 q 571 307 571 253 q 481 400 571 375 l 283 324 l 165 514 q 368 578 243 578 l 410 575 l 411 575 q 497 693 497 621 q 446 782 497 747 q 299 725 379 769 q 151 624 219 681 l 22 817 q 177 908 88 875 q 347 942 267 942 q 592 853 485 942 q 699 650 699 764 q 618 478 699 556 q 774 244 774 379 z "},"४":{"ha":808,"x_min":-50,"x_max":808,"o":"m 526 467 l 551 438 q 679 169 679 281 q 618 13 679 76 q 464 -51 557 -51 q 250 35 349 -51 q 151 232 151 122 q 274 492 151 339 q -50 785 157 606 l 54 908 q 381 618 274 721 q 657 907 500 753 l 808 761 q 526 467 660 613 m 363 118 q 407 108 386 108 q 464 133 442 108 q 486 194 486 157 q 417 338 486 249 q 342 181 342 239 q 363 118 342 144 z "},"५":{"ha":803,"x_min":24,"x_max":772,"o":"m 772 13 l 746 -44 l 581 -78 l 528 218 q 378 164 463 164 q 171 250 271 164 q 64 382 104 304 q 24 544 24 460 q 140 917 24 701 l 347 832 q 231 443 231 568 l 233 406 q 325 358 267 358 q 463 456 419 358 l 422 625 l 472 676 l 679 606 q 631 385 682 501 l 772 13 z "},"६":{"ha":800,"x_min":50,"x_max":783,"o":"m 783 -162 l 765 -219 l 636 -257 l 574 -1 q 472 -17 524 -17 q 206 83 329 -17 q 82 318 82 182 q 171 513 82 438 q 50 714 50 608 q 136 878 50 815 q 363 942 222 942 q 615 885 489 942 l 611 686 q 401 739 501 739 q 285 713 329 739 q 242 643 242 688 q 281 571 242 606 q 418 590 342 590 q 589 572 503 590 l 597 374 q 469 386 526 386 q 324 349 371 386 q 276 257 276 313 q 306 182 276 213 q 360 175 329 175 q 521 211 449 175 l 514 283 l 600 321 l 754 150 q 676 53 732 99 l 783 -162 z "},"७":{"ha":875,"x_min":-40,"x_max":846,"o":"m 496 810 q 740 656 633 810 q 846 317 846 503 q 761 70 846 165 q 539 -25 676 -25 q 266 88 389 -25 q 64 376 143 200 q -40 736 -15 551 l 131 790 q 281 334 182 474 q 500 194 379 194 q 664 326 624 194 q 607 318 635 318 q 402 413 503 318 q 301 615 301 507 q 358 752 301 694 q 496 810 414 810 m 494 467 l 525 463 q 672 513 599 463 q 574 618 651 618 q 507 588 531 618 q 483 515 483 557 q 494 467 483 489 z "},"८":{"ha":690,"x_min":51,"x_max":690,"o":"m 242 269 q 272 192 242 222 q 350 161 303 161 q 553 308 450 161 l 690 156 q 411 -31 579 -31 q 163 82 275 -31 q 51 321 51 194 q 163 579 51 442 l 426 904 l 568 728 l 322 426 q 242 269 242 324 z "},"९":{"ha":706,"x_min":19,"x_max":701,"o":"m 701 50 q 651 -74 701 -11 l 440 13 q 478 96 478 57 q 432 182 478 140 l 207 388 q 69 540 118 465 q 19 699 19 615 q 90 872 19 801 q 265 942 161 942 q 490 840 390 942 q 590 622 590 738 q 428 375 590 492 l 561 265 q 701 50 701 150 m 326 764 q 252 728 283 764 q 221 636 221 692 q 275 510 221 575 q 404 682 404 597 q 383 740 404 717 q 326 764 361 764 z "},"।":{"ha":674,"x_min":306,"x_max":528,"o":"m 528 -56 l 463 -86 l 306 25 l 306 911 l 371 942 l 528 832 l 528 -56 z "},"॥":{"ha":1056,"x_min":306,"x_max":910,"o":"m 528 -56 l 463 -86 l 306 25 l 306 911 l 371 942 l 528 832 l 528 -56 m 910 -56 l 844 -86 l 688 25 l 688 911 l 753 942 l 910 832 l 910 -56 z "},"॰":{"ha":544,"x_min":99,"x_max":632,"o":"m 404 181 q 190 268 282 181 q 99 476 99 356 q 169 645 99 578 q 339 713 239 713 q 543 622 454 713 q 632 414 632 532 q 568 248 632 315 q 404 181 504 181 m 435 536 q 389 544 410 544 q 308 510 340 544 q 276 428 276 475 q 303 350 276 383 l 349 343 q 433 376 401 343 q 465 457 465 410 q 435 536 465 500 z "},"ꣻ":{"ha":421,"x_min":-79,"x_max":499,"o":"m -79 851 l -50 910 l 421 910 l 499 806 l 469 747 l 0 747 l -79 851 z "},"࿕":{"ha":1285,"x_min":163,"x_max":1118,"o":"m 754 550 l 1038 550 l 1118 446 l 1118 19 l 1054 -11 l 908 99 l 908 357 l 754 357 l 754 60 l 700 0 l 247 0 l 169 131 l 199 188 l 543 188 l 543 357 l 244 357 l 163 450 l 163 889 l 228 919 l 372 810 l 372 550 l 543 550 l 543 850 l 596 910 l 1028 910 l 1107 779 l 1078 721 l 754 721 l 754 550 z "},"ॐ":{"ha":1538,"x_min":21,"x_max":1517,"o":"m 856 1060 q 778 1106 821 1074 q 714 1169 736 1139 q 828 1307 771 1274 q 963 1197 900 1278 q 856 1060 929 1111 m 890 801 q 692 870 788 801 q 542 1067 596 939 l 640 1147 q 844 976 726 976 q 953 1022 910 976 q 1010 1149 996 1068 l 1176 1071 q 1078 877 1158 953 q 890 801 999 801 m 1206 811 q 1426 714 1336 811 q 1517 483 1517 617 q 1435 251 1517 363 q 1218 76 1353 139 l 1043 222 q 1250 390 1168 290 q 1332 568 1332 489 q 1312 628 1332 606 q 1263 651 1292 651 q 1203 624 1229 651 q 1129 505 1178 596 q 1046 363 1081 414 q 958 277 1011 313 q 833 242 904 242 q 758 257 793 242 l 760 238 q 679 52 760 131 q 482 -26 599 -26 q 245 65 365 -26 q 21 383 125 156 l 132 454 q 269 235 200 308 q 429 163 339 163 q 541 203 499 163 q 583 296 583 243 q 511 401 583 375 l 374 318 l 249 506 q 415 579 315 567 q 526 729 526 646 q 513 765 526 751 q 391 735 460 771 q 258 639 322 700 l 140 793 q 267 890 196 851 q 411 928 339 928 q 608 845 521 928 q 694 667 694 763 q 611 490 694 571 q 713 388 674 447 q 746 382 728 382 q 823 422 792 382 q 897 546 854 463 q 974 683 939 629 q 1067 774 1010 736 q 1206 811 1125 811 z "},"◌":{"ha":1013,"x_min":135,"x_max":878,"o":"m 507 643 q 493 643 507 643 q 464 661 479 643 q 449 704 449 679 q 507 765 449 765 q 551 747 535 765 q 567 704 567 729 q 551 661 567 679 q 507 643 535 643 m 349 603 q 335 603 349 603 q 306 621 321 603 q 290 664 290 639 q 349 725 290 725 q 392 707 376 725 q 408 664 408 689 q 392 621 408 639 q 349 603 376 603 m 663 603 q 649 603 663 603 q 619 621 635 603 q 604 664 604 639 q 663 725 604 725 q 706 707 690 725 q 722 664 722 689 q 706 621 722 639 q 663 603 690 603 m 233 488 q 219 488 233 488 q 190 506 206 488 q 175 549 175 524 q 233 610 175 610 q 277 592 261 610 q 293 549 293 574 q 277 506 293 524 q 233 488 261 488 m 779 488 q 765 488 779 488 q 736 506 751 488 q 721 549 721 524 q 779 610 721 610 q 823 592 807 610 q 839 549 839 574 q 823 506 839 524 q 779 488 807 488 m 193 331 q 179 331 193 331 q 150 349 165 331 q 135 392 135 367 q 193 453 135 453 q 237 435 221 453 q 253 392 253 417 q 237 349 253 367 q 193 331 221 331 m 818 331 q 804 331 818 331 q 775 349 790 331 q 760 392 760 367 q 818 453 760 453 q 862 435 846 453 q 878 392 878 417 q 862 349 878 367 q 818 331 846 331 m 233 175 q 219 175 233 175 q 190 193 206 175 q 175 236 175 211 q 233 297 175 297 q 277 279 261 297 q 293 236 293 261 q 277 193 293 211 q 233 175 261 175 m 779 175 q 765 175 779 175 q 736 193 751 175 q 721 236 721 211 q 779 297 721 297 q 823 279 807 297 q 839 236 839 261 q 823 193 839 211 q 779 175 807 175 m 350 58 q 336 58 350 58 q 307 76 322 58 q 292 119 292 94 q 350 181 292 181 q 394 163 378 181 q 410 119 410 144 q 394 76 410 94 q 350 58 378 58 m 663 58 q 649 58 663 58 q 619 76 635 58 q 604 119 604 94 q 663 181 604 181 q 706 163 690 181 q 722 119 722 144 q 706 76 722 94 q 663 58 690 58 m 508 19 q 494 19 508 19 q 465 38 481 19 q 450 81 450 56 q 508 142 450 142 q 552 124 536 142 q 568 81 568 106 q 552 38 568 56 q 508 19 536 19 z "},"‌":{"ha":0,"x_min":-96,"x_max":94,"o":"m 0 1107 l 72 1181 l 94 1157 l 22 1086 l 94 1013 l 72 990 l 0 1063 l -74 989 l -96 1013 l -24 1086 l -96 1157 l -74 1182 l 0 1107 z "},"‍":{"ha":0,"x_min":-137,"x_max":139,"o":"m 107 1071 l -106 1071 l -106 1007 l -137 1007 l -137 1101 l 139 1101 l 139 1007 l 107 1007 l 107 1071 z "}}}
